<?xml version="1.0" encoding="utf-8"?>
<!-- Generator: Adobe Illustrator 23.0.6, SVG Export Plug-In . SVG Version: 6.00 Build 0)  -->
<svg version="1.1" id="Layer_1" xmlns="http://www.w3.org/2000/svg" xmlns:xlink="http://www.w3.org/1999/xlink" x="0px" y="0px"
	 viewBox="0 0 300 300" style="enable-background:new 0 0 300 300;" xml:space="preserve">
<style type="text/css">
	.st0{fill:#1E1D51;}
	.st1{fill:url(#SVGID_1_);}
	.st2{fill:url(#SVGID_2_);}
	.st3{fill:url(#SVGID_3_);}
	.st4{fill:#FFF38D;}
	.st5{fill:#9D0D16;}
	.st6{fill:url(#SVGID_4_);}
	.st7{fill:url(#SVGID_5_);}
</style>
<path class="st0" d="M240.3,150.5c0,49.9-40.4,90.3-90.3,90.3s-90.3-40.4-90.3-90.3c0-49.9,40.4-90.3,90.3-90.3
	S240.3,100.6,240.3,150.5z"/>
<linearGradient id="SVGID_1_" gradientUnits="userSpaceOnUse" x1="-2151.5713" y1="-1609.0437" x2="-2121.0234" y2="-1526.0913" gradientTransform="matrix(1.3227 0 0 1.3227 2958.1357 2236.3933)">
	<stop  offset="0" style="stop-color:#FFFFFF"/>
	<stop  offset="1" style="stop-color:#53EEEF"/>
</linearGradient>
<path class="st1" d="M149.6,87.1c-7.7,0.1-15.1,1.5-22,3.9v49.6h22V87.1z M109.6,101.9c-11.5,9.7-19.6,23.2-22.3,38.4h22.3V101.9z
	 M126.9,158.2V210c7.1,2.4,14.7,3.8,22.6,3.9v-55.8H126.9z M87.3,158.3c2.3,16.2,10.5,30.5,22.5,40.8v-40.8H87.3z"/>
<linearGradient id="SVGID_2_" gradientUnits="userSpaceOnUse" x1="-2121.5691" y1="-1622.3811" x2="-2089.5957" y2="-1530.7367" gradientTransform="matrix(1.3227 0 0 1.3227 2958.1357 2236.3933)">
	<stop  offset="0" style="stop-color:#2F7FBE"/>
	<stop  offset="1" style="stop-color:#225D8B"/>
</linearGradient>
<path class="st2" d="M151.2,87.7c34.1,0.7,61.5,28.5,61.5,62.8c0,34.2-27.4,62.1-61.5,62.7V87.7z"/>
<linearGradient id="SVGID_3_" gradientUnits="userSpaceOnUse" x1="6.7278" y1="-1754.5762" x2="48.3889" y2="-1673.7429" gradientTransform="matrix(1.3501 0 0 1.3404 88.0176 2458.1963)">
	<stop  offset="0" style="stop-color:#D50D16"/>
	<stop  offset="0.5" style="stop-color:#880D16"/>
	<stop  offset="1" style="stop-color:#520D16"/>
</linearGradient>
<path class="st3" d="M126,91.8V142h23.3v14.8H126v52.5c-5.3-2.2-10.4-5.1-14.9-8.7v-43.8H86.8c-0.2-2.1-0.3-4.2-0.3-6.3
	c0-2.9,0.2-5.7,0.6-8.6h24v-41.5C115.7,96.9,120.7,94,126,91.8L126,91.8z"/>
<path class="st4" d="M109.4,198.4"/>
<path class="st5" d="M167.1,108.9h21.6v3h-21.6V108.9z"/>
<linearGradient id="SVGID_4_" gradientUnits="userSpaceOnUse" x1="-26.9872" y1="-1782.5564" x2="65.8794" y2="-1703.2369" gradientTransform="matrix(1.3227 0 0 1.3227 120.5978 2452.6387)">
	<stop  offset="0" style="stop-color:#F8FFBF"/>
	<stop  offset="0.509" style="stop-color:#F8E45E"/>
	<stop  offset="0.75" style="stop-color:#F8D35E"/>
	<stop  offset="1" style="stop-color:#EE8E0A"/>
</linearGradient>
<path class="st6" d="M150.3,55.6c-32.9-0.1-64.9,17-82.4,47.5c-26.2,45.4-10.6,103.4,34.7,129.6c45.4,26.2,103.4,10.6,129.6-34.7
	c26.2-45.4,10.6-103.4-34.7-129.6C182.6,59.7,166.3,55.6,150.3,55.6L150.3,55.6z M150,60.2c49.9,0,90.3,40.5,90.3,90.3
	c0,49.9-40.5,90.3-90.3,90.3c-49.9,0-90.3-40.5-90.3-90.3C59.7,100.6,100.1,60.2,150,60.2z M144.6,63.3v18.7h5.7v-6.3l4.6,6.3
	l7.5,1.1l-6.5-8.4c1.4-0.3,4.1-1.8,4.1-5c0-4.8-4.3-6.3-7-6.3L144.6,63.3L144.6,63.3z M151.8,67.4c1.6,0,2.7,1.1,2.7,2.2
	c0.1,1.2-0.7,2.4-2.5,2.4h-1.8l-0.1-4.5L151.8,67.4z M178.7,68.5c-0.1,0-0.2,0-0.3,0c-4.9,0.1-9.1,3.1-10.1,8
	c-1,4.9,3.4,10.6,8.8,11.8c5.8,1.3,11.3-1.4,12.5-7.8c1.1-5.4-2.9-10.7-8.8-11.8C180.1,68.6,179.4,68.5,178.7,68.5L178.7,68.5z
	 M109.6,73.4l-5.1,2.7l2.4,21.1l5.4-4l-0.7-3.2l5.9-3.5l2.7,2l6.2-2.5L109.6,73.4L109.6,73.4z M178.8,73.7c0.3,0,0.7,0,1.1,0.1
	c2.8,0.5,4.6,3,4.1,5.6c-0.5,2.6-3.1,4.4-5.9,3.8c-2.8-0.5-4.2-3.3-3.7-5.9C174.7,75,176.4,73.7,178.8,73.7z M109.8,80.2l4.3,3.3
	l-3.1,1.8L109.8,80.2z M205,82.9L189,94l4.7,3.7l7.7-6l-3.9,9.7l2,1.9l9.8-4l-5.9,8l3.6,5.1l11.3-16.2l-3.6-4.3l-9.2,3.7l3.7-9.3
	L205,82.9z M150,85.2c-36,0-65.3,29.3-65.3,65.3c0,36,29.3,65.3,65.3,65.3c36,0,65.3-29.3,65.3-65.3C215.3,114.5,186,85.2,150,85.2z
	 M90.2,87.4l-7.8,9L96,108.5l3.8-4.4l-5.2-4.6l3.8-4.1l-3.3-3l-3.8,4.2l-1.9-1.8l4.1-4.5L90.2,87.4z M148.7,87.7v51.8h-20.3v-48
	C134.8,89.2,141.6,87.9,148.7,87.7L148.7,87.7z M151.2,87.7c23.9,0.5,44.5,14.3,54.7,34.3c-0.1-0.2-0.3-0.3-0.4-0.5
	c-2.5-3.1-5.6-5.2-8.3-6.9c-0.2-0.1-0.5-0.2-0.7-0.2c-0.4,0-0.8,0.2-1,0.5c-0.6,0.9-1.8,1.6-3.3,1.6h-11.6c-0.6,0-1.1,0.2-1.6,0.5
	c-0.5,0.3-0.9,1-0.9,1.7v1.3c0,0,0,0-0.1,0.1c-0.1,0.1-0.3,0.2-0.6,0.2h-10l0-0.8v0c0-1.5-0.8-2.9-2-3.8l0,0l0,0l-4.4-3l0,0l0,0
	c-0.7-0.5-1.5-0.7-2.2-0.7c-0.2,0-0.5,0-0.7,0.1c-0.9,0.2-1.7,0.8-2.1,1.5c-1,1.5-0.7,3.8,1.1,5.2l2,1.6l0,0l0,0
	c0.4,0.3,0.7,0.7,0.7,0.8l-0.1,3.3v0c0,0,0,0.1,0,0.1c-0.1,0-0.2,0-0.4-0.1c-0.5-0.2-0.8-0.4-1.4-0.6c-0.6-0.2-1.3-0.4-2.2-0.4
	c-1.7,0-3,0.7-3.9,1.7c-0.3,0.3-0.5,0.7-0.7,1.1L151.2,87.7L151.2,87.7z M125.9,92.5v49.5h22.8v14.6h-22.8v51.8
	c-5.2-2.2-10.2-5.1-14.6-8.6v-43.2H87.5c-0.2-2.1-0.3-4.1-0.3-6.2c0-2.8,0.2-5.6,0.6-8.4h23.5v-41C115.8,97.6,120.7,94.7,125.9,92.5
	z M168.5,102.2c-1,0-1.9,0.8-1.9,1.9c0,1,0.8,1.9,1.9,1.9c1,0,1.9-0.8,1.9-1.9C170.3,103,169.5,102.2,168.5,102.2z M173.2,102.2
	c-1,0-1.9,0.8-1.9,1.9c0,1,0.8,1.9,1.9,1.9c1,0,1.9-0.8,1.9-1.9C175.1,103,174.2,102.2,173.2,102.2z M177.9,102.2
	c-1,0-1.9,0.8-1.9,1.9c0,1,0.8,1.9,1.9,1.9c1,0,1.9-0.8,1.9-1.9C179.8,103,179,102.2,177.9,102.2z M182.7,102.2
	c-1,0-1.9,0.8-1.9,1.9c0,1,0.8,1.9,1.9,1.9c1,0,1.9-0.8,1.9-1.9C184.5,103,183.7,102.2,182.7,102.2z M187.4,102.2
	c-1,0-1.9,0.8-1.9,1.9c0,1,0.8,1.9,1.9,1.9c1,0,1.9-0.8,1.9-1.9C189.3,103,188.4,102.2,187.4,102.2z M108.8,103.2v36.4H88.2
	C90.7,125.1,98.2,112.4,108.8,103.2z M167.1,107v3h21.6v-3H167.1z M167.1,111.1v3h21.6v-3H167.1z M227.3,111.1l-17,6.9l4.8,11.2
	l4.5-1.9l-2.5-5.7l2.1-1l2.4,5.5l4.1-1.7l-2.3-5.3l2-0.9l2.4,5.7l4.2-1.7L227.3,111.1z M71.8,113.2l-2.4,5.3l16.6,7.7l5.3-10.8
	l-4.1-2.1l-3.2,5.6L71.8,113.2z M159,114.6c0.2,0,0.4,0,0.7,0.2l4.3,2.9c0.5,0.4,0.9,1.1,0.9,1.7l-0.1,4.1v0c0,1.6,0.8,3,1.9,3.9
	c0.6,0.6,1.3,1,2.1,1.3c-0.8,0.3-1.5,0.7-2.1,1.3c-1,1-1.9,2.3-1.9,3.9v0l0.1,4.1c0,0.6-0.4,1.3-0.9,1.7l-4.3,2.9
	c-0.4,0.3-0.7,0.3-0.9,0.2c-0.2-0.1-0.5-0.2-0.6-0.5c-0.3-0.5-0.5-1.1,0.5-1.7l0,0l0,0l2.1-1.6c0.7-0.5,1.7-1.3,1.7-2.8v0l-0.1-3.3
	c0-0.7-0.3-1.5-1-2.1c-0.7-0.5-1.7-0.6-2.7-0.3c-0.7,0.2-1.2,0.5-1.5,0.6c-0.4,0.1-0.7,0.2-1.4,0.2c-0.9,0-1.5-0.4-2-0.9
	c-0.4-0.5-0.7-1.2-0.7-1.7v-0.3c0-0.5,0.2-1.2,0.7-1.7c0.4-0.5,1-0.9,2-0.9c0.7,0,1,0.1,1.4,0.2c0.4,0.1,0.8,0.4,1.5,0.6
	c1,0.3,2,0.3,2.7-0.3c0.7-0.5,1-1.4,1-2.1l0.1-3.3v0c0-1.5-1-2.3-1.7-2.8l-2-1.6l0,0l0,0c-0.9-0.7-0.8-1.2-0.5-1.7
	c0.2-0.2,0.4-0.4,0.6-0.5C158.9,114.6,159,114.6,159,114.6z M196.8,117.4c2.4,1.6,4.9,3.3,6.8,5.8c2.2,2.7,3.7,6.2,3.7,11.4
	c0,9.7-9,17.5-17.7,17.5h-21c-0.6,0-1.2,0.3-1.6,0.7c-0.4,0.4-0.5,0.9-0.5,1.4c0,0.5,0.2,1,0.5,1.4c0.4,0.4,1,0.7,1.6,0.7h20.5
	c7.4,0,11.3,4.7,11.3,10.4c0,5.5-4.1,10.6-11.3,10.6H168c-0.5,0-1.1,0.2-1.4,0.6c-0.3,0.4-0.5,0.8-0.5,1.3c0,0.4,0.1,0.9,0.5,1.2
	c0.3,0.4,0.9,0.6,1.4,0.6h15.7c3.4,0,6.3,3.3,6.3,6.5c0,1.6-0.5,3.1-1.5,4.1c-1,1.1-2.6,1.9-5.3,1.9h-9.4c-0.4,0-0.8,0.1-1.1,0.3
	s-0.7,0.8-0.6,1.3c0,0.5,0.3,1,0.7,1.2c0.3,0.2,0.7,0.3,1.1,0.3h6.3c0.9,0,1.5,0.4,2.1,1c0.5,0.6,0.8,1.5,0.8,2.2
	c0,0.9-0.3,1.7-0.9,2.2c-0.4,0.3-0.9,0.6-1.6,0.6c0-0.4,0-0.8-0.2-1.3c-0.3-0.6-1.1-1-1.8-1h-3.8c-1.3,0-2.8-0.5-3.8-1.4
	c-1.1-0.9-1.8-2.3-1.8-4.2c0-1.7,0.7-3,1.8-3.9c1-0.9,2.4-1.4,3.4-1.4h9.2c0.4,0,0.8-0.1,1.2-0.3c0.4-0.2,0.8-0.7,0.8-1.3
	c0-0.6-0.4-1.1-0.8-1.3c-0.4-0.2-0.8-0.3-1.2-0.3h-14.5c-5.6,0-8.7-3.9-8.7-8.2c0-3.8,3.2-8.3,8.2-8.3h21.5c0.6,0,1.2-0.3,1.5-0.7
	c0.4-0.4,0.5-0.9,0.5-1.4c0-0.5-0.2-1-0.5-1.4c-0.4-0.4-1-0.7-1.5-0.7h-21.9c-6.1,0-11-4.5-11-11.4c0-5.7,4.7-11.6,11.6-11.6h19.9
	c1.1,0,2.1-0.5,2.7-1.2c0.6-0.7,0.9-1.6,0.9-2.5c0-0.9-0.3-1.7-0.9-2.5c-0.6-0.7-1.6-1.2-2.7-1.2h-21.2l0-1.2c0-0.7,0.4-1.5,1-2.1
	c0.6-0.6,1.5-0.9,2-0.9h11.9c0.5,0,0.9-0.1,1.4-0.4c0.4-0.3,0.9-1,0.9-1.8c0-0.9-0.3-1.3-0.9-1.8c-0.4-0.3-0.9-0.4-1.4-0.4h-11.9
	c-0.5,0-1.4-0.3-2-0.9c-0.6-0.6-1-1.3-1-2.1l0-0.7H182c0.8,0,1.5-0.3,2.1-0.7c0.6-0.4,1-1.1,1-2v-1.1h7.1
	C194,119.1,195.6,118.4,196.8,117.4L196.8,117.4z M209.6,130.7c2.1,6.2,3.2,12.9,3.2,19.8c0,21.9-11.2,41.2-28.3,52.4
	c0.7-0.9,1-2.1,1-3.2c0-1.3-0.5-2.7-1.4-3.8c0,0-0.1-0.1-0.1-0.1c2.9-0.1,5-1.1,6.4-2.6c1.5-1.6,2.1-3.8,2.1-5.9
	c0-3.1-1.7-6-4.3-7.7h1c8.4,0,13.8-6.4,13.8-13.1c0-5.7-3.7-10.9-9.9-12.4c8.9-1.7,16.9-9.7,16.9-19.6
	C209.9,133.2,209.8,131.9,209.6,130.7L209.6,130.7z M151.2,131.1c0.2,0.4,0.4,0.8,0.7,1.1c0.9,1,2.2,1.7,3.9,1.7
	c0.9,0,1.7-0.2,2.2-0.4c0.6-0.2,0.9-0.4,1.4-0.6c0.2-0.1,0.3-0.1,0.4-0.1c0,0,0,0,0,0.1v0l0.1,3.3c0,0.1-0.2,0.5-0.7,0.8l0,0l0,0
	l-2.1,1.6c-1.9,1.3-2,3.6-1.1,5.1c0.4,0.6,1,1.1,1.8,1.4c-2,2.5-3.2,5.7-3.2,8.8c0,7,4.5,12.3,10.5,13.6c-4.5,1.5-7.3,6-7.3,10.2
	c0,5.5,4.4,10.7,11.2,10.7h0.5c-0.1,0.1-0.2,0.2-0.3,0.3c-1.5,1.3-2.6,3.3-2.6,5.8c0,2.6,1.1,4.7,2.7,6c1.6,1.4,3.6,2,5.5,2h3.1
	c-0.1,0.2-0.1,0.4-0.1,0.4c-0.3,0.6,0,1.4,0.6,1.7c0.1,0,0.2,0.1,0.3,0.1c0.9,0.2,1.7,0.2,2.5,0.1c-8.8,5.1-19,8.1-29.9,8.3V131.1z
	 M83.6,133.3l-19.5,6.4l-0.7,5.8l18.5,10l-0.1-6.7l-2.8-1.3l0.4-6.9l3.3-0.8L83.6,133.3L83.6,133.3z M227.2,133.9
	c-6.5,0-9.8,5.4-9.8,10.7c0,5.4,3.9,10.7,9.8,10.7c5.9,0,9.9-4.9,9.9-10.7C237.1,138.9,233.6,133.9,227.2,133.9z M167.5,137.7h21.2
	c0.4,0,0.6,0.1,0.7,0.3c0.2,0.2,0.3,0.5,0.3,0.8c0,0.3-0.1,0.7-0.3,0.9c-0.2,0.2-0.3,0.3-0.7,0.3h-19.9c-0.6,0-1.2,0-1.8,0.1
	c0.3-0.6,0.5-1.3,0.5-2v0L167.5,137.7z M227.3,139.7c2.9,0,4.6,2.7,4.6,4.9c0,2.2-1.7,4.9-4.6,4.9c-2.8,0-4.5-2.4-4.5-4.9
	C222.8,142.1,224.4,139.7,227.3,139.7z M75,141.7l-0.2,3.8l-5.3-2.5L75,141.7z M87.8,159.2h21v38.6C97.6,188.1,90,174.5,87.8,159.2z
	 M128.4,159.2h20.3v54.1c-7.1-0.1-14-1.5-20.3-3.8V159.2z"/>
<path class="st5" d="M159,114.6c0.2,0,0.4,0,0.7,0.2l4.3,2.9c0.5,0.4,0.9,1.1,0.9,1.7l-0.1,4.1v0c0,1.6,0.8,3,1.9,3.9
	c0.6,0.6,1.3,1,2.1,1.3c-0.8,0.3-1.5,0.7-2.1,1.3c-1,1-1.9,2.3-1.9,3.9v0l0.1,4.1c0,0.6-0.4,1.3-0.9,1.7l-4.3,2.9
	c-0.4,0.3-0.7,0.3-0.9,0.2c-0.2-0.1-0.5-0.2-0.6-0.5c-0.3-0.5-0.5-1.1,0.5-1.7l0,0l0,0l2.1-1.6c0.7-0.5,1.7-1.3,1.7-2.8v0l-0.1-3.3
	c0-0.7-0.3-1.5-1-2.1c-0.7-0.5-1.7-0.6-2.7-0.3c-0.7,0.2-1.2,0.5-1.5,0.6c-0.4,0.1-0.7,0.2-1.4,0.2c-0.9,0-1.5-0.4-2-0.9
	c-0.4-0.5-0.7-1.2-0.7-1.7v-0.3c0-0.5,0.2-1.2,0.7-1.7c0.4-0.5,1-0.9,2-0.9c0.7,0,1,0.1,1.4,0.2c0.4,0.1,0.8,0.4,1.5,0.6
	c1,0.3,2,0.3,2.7-0.3c0.7-0.5,1-1.4,1-2.1l0.1-3.3v0c0-1.5-1-2.3-1.7-2.8l-2-1.6l0,0l0,0c-0.9-0.7-0.8-1.2-0.5-1.7
	c0.2-0.2,0.4-0.4,0.6-0.5C158.9,114.6,159,114.6,159,114.6z"/>
<linearGradient id="SVGID_5_" gradientUnits="userSpaceOnUse" x1="-2105.386" y1="-1597.082" x2="-2086.5498" y2="-1541.0739" gradientTransform="matrix(1.3227 0 0 1.3227 2958.1357 2236.3933)">
	<stop  offset="0" style="stop-color:#157031"/>
	<stop  offset="1" style="stop-color:#0F5324"/>
</linearGradient>
<path class="st7" d="M196.8,117.4c2.4,1.6,4.9,3.3,6.8,5.8c2.2,2.7,3.7,6.2,3.7,11.4c0,9.7-9,17.5-17.7,17.5h-21
	c-0.6,0-1.2,0.3-1.6,0.7c-0.4,0.4-0.5,0.9-0.5,1.4c0,0.5,0.2,1,0.5,1.4c0.4,0.4,1,0.7,1.6,0.7h20.5c7.4,0,11.3,4.7,11.3,10.4
	c0,5.5-4.1,10.6-11.3,10.6H168c-0.5,0-1.1,0.2-1.4,0.6c-0.3,0.4-0.5,0.8-0.5,1.3c0,0.4,0.1,0.9,0.5,1.2c0.3,0.4,0.9,0.6,1.4,0.6
	h15.7c3.4,0,6.3,3.3,6.3,6.5c0,1.6-0.5,3.1-1.5,4.1c-1,1.1-2.6,1.9-5.3,1.9h-9.4c-0.4,0-0.8,0.1-1.1,0.3s-0.7,0.8-0.6,1.3
	c0,0.5,0.3,1,0.7,1.2c0.3,0.2,0.7,0.3,1.1,0.3h6.3c0.9,0,1.5,0.4,2.1,1c0.5,0.6,0.8,1.5,0.8,2.2c0,0.9-0.3,1.7-0.9,2.2
	c-0.4,0.3-0.9,0.6-1.6,0.6c0-0.4,0-0.8-0.2-1.3c-0.3-0.6-1.1-1-1.8-1h-3.8c-1.3,0-2.8-0.5-3.8-1.4c-1.1-0.9-1.8-2.3-1.8-4.2
	c0-1.7,0.7-3,1.8-3.9c1-0.9,2.4-1.4,3.4-1.4h9.2c0.4,0,0.8-0.1,1.2-0.3c0.4-0.2,0.8-0.7,0.8-1.3c0-0.6-0.4-1.1-0.8-1.3
	c-0.4-0.2-0.8-0.3-1.2-0.3h-14.5c-5.6,0-8.7-3.9-8.7-8.2c0-3.8,3.2-8.3,8.2-8.3h21.5c0.6,0,1.2-0.3,1.5-0.7c0.4-0.4,0.5-0.9,0.5-1.4
	c0-0.5-0.2-1-0.5-1.4c-0.4-0.4-1-0.7-1.5-0.7h-21.9c-6.1,0-11-4.5-11-11.4c0-5.7,4.7-11.6,11.6-11.6h19.9c1.1,0,2.1-0.5,2.7-1.2
	c0.6-0.7,0.9-1.6,0.9-2.5c0-0.9-0.3-1.7-0.9-2.5c-0.6-0.7-1.6-1.2-2.7-1.2h-21.2l0-1.2c0-0.7,0.4-1.5,1-2.1c0.6-0.6,1.5-0.9,2-0.9
	h11.9c0.5,0,0.9-0.1,1.4-0.4c0.4-0.3,0.9-1,0.9-1.8c0-0.9-0.3-1.3-0.9-1.8c-0.4-0.3-0.9-0.4-1.4-0.4h-11.9c-0.5,0-1.4-0.3-2-0.9
	c-0.6-0.6-1-1.3-1-2.1l0-0.7H182c0.8,0,1.5-0.3,2.1-0.7c0.6-0.4,1-1.1,1-2v-1.1h7.1C194,119.1,195.6,118.4,196.8,117.4L196.8,117.4z
	"/>
</svg>
