<?xml version="1.0" encoding="utf-8"?>
<!-- Generator: Adobe Illustrator 21.0.2, SVG Export Plug-In . SVG Version: 6.00 Build 0)  -->
<svg version="1.1" id="Layer_1" xmlns="http://www.w3.org/2000/svg" xmlns:xlink="http://www.w3.org/1999/xlink" x="0px" y="0px"
	 viewBox="0 0 300 300" style="enable-background:new 0 0 300 300;" xml:space="preserve">
<style type="text/css">
	.st0{fill:url(#SVGID_1_);}
	.st1{fill:#333333;}
	.st2{fill:url(#SVGID_2_);}
	.st3{fill:url(#SVGID_3_);}
	.st4{fill:url(#SVGID_4_);}
	.st5{fill:url(#SVGID_5_);}
	.st6{fill:url(#SVGID_6_);}
	.st7{fill:url(#SVGID_7_);}
	.st8{fill:url(#SVGID_8_);}
	.st9{fill:url(#SVGID_9_);}
	.st10{fill:url(#SVGID_10_);}
	.st11{fill:url(#SVGID_11_);}
	.st12{fill:url(#SVGID_12_);}
	.st13{fill:#C2D7E8;}
	.st14{fill:url(#SVGID_13_);}
	.st15{fill:#12404F;}
	.st16{fill:url(#SVGID_14_);}
	.st17{fill:url(#SVGID_15_);}
	.st18{fill:url(#SVGID_16_);}
	.st19{fill:url(#SVGID_17_);}
</style>
<linearGradient id="SVGID_1_" gradientUnits="userSpaceOnUse" x1="-1029.3407" y1="2116.7734" x2="-947.4909" y2="2037.6796" gradientTransform="matrix(2.4662 0 0 -2.4662 2579.4404 5265.7412)">
	<stop  offset="0" style="stop-color:#DFF4FF"/>
	<stop  offset="9.800000e-02" style="stop-color:#D6EAF5"/>
	<stop  offset="0.268" style="stop-color:#BFD0D9"/>
	<stop  offset="0.488" style="stop-color:#98A5AC"/>
	<stop  offset="0.747" style="stop-color:#646B6E"/>
	<stop  offset="1" style="stop-color:#2B2B2B"/>
</linearGradient>
<path class="st0" d="M150,55.7c-52.5,0-95.1,42.6-95.1,95.1s42.6,95.1,95.1,95.1s95.1-42.6,95.1-95.1S202.5,55.7,150,55.7z
	 M150,241.2c-49.9,0-90.4-40.5-90.4-90.4s40.5-90.4,90.4-90.4s90.4,40.5,90.4,90.4S199.9,241.2,150,241.2z"/>
<path class="st1" d="M241,150.8c0,50.3-40.8,91-91,91c-50.3,0-91-40.8-91-91c0-50.3,40.8-91,91-91C200.3,59.7,241,100.5,241,150.8z"
	/>
<radialGradient id="SVGID_2_" cx="-1024.1643" cy="2110.0735" r="54.8058" gradientTransform="matrix(2.4662 0 0 -2.4662 2579.4404 5265.7412)" gradientUnits="userSpaceOnUse">
	<stop  offset="0" style="stop-color:#FFFFFF"/>
	<stop  offset="0.306" style="stop-color:#A8A8A8"/>
	<stop  offset="0.646" style="stop-color:#4F4F4F"/>
	<stop  offset="0.885" style="stop-color:#161616"/>
	<stop  offset="1" style="stop-color:#000000"/>
</radialGradient>
<path class="st2" d="M240.4,150.8c0,49.9-40.5,90.4-90.4,90.4s-90.4-40.5-90.4-90.4s40.5-90.4,90.4-90.4S240.4,100.9,240.4,150.8z"
	/>
<linearGradient id="SVGID_3_" gradientUnits="userSpaceOnUse" x1="-30.08" y1="633.8674" x2="22.0498" y2="583.4928" gradientTransform="matrix(-2.4662 0 0 2.4662 145.2722 -1345.3268)">
	<stop  offset="0" style="stop-color:#DFF4FF"/>
	<stop  offset="8.600000e-02" style="stop-color:#D6EAF5"/>
	<stop  offset="0.233" style="stop-color:#BED0D9"/>
	<stop  offset="0.424" style="stop-color:#96A4AC"/>
	<stop  offset="0.652" style="stop-color:#5F686D"/>
	<stop  offset="0.907" style="stop-color:#1A1D1E"/>
	<stop  offset="1" style="stop-color:#000000"/>
</linearGradient>
<path class="st3" d="M210.6,150.8c0,33.5-27.1,60.6-60.6,60.6s-60.6-27.1-60.6-60.6s27.1-60.6,60.6-60.6
	C183.5,90.2,210.6,117.3,210.6,150.8z"/>
<path d="M152.4,88.5l6.3-16.6v16.6h4.8V64.7h-7.1l-6.6,17.1h0.1l-6.6-17.1h-7.2v23.8h4.8V71.9l6.3,16.6H152.4z M218,99.3l-8.2,11.9
	l12.8-6.4l3.5,4.1l-20.2,10.2l-4.1-5l7.8-11.8v-0.1l-13,5.6l-4.1-4.9L206,85l3.5,4.1l-8.5,11.4l13.2-5.9L218,99.3z"/>
<path class="st1" d="M107.7,94.6c-1.9-1.9-4.9-2.4-7.7-0.7c0.5-1.4,0.3-2.8,0-3.6c-1.2-2.2-1.6-2.4-2.6-3.3c-3.2-2.6-6.6-0.4-9,2.4
	l-11.7,13.9L95,118.7l12.3-14.6C110.2,100.9,110.7,97.6,107.7,94.6L107.7,94.6z M84,101.4l7-8.4c0.8-1,2.6-1,3.8,0.1
	c1.3,1.1,1.3,2.6,0.4,3.7l-6.9,8.3L84,101.4L84,101.4z M103.3,102.8l-7.3,8.7l-4.6-3.8l7.3-8.8c0.8-1,2.6-1.3,3.9-0.2
	C104.1,99.8,104.2,101.6,103.3,102.8L103.3,102.8z"/>
<radialGradient id="SVGID_4_" cx="-1034.0072" cy="2115.6548" r="131.6902" gradientTransform="matrix(2.4662 0 0 -2.4662 2579.4404 5265.7412)" gradientUnits="userSpaceOnUse">
	<stop  offset="0" style="stop-color:#FFFFFF"/>
	<stop  offset="0.31" style="stop-color:#FDFDFD"/>
	<stop  offset="0.451" style="stop-color:#F6F6F6"/>
	<stop  offset="0.557" style="stop-color:#E9E9E9"/>
	<stop  offset="0.646" style="stop-color:#D7D7D7"/>
	<stop  offset="0.724" style="stop-color:#BFBFBF"/>
	<stop  offset="0.794" style="stop-color:#A2A2A2"/>
	<stop  offset="0.859" style="stop-color:#808080"/>
	<stop  offset="0.92" style="stop-color:#575757"/>
	<stop  offset="0.975" style="stop-color:#2B2B2B"/>
	<stop  offset="1" style="stop-color:#141414"/>
</radialGradient>
<path class="st4" d="M152.4,87.7l6.3-16.6v16.6h4.8V63.7h-7.1l-6.6,17.1h0.1l-6.6-17.1h-7.1v23.9h4.8V70.9l6.3,16.6h5.2V87.7z"/>
<radialGradient id="SVGID_5_" cx="-1034.0131" cy="2115.6548" r="131.7014" gradientTransform="matrix(2.4662 0 0 -2.4662 2579.4404 5265.7412)" gradientUnits="userSpaceOnUse">
	<stop  offset="0" style="stop-color:#FFFFFF"/>
	<stop  offset="0.31" style="stop-color:#FDFDFD"/>
	<stop  offset="0.451" style="stop-color:#F6F6F6"/>
	<stop  offset="0.557" style="stop-color:#E9E9E9"/>
	<stop  offset="0.646" style="stop-color:#D7D7D7"/>
	<stop  offset="0.724" style="stop-color:#BFBFBF"/>
	<stop  offset="0.794" style="stop-color:#A2A2A2"/>
	<stop  offset="0.859" style="stop-color:#808080"/>
	<stop  offset="0.92" style="stop-color:#575757"/>
	<stop  offset="0.975" style="stop-color:#2B2B2B"/>
	<stop  offset="1" style="stop-color:#141414"/>
</radialGradient>
<path class="st5" d="M218.1,97.6l-8.2,11.9l12.8-6.4l3.5,4.1L206,117.4l-4.1-5l7.8-11.8v-0.1l-13,5.6l-4.1-4.9l13.6-18l3.5,4.1
	l-8.5,11.4l13.1-5.9L218.1,97.6z"/>
<radialGradient id="SVGID_6_" cx="-1034.0203" cy="2115.6934" r="131.8023" gradientTransform="matrix(2.4662 0 0 -2.4662 2579.4404 5265.7412)" gradientUnits="userSpaceOnUse">
	<stop  offset="0" style="stop-color:#FFFFFF"/>
	<stop  offset="0.31" style="stop-color:#FDFDFD"/>
	<stop  offset="0.451" style="stop-color:#F6F6F6"/>
	<stop  offset="0.557" style="stop-color:#E9E9E9"/>
	<stop  offset="0.646" style="stop-color:#D7D7D7"/>
	<stop  offset="0.724" style="stop-color:#BFBFBF"/>
	<stop  offset="0.794" style="stop-color:#A2A2A2"/>
	<stop  offset="0.859" style="stop-color:#808080"/>
	<stop  offset="0.92" style="stop-color:#575757"/>
	<stop  offset="0.975" style="stop-color:#2B2B2B"/>
	<stop  offset="1" style="stop-color:#141414"/>
</radialGradient>
<path class="st6" d="M106.9,94.2c-1.9-1.9-4.9-2.4-7.6-0.7c0.5-1.4,0.3-2.8,0-3.6c-1.2-2.2-1.6-2.4-2.6-3.3c-3.2-2.6-6.6-0.4-9,2.4
	l-11.7,13.9l18.3,15.4l12.3-14.6C109.3,100.4,109.7,97.1,106.9,94.2L106.9,94.2z M83.1,100.9l7-8.4c0.8-1,2.6-1,3.8,0.1
	c1.3,1.1,1.3,2.6,0.4,3.7l-6.9,8.3L83.1,100.9L83.1,100.9z M102.4,102.3l-7.3,8.7l-4.6-3.8l7.3-8.8c0.8-1,2.6-1.3,3.9-0.2
	C103.3,99.3,103.4,101.1,102.4,102.3L102.4,102.3z"/>
<radialGradient id="SVGID_7_" cx="-1010.4216" cy="2097.3977" r="35.5208" gradientTransform="matrix(2.4662 0 0 -2.4662 2579.4404 5265.7412)" gradientUnits="userSpaceOnUse">
	<stop  offset="0" style="stop-color:#E6E6E6"/>
	<stop  offset="0.104" style="stop-color:#D6D6D6"/>
	<stop  offset="0.307" style="stop-color:#ADADAD"/>
	<stop  offset="0.588" style="stop-color:#6C6C6C"/>
	<stop  offset="0.933" style="stop-color:#121212"/>
	<stop  offset="1" style="stop-color:#000000"/>
</radialGradient>
<path class="st7" d="M91.4,150.8c0-32.3,26.3-58.6,58.6-58.6s58.6,26.3,58.6,58.6s-26.3,58.6-58.6,58.6S91.4,183.1,91.4,150.8
	L91.4,150.8z"/>
<radialGradient id="SVGID_8_" cx="-1000.7062" cy="2092.6201" r="51.6575" gradientTransform="matrix(2.4662 0 0 -2.4662 2579.4404 5265.7412)" gradientUnits="userSpaceOnUse">
	<stop  offset="0" style="stop-color:#FFFFFF"/>
	<stop  offset="0.344" style="stop-color:#FDFDFD"/>
	<stop  offset="0.481" style="stop-color:#F6F6F6"/>
	<stop  offset="0.582" style="stop-color:#EAEAEA"/>
	<stop  offset="0.665" style="stop-color:#D8D8D8"/>
	<stop  offset="0.737" style="stop-color:#C2C2C2"/>
	<stop  offset="0.802" style="stop-color:#A6A6A6"/>
	<stop  offset="0.86" style="stop-color:#848484"/>
	<stop  offset="0.913" style="stop-color:#5F5F5F"/>
	<stop  offset="0.949" style="stop-color:#404040"/>
	<stop  offset="0.957" style="stop-color:#404040"/>
	<stop  offset="1" style="stop-color:#404040"/>
	<stop  offset="1" style="stop-color:#000000"/>
</radialGradient>
<path class="st8" d="M93.1,150.8c0-31.5,25.4-56.9,56.9-56.9s56.9,25.4,56.9,56.9s-25.4,56.9-56.9,56.9S93.1,182.2,93.1,150.8z"/>
<radialGradient id="SVGID_9_" cx="-1015.8735" cy="2112.2017" r="91.4861" gradientTransform="matrix(2.4662 0 0 -2.4662 2579.4404 5265.7412)" gradientUnits="userSpaceOnUse">
	<stop  offset="0.169" style="stop-color:#FFFFFF"/>
	<stop  offset="0.196" style="stop-color:#E0EFF7"/>
	<stop  offset="0.241" style="stop-color:#B2D9EC"/>
	<stop  offset="0.287" style="stop-color:#8BC5E2"/>
	<stop  offset="0.335" style="stop-color:#6BB5DA"/>
	<stop  offset="0.384" style="stop-color:#52A9D4"/>
	<stop  offset="0.436" style="stop-color:#41A0CF"/>
	<stop  offset="0.491" style="stop-color:#369BCD"/>
	<stop  offset="0.556" style="stop-color:#3399CC"/>
	<stop  offset="0.606" style="stop-color:#3396C8"/>
	<stop  offset="0.655" style="stop-color:#328EBC"/>
	<stop  offset="0.705" style="stop-color:#3180A8"/>
	<stop  offset="0.754" style="stop-color:#2F6D8C"/>
	<stop  offset="0.803" style="stop-color:#2D5468"/>
	<stop  offset="0.851" style="stop-color:#2A373D"/>
	<stop  offset="0.871" style="stop-color:#292929"/>
</radialGradient>
<path class="st9" d="M93,150.8h57v-57C118.5,93.8,93,119.3,93,150.8L93,150.8z"/>
<radialGradient id="SVGID_10_" cx="-1015.8735" cy="2112.2024" r="91.4843" gradientTransform="matrix(2.4662 0 0 -2.4662 2579.4404 5265.7412)" gradientUnits="userSpaceOnUse">
	<stop  offset="0.169" style="stop-color:#FFFFFF"/>
	<stop  offset="0.196" style="stop-color:#E0EFF7"/>
	<stop  offset="0.241" style="stop-color:#B2D9EC"/>
	<stop  offset="0.287" style="stop-color:#8BC5E2"/>
	<stop  offset="0.335" style="stop-color:#6BB5DA"/>
	<stop  offset="0.384" style="stop-color:#52A9D4"/>
	<stop  offset="0.436" style="stop-color:#41A0CF"/>
	<stop  offset="0.491" style="stop-color:#369BCD"/>
	<stop  offset="0.556" style="stop-color:#3399CC"/>
	<stop  offset="0.606" style="stop-color:#3396C8"/>
	<stop  offset="0.655" style="stop-color:#328EBC"/>
	<stop  offset="0.705" style="stop-color:#3180A8"/>
	<stop  offset="0.754" style="stop-color:#2F6D8C"/>
	<stop  offset="0.803" style="stop-color:#2D5468"/>
	<stop  offset="0.851" style="stop-color:#2A373D"/>
	<stop  offset="0.871" style="stop-color:#292929"/>
</radialGradient>
<path class="st10" d="M150,150.8v57c31.5,0,57-25.5,57-57H150L150,150.8z"/>
<radialGradient id="SVGID_11_" cx="-1009.9365" cy="2096.9502" r="34.84" gradientTransform="matrix(2.4662 0 0 -2.4662 2579.4404 5265.7412)" gradientUnits="userSpaceOnUse">
	<stop  offset="0" style="stop-color:#E6E6E6"/>
	<stop  offset="0.104" style="stop-color:#D6D6D6"/>
	<stop  offset="0.307" style="stop-color:#ADADAD"/>
	<stop  offset="0.588" style="stop-color:#6C6C6C"/>
	<stop  offset="0.933" style="stop-color:#121212"/>
	<stop  offset="1" style="stop-color:#000000"/>
</radialGradient>
<path class="st11" d="M207.4,149.7h-56.4V93.4h-2.1v56.5H92.6v2h56.4v56.4h2v-56.5h56.5V149.7z"/>
<linearGradient id="SVGID_12_" gradientUnits="userSpaceOnUse" x1="-989.6868" y1="2105.6382" x2="-955.7108" y2="2072.8062" gradientTransform="matrix(2.4662 0 0 -2.4662 2579.4404 5265.7412)">
	<stop  offset="0" style="stop-color:#F0F4FF"/>
	<stop  offset="0.109" style="stop-color:#EBEFF9"/>
	<stop  offset="0.247" style="stop-color:#DCE0EA"/>
	<stop  offset="0.403" style="stop-color:#C4C7CF"/>
	<stop  offset="0.57" style="stop-color:#A2A4AB"/>
	<stop  offset="0.747" style="stop-color:#76777C"/>
	<stop  offset="0.929" style="stop-color:#414243"/>
	<stop  offset="1" style="stop-color:#2B2B2B"/>
</linearGradient>
<path class="st12" d="M151.1,95c30.1,0.5,54.4,24.8,54.9,54.9h1c-0.5-30.6-25.2-55.3-55.8-55.8V95z"/>
<path class="st13" d="M94.1,149.7c0.5-30.1,24.8-54.4,54.9-54.9v-1.1c-30.6,0.5-55.4,25.3-55.9,55.9H94.1z"/>
<linearGradient id="SVGID_13_" gradientUnits="userSpaceOnUse" x1="-1017.2736" y1="2077.9087" x2="-983.2973" y2="2045.076" gradientTransform="matrix(2.4662 0 0 -2.4662 2579.4404 5265.7412)">
	<stop  offset="0" style="stop-color:#F0F4FF"/>
	<stop  offset="0.109" style="stop-color:#EBEFF9"/>
	<stop  offset="0.247" style="stop-color:#DCE0EA"/>
	<stop  offset="0.403" style="stop-color:#C4C7CF"/>
	<stop  offset="0.57" style="stop-color:#A2A4AB"/>
	<stop  offset="0.747" style="stop-color:#76777C"/>
	<stop  offset="0.929" style="stop-color:#414243"/>
	<stop  offset="1" style="stop-color:#2B2B2B"/>
</linearGradient>
<path class="st14" d="M148.9,206.6c-30.1-0.5-54.4-24.8-54.9-54.9H93c0.5,30.6,25.2,55.3,55.8,55.8L148.9,206.6L148.9,206.6z"/>
<path class="st15" d="M205.8,151.8c-0.5,30.1-24.8,54.4-54.9,54.9v1.1c30.6-0.5,55.3-25.2,55.8-55.8h-1V151.8z"/>
<linearGradient id="SVGID_14_" gradientUnits="userSpaceOnUse" x1="-1000.8217" y1="2089.6318" x2="-983.2035" y2="2072.6069" gradientTransform="matrix(2.4662 0 0 -2.4662 2579.4404 5265.7412)">
	<stop  offset="0" style="stop-color:#C2D7E8"/>
	<stop  offset="0.134" style="stop-color:#BACFE1"/>
	<stop  offset="0.343" style="stop-color:#A4BACD"/>
	<stop  offset="0.6" style="stop-color:#8098AC"/>
	<stop  offset="0.894" style="stop-color:#4E697F"/>
	<stop  offset="1" style="stop-color:#3A566D"/>
</linearGradient>
<path class="st16" d="M147.9,93.8v54.9H93.1v1.1h55.8V93.8H147.9z"/>
<linearGradient id="SVGID_15_" gradientUnits="userSpaceOnUse" x1="-1009.6684" y1="2085.4358" x2="-976.0339" y2="2052.9338" gradientTransform="matrix(2.4662 0 0 -2.4662 2579.4404 5265.7412)">
	<stop  offset="0" style="stop-color:#F0F4FF"/>
	<stop  offset="9.700001e-02" style="stop-color:#E8EBF6"/>
	<stop  offset="0.257" style="stop-color:#D1D4DD"/>
	<stop  offset="0.459" style="stop-color:#ABAEB5"/>
	<stop  offset="0.695" style="stop-color:#78797D"/>
	<stop  offset="0.958" style="stop-color:#363637"/>
	<stop  offset="1" style="stop-color:#2B2B2B"/>
</linearGradient>
<path class="st17" d="M147.8,207.2V153H93.5V152h55.3v55.2H147.8z"/>
<linearGradient id="SVGID_16_" gradientUnits="userSpaceOnUse" x1="-984.8808" y1="2073.3765" x2="-973.092" y2="2061.9846" gradientTransform="matrix(2.4662 0 0 -2.4662 2579.4404 5265.7412)">
	<stop  offset="0" style="stop-color:#D9DEF0"/>
	<stop  offset="0.123" style="stop-color:#D4DAEC"/>
	<stop  offset="0.263" style="stop-color:#C7CFE2"/>
	<stop  offset="0.411" style="stop-color:#B0BCD1"/>
	<stop  offset="0.566" style="stop-color:#90A1B8"/>
	<stop  offset="0.725" style="stop-color:#677F99"/>
	<stop  offset="0.885" style="stop-color:#355674"/>
	<stop  offset="0.972" style="stop-color:#173D5D"/>
</linearGradient>
<path class="st18" d="M152.1,207.2V153h54.1V152h-55.2v55.2H152.1z"/>
<linearGradient id="SVGID_17_" gradientUnits="userSpaceOnUse" x1="-996.9327" y1="2097.7856" x2="-963.3346" y2="2065.3191" gradientTransform="matrix(2.4662 0 0 -2.4662 2579.4404 5265.7412)">
	<stop  offset="0" style="stop-color:#F0F4FF"/>
	<stop  offset="0.109" style="stop-color:#EBEFF9"/>
	<stop  offset="0.247" style="stop-color:#DCE0EA"/>
	<stop  offset="0.403" style="stop-color:#C4C7CF"/>
	<stop  offset="0.57" style="stop-color:#A2A4AB"/>
	<stop  offset="0.747" style="stop-color:#76777C"/>
	<stop  offset="0.929" style="stop-color:#414243"/>
	<stop  offset="1" style="stop-color:#2B2B2B"/>
</linearGradient>
<path class="st19" d="M152.1,94.3v54.1h54.1v1.1h-55.2V94.3H152.1z"/>
</svg>
