<?xml version="1.0" encoding="utf-8"?>
<!-- Generator: Adobe Illustrator 21.0.2, SVG Export Plug-In . SVG Version: 6.00 Build 0)  -->
<svg version="1.1" id="Layer_1" xmlns="http://www.w3.org/2000/svg" xmlns:xlink="http://www.w3.org/1999/xlink" x="0px" y="0px"
	 viewBox="0 0 300 300" style="enable-background:new 0 0 300 300;" xml:space="preserve">
<style type="text/css">
	.st0{fill:#CFD8E1;}
	.st1{fill:url(#XMLID_55_);}
	.st2{fill:#E5CF92;}
	.st3{fill:#FFFFFF;}
	.st4{fill:url(#XMLID_56_);}
	.st5{fill:url(#XMLID_57_);}
	.st6{fill:url(#XMLID_58_);}
	.st7{fill:url(#XMLID_59_);}
	.st8{fill:url(#XMLID_60_);}
	.st9{fill:url(#XMLID_61_);}
	.st10{fill:url(#XMLID_62_);}
	.st11{fill:url(#XMLID_63_);}
	.st12{fill:url(#XMLID_64_);}
	.st13{fill:url(#XMLID_65_);}
	.st14{fill:url(#XMLID_66_);}
	.st15{fill:url(#XMLID_67_);}
	.st16{fill:url(#XMLID_68_);}
	.st17{fill:url(#XMLID_69_);}
	.st18{fill:url(#XMLID_70_);}
	.st19{fill:url(#XMLID_71_);}
	.st20{fill:url(#XMLID_72_);}
	.st21{fill:url(#XMLID_73_);}
	.st22{fill:url(#XMLID_74_);}
	.st23{fill:url(#XMLID_75_);}
	.st24{fill:url(#XMLID_76_);}
	.st25{fill:url(#XMLID_77_);}
	.st26{fill:url(#XMLID_78_);}
	.st27{fill:url(#XMLID_79_);}
	.st28{fill:url(#XMLID_80_);}
	.st29{fill:url(#XMLID_81_);}
	.st30{fill:url(#XMLID_82_);}
	.st31{fill:url(#XMLID_83_);}
	.st32{fill:url(#XMLID_84_);}
	.st33{fill:url(#XMLID_85_);}
	.st34{fill:url(#XMLID_86_);}
	.st35{fill:url(#XMLID_87_);}
	.st36{fill:url(#XMLID_88_);}
	.st37{fill:url(#XMLID_89_);}
</style>
<g>
	<path id="XMLID_53_" class="st0" d="M30,124.8c1.3-3,2.5-5.5,10.9-5.5s45.8,0,48.5,0c2.7,0,5.3-1.4,5.3-5.2s0-12,0-13.5
		c0-1.5,1.5-3.7,5.5-3.7s97.6,0,100.6,0c2.8,0,5.2,1.5,5.2,5.2c0,3.7,0,7.9,0,10.7c0,2.9,1.3,5.9,5.5,5.9c4.2,0,77.7,0,80.7,0
		c2.8,0,6.7,0.8,5,4.4c-1.7,3.7-27.9,56.8-29.6,60.3c-0.6,1.4-1.2,3.1-6.5,3.1c-5.3,0-47.2,0-49.5,0c-2.4,0-6.3,0-6.3,4.5
		c0,4.5,0,10.8,0,12.7c0,1.8-1.4,4.5-5.6,4.5c-4.3,0-96.3,0-99.5,0s-5.4-1.6-5.4-4.8c0-3.1,0-8.6,0-11.1c0-2.5-1.3-5.9-5-5.9
		c-3.6,0-80.8,0-83.5,0c-2.6,0-5.1-2.1-3.6-5.9C4.3,176.6,30,124.8,30,124.8z"/>
	
		<linearGradient id="XMLID_55_" gradientUnits="userSpaceOnUse" x1="1799.5404" y1="36.827" x2="1799.5404" y2="-9.6566" gradientTransform="matrix(1.0366 2.800000e-03 0.4842 -0.9634 -1850.5769 160.377)">
		<stop  offset="0" style="stop-color:#CFD8E1"/>
		<stop  offset="0.1854" style="stop-color:#95ADC4"/>
		<stop  offset="1" style="stop-color:#191F25"/>
	</linearGradient>
	<polygon id="XMLID_52_" class="st1" points="34.2,129.2 31.9,129.2 9.1,174.5 11.4,174.5 	"/>
	<path id="XMLID_51_" class="st2" d="M89.9,181c-6.6,0-62.1,0-78.1,0c-2.7,0-3.7-1.3-2.6-3.4c5.9-11.8,25.3-50.5,25.8-51.5
		c0.5-1.2,2.1-2.7,4.6-2.7s47.8,0,52.4,0c5.4,0,6.4-2.4,6.4-6.7c0-4.2,0-11,0-12.8c0-1.7,1.1-2.8,3-2.8c2.1,0,93.4,0,96,0
		s3.7,0.9,3.7,2.6c0,1.7,0,5.7,0,9.4c0,3.8-0.6,9.7,7.6,9.7c6.9,0,61.4,0,79.3,0c3.6,0,4.4,2.4,2.6,6.2c-7,14.2-24.3,47.7-24.9,48.9
		c-0.6,1.4-2.8,2.7-6.2,2.7c-13.6,0-48.7,0-52,0c-4.2,0-8.5,2.9-8.5,7.1c0,2.7,0,7.6,0,10.9c0,2.1-1.2,3.5-3.4,3.5
		c-16.7,0-90.5,0-93.1,0c-2.9,0-4-1.6-4-3.8c0-3.4,0-7.9,0-9.9C98.8,184.9,96.5,181,89.9,181z"/>
	<path id="XMLID_50_" class="st3" d="M194.1,178.4l10.9,11.5c0,0,0.8-2.5,3.7-3.1l-12.2-11.5C196.6,175.3,194.5,176.3,194.1,178.4z"
		/>
	<path id="XMLID_49_" class="st3" d="M90.3,186.5c0,0,4.4,0.1,4.4,5.9l10.2-15l-2.8-2.1L90.3,186.5z"/>
	<path id="XMLID_48_" class="st3" d="M198.2,129.7l11.5-11.2c0,0-1.5-0.2-3.1-2.7L195,127.4L198.2,129.7z"/>
	<path id="XMLID_47_" class="st3" d="M193.2,106.8l10.6-9.1c0,0,1.2,0.6,1.6,1.7l-11.1,10.3L193.2,106.8z"/>
	<path id="XMLID_46_" class="st3" d="M94.8,101c0-1.9,1.8-4.1,4.6-4.1l8.1,9.9c0,0-2.4,0-2.8,0.9c-0.4,0.9-0.8,2.8-0.8,2.8L94.8,101
		z"/>
	<path id="XMLID_45_" class="st3" d="M91.4,118.9c0,0,3.5-0.5,3.5-4.2l8,9.4l-5.1,3.7L91.4,118.9z"/>
	
		<linearGradient id="XMLID_56_" gradientUnits="userSpaceOnUse" x1="162.5784" y1="215.1044" x2="190.15" y2="187.5329" gradientTransform="matrix(1 0 0 -1 0 300)">
		<stop  offset="0" style="stop-color:#E9EBED"/>
		<stop  offset="0.8989" style="stop-color:#93A2BD"/>
		<stop  offset="0.9551" style="stop-color:#3F6481"/>
		<stop  offset="1" style="stop-color:#E9EBED"/>
	</linearGradient>
	<path id="XMLID_44_" class="st4" d="M200.9,96.9c-1.2,0-25.6,0-50.3,0l-0.3,4.3c22.8,0,45.4,0,46.2,0c1.5,0,2.4,0.4,2.9,1.5
		l5.1-4.5C204.4,98.2,203.3,96.9,200.9,96.9z"/>
	
		<linearGradient id="XMLID_57_" gradientUnits="userSpaceOnUse" x1="110.1571" y1="187.2437" x2="138.3774" y2="215.4639" gradientTransform="matrix(1 0 0 -1 0 300)">
		<stop  offset="0" style="stop-color:#E9EBED"/>
		<stop  offset="3.932600e-02" style="stop-color:#3F6481"/>
		<stop  offset="8.988800e-02" style="stop-color:#93A2BD"/>
		<stop  offset="1" style="stop-color:#E9EBED"/>
	</linearGradient>
	<path id="XMLID_43_" class="st5" d="M99.5,96.9c-1.2,0-2.7,0.6-3.4,1.5l3.2,3.6c0,0,0.6-0.9,3.4-0.9c1.3,0,24.5,0,47.6,0l0.3-4.3
		C125.4,96.9,100.1,96.9,99.5,96.9z"/>
	
		<linearGradient id="XMLID_58_" gradientUnits="userSpaceOnUse" x1="92.1" y1="185.9117" x2="101.2637" y2="194.457" gradientTransform="matrix(1 0 0 -1 0 300)">
		<stop  offset="0" style="stop-color:#E9EBED"/>
		<stop  offset="0.1573" style="stop-color:#CFD8E1"/>
		<stop  offset="0.8371" style="stop-color:#CFD8E1"/>
		<stop  offset="1" style="stop-color:#E9EBED"/>
	</linearGradient>
	<path id="XMLID_42_" class="st6" d="M95.2,99.1l3.5,4.2c0,0-0.1,1.2-0.1,2.1c0,0.9,0,12.2,0,13c0,0.8-0.5,2.2-0.5,2.2l-3.7-3.9
		c0,0,0.4-0.5,0.4-2.6s0-12.4,0-13.1C94.8,99.9,95.2,99.1,95.2,99.1z"/>
	
		<linearGradient id="XMLID_59_" gradientUnits="userSpaceOnUse" x1="-7700.3164" y1="185.5811" x2="-7690.5918" y2="194.6493" gradientTransform="matrix(-1 0 0 -1 -7491.3872 300)">
		<stop  offset="0" style="stop-color:#E9EBED"/>
		<stop  offset="0.1573" style="stop-color:#CFD8E1"/>
		<stop  offset="0.8371" style="stop-color:#CFD8E1"/>
		<stop  offset="1" style="stop-color:#E9EBED"/>
	</linearGradient>
	<path id="XMLID_41_" class="st7" d="M205.1,99.1l-3.7,3.9c0,0-0.1,1.5-0.1,2.3c0,0.9,0.1,11.9,0.1,12.8c0,0.8,1.3,2.3,1.3,2.3
		l4.3-3.9c0,0-1-0.3-1-2.4s0-12.4,0-13.1C206,99.9,205.1,99.1,205.1,99.1z"/>
	
		<linearGradient id="XMLID_60_" gradientUnits="userSpaceOnUse" x1="48.6782" y1="162.3479" x2="80.3067" y2="193.9764" gradientTransform="matrix(1 0 0 -1 0 300)">
		<stop  offset="2.247200e-02" style="stop-color:#3F6481"/>
		<stop  offset="0.1292" style="stop-color:#93A2BD"/>
		<stop  offset="1" style="stop-color:#E9EBED"/>
	</linearGradient>
	<path id="XMLID_40_" class="st8" d="M33,120.9l3,4c0,0,1.2-1.5,3.9-1.5c2.6,0,51.3,0,53.2,0c1.8,0,3.2-0.9,3.2-0.9l-3.5-4.2
		c0,0-1.7,0.9-2.9,0.9c-1.4,0-48.4,0-51,0C35.1,119.3,33,120.9,33,120.9z"/>
	
		<linearGradient id="XMLID_61_" gradientUnits="userSpaceOnUse" x1="9.0897" y1="117.7219" x2="5.3906" y2="123.0048" gradientTransform="matrix(1 0 0 -1 0 300)">
		<stop  offset="5.618000e-03" style="stop-color:#191F25"/>
		<stop  offset="0.1067" style="stop-color:#FFFFFF"/>
		<stop  offset="0.1854" style="stop-color:#95ADC4"/>
		<stop  offset="0.2416" style="stop-color:#191F25"/>
		<stop  offset="0.5337" style="stop-color:#5C738A"/>
		<stop  offset="0.7584" style="stop-color:#191F25"/>
		<stop  offset="1" style="stop-color:#191F25"/>
	</linearGradient>
	<path id="XMLID_39_" class="st9" d="M11,173.7c0,0-1.9,0.3-3.2,4.2l-5.4,3.8c0,0-0.4,1.6,0.4,2.8c0.8,1.3,2.1,1.4,2.1,1.4l7-5
		c0,0-4-0.2-2.4-3.1C11.1,174.8,11,173.7,11,173.7z"/>
	
		<linearGradient id="XMLID_62_" gradientUnits="userSpaceOnUse" x1="35.5614" y1="154.9807" x2="7.0169" y2="140.4539" gradientTransform="matrix(1 0 0 -1 0 300)">
		<stop  offset="0" style="stop-color:#95ADC4"/>
		<stop  offset="1" style="stop-color:#191F25"/>
	</linearGradient>
	<path id="XMLID_38_" class="st10" d="M7.9,178l26.3-52.3c0,0-7.1,6.2-11.5,15c-4.4,8.9-19,37.5-19.5,38.6c-0.5,1-1,2.8-1,2.8
		L7.9,178z"/>
	
		<linearGradient id="XMLID_63_" gradientUnits="userSpaceOnUse" x1="51.017" y1="110.0047" x2="48.8234" y2="122.445" gradientTransform="matrix(1 0 0 -1 0 300)">
		<stop  offset="0" style="stop-color:#AABBC8"/>
		<stop  offset="1" style="stop-color:#191F25"/>
	</linearGradient>
	<path id="XMLID_37_" class="st11" d="M4.6,186.3l7.2-5.2c0,0,76.1,0,78.1,0c1.9,0,5.5,1.6,5.5,1.6l-3.7,4.2c0,0-0.9-0.4-3-0.4
		C86.8,186.5,4.6,186.3,4.6,186.3z"/>
	
		<linearGradient id="XMLID_64_" gradientUnits="userSpaceOnUse" x1="94.7553" y1="104.9534" x2="98.4089" y2="104.9534" gradientTransform="matrix(1 0 0 -1 0 300)">
		<stop  offset="5.618000e-03" style="stop-color:#5C738A"/>
		<stop  offset="0.4888" style="stop-color:#95ADC4"/>
	</linearGradient>
	<path id="XMLID_36_" class="st12" d="M93.8,189.1l3.8-4.5c0,0,1.2,1.7,1.2,3.8s0,13,0,13l-3.7,4.2c0,0-0.5-1.3-0.5-2.8
		c0-1.6,0-9.7,0-10.9C94.6,190.7,93.8,189.1,93.8,189.1z"/>
	
		<linearGradient id="XMLID_65_" gradientUnits="userSpaceOnUse" x1="-7695.9307" y1="105.3319" x2="-7691.4351" y2="105.3319" gradientTransform="matrix(-1 0 0 -1 -7491.6519 300)">
		<stop  offset="5.618000e-03" style="stop-color:#5C738A"/>
		<stop  offset="0.3202" style="stop-color:#95ADC4"/>
	</linearGradient>
	<path id="XMLID_35_" class="st13" d="M205.4,189.3l-5-5c0,0-1.2,0.6-1.2,2.7s0,13,0,13l5.6,5c0,0,0.1-1.3,0.1-2.8
		c0-1.5,0-9.6,0-10.8C205,190.1,205.4,189.3,205.4,189.3z"/>
	
		<linearGradient id="XMLID_66_" gradientUnits="userSpaceOnUse" x1="170.4637" y1="83.9153" x2="182.7757" y2="105.2402" gradientTransform="matrix(1 0 0 -1 0 300)">
		<stop  offset="0" style="stop-color:#AABBC8"/>
		<stop  offset="0.236" style="stop-color:#AABBC8"/>
		<stop  offset="1" style="stop-color:#191F25"/>
	</linearGradient>
	<path id="XMLID_34_" class="st14" d="M203.7,206.8l-5.5-5.3c0,0-0.4,0.6-3.1,0.6c-2.8,0-44.4,0-44.4,0v6.1c0,0,47.6,0,49.2,0
		C201.4,208.2,203.4,207.2,203.7,206.8z"/>
	
		<linearGradient id="XMLID_67_" gradientUnits="userSpaceOnUse" x1="118.552" y1="104.0517" x2="130.96" y2="82.5604" gradientTransform="matrix(1 0 0 -1 0 300)">
		<stop  offset="0" style="stop-color:#191F25"/>
		<stop  offset="0.7753" style="stop-color:#AABBC8"/>
		<stop  offset="0.9438" style="stop-color:#AABBC8"/>
	</linearGradient>
	<path id="XMLID_33_" class="st15" d="M150.5,208.2v-6.1c0,0-46.6,0-47.6,0c-0.9,0-1.4-0.1-1.4-0.1l-4.6,5.4c0,0,1.1,0.8,4.3,0.8
		S150.5,208.2,150.5,208.2z"/>
	
		<linearGradient id="XMLID_68_" gradientUnits="userSpaceOnUse" x1="69.3289" y1="185.6843" x2="124.7288" y2="89.7289" gradientTransform="matrix(1 0 0 -1 0 300)">
		<stop  offset="0" style="stop-color:#F5F0D3"/>
		<stop  offset="0.4607" style="stop-color:#F2E5A3"/>
		<stop  offset="1" style="stop-color:#BD9968"/>
	</linearGradient>
	<path id="XMLID_32_" class="st16" d="M109.7,106.8c-2.6,0-5.2,1.4-5.2,4.2c0,2.9,0,11.1,0,14.1c0,2.8-1.7,4-3.7,4
		c-1.7,0-44.1,0-57,0c-2.3,0-4.1,1-5.1,2.9c-0.9,1.6-15.1,30.1-19.7,39.4c-1,2.1-0.1,3.2,2.5,3.2c16.1,0,76.7,0,79.6,0
		c3.5,0,4,3.1,4,6.3c0,3.1,0,8.9,0,10.9s2.1,4.3,4.3,4.3c1.1,0,20.7,0,40.1,0v-89.3C130.2,106.8,111,106.8,109.7,106.8z"/>
	
		<linearGradient id="XMLID_69_" gradientUnits="userSpaceOnUse" x1="223.5497" y1="104.1894" x2="239.0907" y2="121.5127" gradientTransform="matrix(1 0 0 -1 0 300)">
		<stop  offset="5.618000e-03" style="stop-color:#5C738A"/>
		<stop  offset="0.6067" style="stop-color:#95ADC4"/>
		<stop  offset="1" style="stop-color:#D0DEE4"/>
	</linearGradient>
	<path id="XMLID_31_" class="st17" d="M202.9,182.3l4.5,4.6c0,0,1.2-0.6,6.5-0.6c5.4,0,47.9,0,48.9,0c1.1,0,2.5-0.5,2.5-0.5
		l-25.8-5.2c0,0-30,0-31.4,0C205.1,180.6,202.9,182.3,202.9,182.3z"/>
	
		<linearGradient id="XMLID_70_" gradientUnits="userSpaceOnUse" x1="239.1946" y1="198.5661" x2="259.8224" y2="162.8376" gradientTransform="matrix(1 0 0 -1 0 300)">
		<stop  offset="5.618000e-03" style="stop-color:#E9EBED"/>
		<stop  offset="0.8146" style="stop-color:#8093AF"/>
		<stop  offset="0.9045" style="stop-color:#3F6481"/>
		<stop  offset="1" style="stop-color:#191F25"/>
	</linearGradient>
	<path id="XMLID_30_" class="st18" d="M204.8,122.1l4.2-3.8c0,0,0.9,0.4,2.8,0.4s78,0,80,0c1.9,0,4,0.5,4,0.5l-6.3,3.7
		c0,0-1.3-0.2-3.7-0.2c-2.4,0-75.3,0-77.1,0C206.9,122.8,204.8,122.1,204.8,122.1z"/>
	
		<linearGradient id="XMLID_71_" gradientUnits="userSpaceOnUse" x1="263.1324" y1="116.9159" x2="296.7664" y2="175.1718" gradientTransform="matrix(1 0 0 -1 0 300)">
		<stop  offset="5.618000e-03" style="stop-color:#8D9EB0"/>
		<stop  offset="0.1404" style="stop-color:#E9EBED"/>
		<stop  offset="0.8146" style="stop-color:#8093AF"/>
		<stop  offset="0.9045" style="stop-color:#3F6481"/>
		<stop  offset="1" style="stop-color:#191F25"/>
	</linearGradient>
	<path id="XMLID_29_" class="st19" d="M291.8,125l5.6-4.5c0,0,0.8,0.8-0.1,2.8s-29.5,60.3-30.1,61.1s-1.5,1.4-1.5,1.4l-2.6-5.3
		c0,0,2.4-0.8,3.5-2.9c1.1-2.1,24.3-47.9,25-49.2C292.1,126.9,291.8,125,291.8,125z"/>
	
		<linearGradient id="XMLID_72_" gradientUnits="userSpaceOnUse" x1="251.4516" y1="115.9752" x2="263.3552" y2="122.8478" gradientTransform="matrix(1 0 0 -1 0 300)">
		<stop  offset="0" style="stop-color:#191F25"/>
		<stop  offset="0.7303" style="stop-color:#191F25"/>
		<stop  offset="0.8146" style="stop-color:#AABBC8"/>
		<stop  offset="0.8876" style="stop-color:#191F25"/>
	</linearGradient>
	<path id="XMLID_28_" class="st20" d="M240.3,180.9l24.4,5c0,0,1.5-0.6,2.3-1.9c0.8-1.2,0-1.6-0.9-0.9c-0.9,0.8-2.4-0.5-1.6-1.4
		c0.8-0.9,1.5-3.7,1.5-3.7s-2.5,2.8-5.5,2.8C257.5,180.8,240.3,180.9,240.3,180.9z"/>
	
		<linearGradient id="XMLID_73_" gradientUnits="userSpaceOnUse" x1="36.7646" y1="142.0789" x2="75.7252" y2="103.1182" gradientTransform="matrix(1 0 0 -1 0 300)">
		<stop  offset="0" style="stop-color:#D2BD74"/>
		<stop  offset="0.3315" style="stop-color:#876532"/>
		<stop  offset="0.4663" style="stop-color:#876532"/>
		<stop  offset="1" style="stop-color:#D2BD74"/>
	</linearGradient>
	<path id="XMLID_27_" class="st21" d="M102.3,175.6l-6.3,6.6c0,0,1.2-1.3-7.7-1.3s-76.4,0-76.4,0s5.1-3,21.1-4.1s34.9-1.6,44.5-1.4
		S102.3,175.6,102.3,175.6z"/>
	
		<linearGradient id="XMLID_74_" gradientUnits="userSpaceOnUse" x1="-7735.1426" y1="136.5345" x2="-7707.2974" y2="108.6896" gradientTransform="matrix(-1 0 0 -1 -7491.6519 300)">
		<stop  offset="0" style="stop-color:#D2BD74"/>
		<stop  offset="0.3315" style="stop-color:#876532"/>
		<stop  offset="0.4663" style="stop-color:#876532"/>
		<stop  offset="1" style="stop-color:#D2BD74"/>
	</linearGradient>
	<path id="XMLID_26_" class="st22" d="M195.9,175.6l7.1,6.7c0,0,0.8-1.6,7-1.6s51.8-0.1,51.8-0.1s0.8-2.5-12.7-3.5
		c-11.4-0.9-29-1.9-35.8-1.7C206.6,175.6,195.9,175.6,195.9,175.6z"/>
	
		<linearGradient id="XMLID_75_" gradientUnits="userSpaceOnUse" x1="-7758.4468" y1="197.1416" x2="-7713.4707" y2="152.1648" gradientTransform="matrix(-1 0 0 -1 -7491.6519 300)">
		<stop  offset="0" style="stop-color:#D2BD74"/>
		<stop  offset="0.3315" style="stop-color:#876532"/>
		<stop  offset="0.4663" style="stop-color:#876532"/>
		<stop  offset="1" style="stop-color:#D2BD74"/>
	</linearGradient>
	<path id="XMLID_25_" class="st23" d="M197.3,129.7l8-7.6c0,0-0.9,1.2,5.4,1.2s78.5-0.3,78.5-0.3s-3.7,3-15,4.1
		c-11.4,1.1-52.5,2.9-59.4,2.8C208,129.7,197.3,129.7,197.3,129.7z"/>
	
		<linearGradient id="XMLID_76_" gradientUnits="userSpaceOnUse" x1="99.5199" y1="110.9543" x2="105.4268" y2="110.9543" gradientTransform="matrix(1 0 0 -1 0 300)">
		<stop  offset="0.4888" style="stop-color:#D3BD82"/>
		<stop  offset="1" style="stop-color:#876532"/>
	</linearGradient>
	<path id="XMLID_24_" class="st24" d="M98.1,184.8l6.5-7.9c0,0,0.5,1.8,0.5,4.1s0,8,0,9.7c0,1.7,1,4,1,4l-6.5,6.5
		c0,0-0.8-1.2-0.8-3.5c0-2.3,0-6.7,0-8.6C98.8,187.3,98.1,184.8,98.1,184.8z"/>
	
		<linearGradient id="XMLID_77_" gradientUnits="userSpaceOnUse" x1="-7690.8413" y1="111.0083" x2="-7684.9702" y2="111.0083" gradientTransform="matrix(-1 0 0 -1 -7491.4019 300)">
		<stop  offset="0.4888" style="stop-color:#D3BD82"/>
		<stop  offset="1" style="stop-color:#876532"/>
	</linearGradient>
	<path id="XMLID_23_" class="st25" d="M200.9,184.8l-6.9-8c0,0-0.5,1.9-0.5,4.2c0,2.3-0.1,8.2-0.1,9.9c0,1.7-0.4,3.8-0.4,3.8
		l6.5,6.5c0,0,0.8-1.2,0.8-3.5c0-2.3,0-6.7,0-8.6C200.1,187.3,200.9,184.8,200.9,184.8z"/>
	
		<linearGradient id="XMLID_78_" gradientUnits="userSpaceOnUse" x1="121.1515" y1="108.478" x2="132.0692" y2="89.5679" gradientTransform="matrix(1 0 0 -1 0 300)">
		<stop  offset="0" style="stop-color:#876532"/>
		<stop  offset="0.6461" style="stop-color:#D3BD82"/>
		<stop  offset="0.8876" style="stop-color:#F2E5A3"/>
	</linearGradient>
	<polygon id="XMLID_22_" class="st26" points="108,195.8 101.6,202 149.1,202.3 149.3,202.3 149.3,196 	"/>
	
		<linearGradient id="XMLID_79_" gradientUnits="userSpaceOnUse" x1="177.8435" y1="108.4062" x2="165.9121" y2="87.7405" gradientTransform="matrix(1 0 0 -1 0 300)">
		<stop  offset="0" style="stop-color:#876532"/>
		<stop  offset="0.4551" style="stop-color:#D3BD82"/>
		<stop  offset="0.8876" style="stop-color:#F2E5A3"/>
	</linearGradient>
	<polygon id="XMLID_21_" class="st27" points="190.2,195.8 149.5,196 149.3,196 149.3,202.3 198,201.8 	"/>
	
		<linearGradient id="XMLID_80_" gradientUnits="userSpaceOnUse" x1="113.4041" y1="184.4732" x2="138.6332" y2="209.7023" gradientTransform="matrix(1 0 0 -1 0 300)">
		<stop  offset="0" style="stop-color:#D2BD74"/>
		<stop  offset="3.932600e-02" style="stop-color:#876532"/>
		<stop  offset="0.1067" style="stop-color:#CFAE6F"/>
		<stop  offset="1" style="stop-color:#D2BD74"/>
	</linearGradient>
	<path id="XMLID_20_" class="st28" d="M99.8,101.8l6.3,6.2c0,0,0.6-1.3,5.1-1.3s38.4,0,38.4,0v-5.5c0,0-45.8,0-47.1,0
		C101,101.2,99.8,101.8,99.8,101.8z"/>
	
		<linearGradient id="XMLID_81_" gradientUnits="userSpaceOnUse" x1="-7677.335" y1="184.0727" x2="-7651.7031" y2="209.7043" gradientTransform="matrix(-1 0 0 -1 -7491.4019 300)">
		<stop  offset="0" style="stop-color:#D2BD74"/>
		<stop  offset="3.932600e-02" style="stop-color:#876532"/>
		<stop  offset="0.1067" style="stop-color:#CFAE6F"/>
		<stop  offset="1" style="stop-color:#D2BD74"/>
	</linearGradient>
	<path id="XMLID_19_" class="st29" d="M199.5,102.4l-6.3,6.2c0,0-0.9-1.9-5.3-1.9c-4.4,0-38.4,0-38.4,0v-5.4c0,0,45.7,0,47.1,0
		C198,101.2,199.5,102.4,199.5,102.4z"/>
	
		<linearGradient id="XMLID_82_" gradientUnits="userSpaceOnUse" x1="96.689" y1="180.3449" x2="106.0522" y2="189.0761" gradientTransform="matrix(1 0 0 -1 0 300)">
		<stop  offset="0" style="stop-color:#EFE089"/>
		<stop  offset="0.1573" style="stop-color:#CFAE6F"/>
		<stop  offset="0.8371" style="stop-color:#CFAE6F"/>
		<stop  offset="1" style="stop-color:#EFE089"/>
	</linearGradient>
	<path id="XMLID_18_" class="st30" d="M104.8,109.8l-6.2-6.9c0,0-0.1,1.8-0.1,3.6c0,1.7,0,9.8,0,11.2c0,1.3-0.5,2.9-0.5,2.9l6.2,7
		c0,0,0.4-0.5,0.4-3.5C104.5,121.2,104.8,109.8,104.8,109.8z"/>
	
		<linearGradient id="XMLID_83_" gradientUnits="userSpaceOnUse" x1="-7694.189" y1="180.4402" x2="-7684.4097" y2="189.5599" gradientTransform="matrix(-1 0 0 -1 -7491.4019 300)">
		<stop  offset="0" style="stop-color:#EFE089"/>
		<stop  offset="0.1573" style="stop-color:#CFAE6F"/>
		<stop  offset="0.8371" style="stop-color:#CFAE6F"/>
		<stop  offset="1" style="stop-color:#EFE089"/>
	</linearGradient>
	<path id="XMLID_17_" class="st31" d="M193.4,110l7.9-7.4c0,0-0.1,1.6-0.1,3.4c0,1.7,0,9.8,0,11.1c0,1.4,1,2.9,1,2.9l-7.5,7.6
		c0,0-1.4-0.8-1.4-3.7C193.4,121.1,193.4,110,193.4,110z"/>
	
		<linearGradient id="XMLID_84_" gradientUnits="userSpaceOnUse" x1="54.2983" y1="157.9124" x2="83.6111" y2="187.2253" gradientTransform="matrix(1 0 0 -1 0 300)">
		<stop  offset="0" style="stop-color:#876532"/>
		<stop  offset="1" style="stop-color:#BF9E64"/>
	</linearGradient>
	<path id="XMLID_16_" class="st32" d="M36,125l4.8,5c0,0,1.4-1,4.6-1s53.3,0,54.8,0c1.5,0,3.1-0.5,3.1-0.5l-6.2-6.4
		c0,0-1.6,1.5-3.7,1.5c-2.2,0-51.3,0-52.8,0C39.2,123.6,36.7,124.2,36,125z"/>
	
		<linearGradient id="XMLID_85_" gradientUnits="userSpaceOnUse" x1="265.5825" y1="152.6044" x2="278.0242" y2="140.1626" gradientTransform="matrix(1 0 0 -1 0 300)">
		<stop  offset="5.618000e-03" style="stop-color:#876532"/>
		<stop  offset="1" style="stop-color:#D2BD74"/>
	</linearGradient>
	<path id="XMLID_15_" class="st33" d="M257.8,174.7c0,0,2.9-1.1,3.9,2.4c0,0,0.8,1.1,2.8-1.8s21.3-42.5,21.1-43
		c-0.2-0.5-4-1.3-4-1.3L257.8,174.7z"/>
	
		<linearGradient id="XMLID_86_" gradientUnits="userSpaceOnUse" x1="261.4342" y1="121.0649" x2="288.941" y2="174.0475" gradientTransform="matrix(1 0 0 -1 0 300)">
		<stop  offset="0" style="stop-color:#AC8E59"/>
		<stop  offset="0.764" style="stop-color:#876532"/>
		<stop  offset="0.9157" style="stop-color:#704F29"/>
	</linearGradient>
	<path id="XMLID_14_" class="st34" d="M282,131.4l9.4-6.5c0,0,1.1,1.2-0.4,4.2c-1.6,3-24.1,47.7-24.9,48.9c-0.8,1.2-3.1,2.4-3.1,2.4
		s-2.8-2.3,0.3-7.8c3.1-5.5,17.9-34.3,19.2-37.1C283.8,132.7,282.8,131.9,282,131.4z"/>
	
		<linearGradient id="XMLID_87_" gradientUnits="userSpaceOnUse" x1="238.2086" y1="108.9985" x2="160.075" y2="202.1145" gradientTransform="matrix(1 0 0 -1 0 300)">
		<stop  offset="0" style="stop-color:#F5F0D3"/>
		<stop  offset="0.4607" style="stop-color:#F2E5A3"/>
		<stop  offset="1" style="stop-color:#BD9968"/>
	</linearGradient>
	<path id="XMLID_13_" class="st35" d="M193.2,192.6c0-2.6,0-10.7,0-13.3c0-2.6,1.7-4.5,3.7-4.5c1.7,0,46.8,0,59.6,0
		c2.1,0,4-1.2,5.1-3.2c4.9-9,18.3-35,19.2-37.2c1.2-2.6,0.4-4-2.4-4c-17,0-76,0-78.9,0c-3.5,0-6.1-2.6-6.1-5.7c0-3.1,0-12.5,0-14.6
		s-1.2-3.1-3.7-3.1c-1.3,0-20.9,0-40.3,0V196c19.1,0,38.3,0,39.5,0C191.3,196,193.2,195.2,193.2,192.6z"/>
	
		<linearGradient id="XMLID_88_" gradientUnits="userSpaceOnUse" x1="8.1285" y1="126.015" x2="35.1406" y2="153.0272" gradientTransform="matrix(1 0 0 -1 0 300)">
		<stop  offset="0" style="stop-color:#876532"/>
		<stop  offset="1" style="stop-color:#E5CF92"/>
	</linearGradient>
	<path id="XMLID_12_" class="st36" d="M11.2,178.4l7.7-4.6c0,0-0.9-0.3,0.4-3.1c1.4-2.8,14.3-29.1,14.3-29.1l-2.9-0.6L11.2,178.4z"
		/>
	
		<linearGradient id="XMLID_89_" gradientUnits="userSpaceOnUse" x1="3.4363" y1="127.5939" x2="39.8074" y2="163.965" gradientTransform="matrix(1 0 0 -1 0 300)">
		<stop  offset="0" style="stop-color:#876532"/>
		<stop  offset="1" style="stop-color:#E4CC89"/>
	</linearGradient>
	<path id="XMLID_11_" class="st37" d="M35.1,126.2c0,0,3.1,1.8,1.1,6.5c-2.1,4.5-22.6,44.1-22.6,44.1l-4.5,3c0,0-0.4-1.3,1.5-4.8
		C12.4,171.6,35.1,126.2,35.1,126.2z"/>
	<path id="XMLID_10_" class="st3" d="M13.6,181.1c-0.3,0.2-3.1,0.5-3.7,0c-0.5-0.5-1.5-1-0.8-1.5c0.8-0.6,9.7-5.9,9.7-5.9
		s-1.1,0.6,8.1,0.6s71.9,0,73.8,0c1.9,0,3.8,1.3,4,2.2c0.2,0.9-0.2,1.2-0.9,1.1c-0.6-0.1-2.2-0.6-2.6-1.2c-0.3-0.6,0.4-1.1-4.9-1.1
		s-46.2,0.5-55.4,1.4C32.1,177.4,20,176.8,13.6,181.1z"/>
	<path id="XMLID_9_" class="st3" d="M286.5,123.3c0.2-0.2,3.1-0.5,3.6,0c0.5,0.5,1.4,1,0.8,1.5c-0.8,0.6-9.7,5.9-9.7,5.9
		s1.1-0.5-8.1-0.5c-9.3,0-72,0-73.8,0c-1.9,0-3.8-1.4-4.1-2.3c-0.2-0.9,0.2-1.2,0.9-1.1c0.6,0.2,2.2,0.6,2.6,1.3
		c0.3,0.5-0.4,1.1,4.9,1.1c5.3,0,46.2-0.6,55.4-1.5C268,126.9,280.2,127.5,286.5,123.3z"/>
	<path id="XMLID_8_" class="st3" d="M37.5,130.3c0-0.9,0.4-2.5,0.1-2.9c-0.4-0.5,0.8-1.1,1.5-0.5c0.8,0.4,2.4,0.9,2.6,1.2
		c0.2,0.4-0.1,1.4-1.2,1.7s-1.9,1.2-3.6,4.8C35.2,138,26,155.9,26,155.9s1.3-2.9,0.8-2.9c-0.5-0.1-1.9,2.3-1.9,2.3L37.5,130.3z"/>
	<path id="XMLID_7_" class="st3" d="M101.4,128.6c-0.8,0.1-1-0.8-0.3-0.9c0.6-0.1,1.5-0.2,2.4-3.2c0.8-3.1,0.2-12.5,0.1-14.2
		c-0.1-1.7-0.9-3.8,0.2-4.6c1.2-0.9,1.9,1.1,4.9,1.1s9.5-0.2,9.5-0.2s-9.3,0.6-10.9,0.9c-1.5,0.2-2.9,1.4-2.7,3.7
		c0.2,2.3-0.3,13.8-0.8,15.1C103.2,127.4,102.5,128.4,101.4,128.6z"/>
	<path id="XMLID_6_" class="st3" d="M164.3,106.5c-1.2,0.1,23.8,0.3,25.3,0.3c1.6,0,3.4,0.5,3.8,2.1c0.3,1.6,0.1,6.7,0.1,6.7
		s0.8-6.6,1.9-7.8c1.1-1.3,0.8-3.1-0.6-2.7C193.3,105.4,181.7,105.6,164.3,106.5z"/>
	<path id="XMLID_5_" class="st3" d="M197.7,175.5c-0.8-0.1-1.7-0.2-1.9,0.4s1,1.1-0.2,1.7c-1.3,0.6-2.2,1.1-2.2,0.5s0.6-3.5,2.9-3.5
		c2.4,0,60.5-0.1,61.5-0.1c0.9,0,2.1,0.1,2.5,1c0.4,0.9,1,3.1,1.4,3.9c0.3,0.6-0.2,0.6-1.3-0.6c-1-1.3-3.6-1.9-5.6-1.8
		C252.9,177.2,197.7,175.5,197.7,175.5z"/>
	<path id="XMLID_4_" class="st3" d="M262,177.4c0,0-0.5-1.2-0.9-2.1c-0.3-0.8-1.4-1.2-1.4-1.2s1.1-1.3,2.7-4.2
		c1.6-2.9,9-16.8,9.7-18.7c0,0-1.6,5.2,1.5,0.9c0,0-10.5,20-11.1,21.3C261.9,174.8,262,177.4,262,177.4z"/>
	<path id="XMLID_3_" class="st3" d="M105.8,193.1c0,0,0.1,1.6-0.8,2.3c-1,0.6-1.3,1.8-0.5,2.4c0.8,0.5,1.3,0.2,1.8-0.5
		c0.5-0.9,2.4-1.5,3.6-1.3C109.9,196,105.8,196.6,105.8,193.1z"/>
	<path id="XMLID_2_" class="st3" d="M163.7,196c0,0,22.7,1.2,24,1.3c1.3,0.1,2.3,0.1,2.3,0.1s-2.4-0.4-1.7-1.2L163.7,196z"/>
	<path id="XMLID_1_" class="st3" d="M190.5,195.8c0,0-0.6,1.1,0.4,1.6c1.1,0.5,2.2,1.1,2.8,0.3c0.6-0.8-0.5-2.9-0.4-4.4
		C193.3,193.2,193.9,195.6,190.5,195.8z"/>
</g>
</svg>
