<?xml version="1.0" encoding="utf-8"?>
<!-- Generator: Adobe Illustrator 23.0.6, SVG Export Plug-In . SVG Version: 6.00 Build 0)  -->
<svg version="1.1" id="Layer_1" xmlns="http://www.w3.org/2000/svg" xmlns:xlink="http://www.w3.org/1999/xlink" x="0px" y="0px"
	 viewBox="0 0 300 300" style="enable-background:new 0 0 300 300;" xml:space="preserve">
<style type="text/css">
	.st0{fill:url(#XMLID_2_);}
	.st1{fill:url(#XMLID_3_);}
	.st2{fill:url(#XMLID_4_);}
	.st3{fill:#6D0115;}
	.st4{fill:url(#XMLID_5_);}
	.st5{fill:url(#XMLID_6_);}
	.st6{fill:url(#XMLID_7_);}
	.st7{fill:#E9E8E8;}
	.st8{fill:url(#XMLID_8_);}
	.st9{fill:#BDBBBC;}
	.st10{fill:url(#XMLID_9_);}
	.st11{fill:url(#XMLID_10_);}
	.st12{fill:url(#XMLID_11_);}
	.st13{fill:url(#XMLID_12_);}
	.st14{fill:url(#XMLID_13_);}
	.st15{fill:url(#XMLID_14_);}
	.st16{fill:url(#XMLID_15_);}
	.st17{fill:url(#XMLID_16_);}
	.st18{fill:url(#XMLID_17_);}
	.st19{fill:url(#XMLID_18_);}
	.st20{fill:url(#XMLID_19_);}
	.st21{fill:url(#XMLID_20_);}
	.st22{fill:#2E2B2C;}
	.st23{fill:url(#XMLID_21_);}
	.st24{fill:url(#XMLID_22_);}
	.st25{fill:url(#XMLID_23_);}
	.st26{fill:url(#XMLID_24_);}
	.st27{fill:url(#XMLID_25_);}
	.st28{fill:url(#XMLID_26_);}
	.st29{fill:url(#XMLID_27_);}
	.st30{fill:url(#XMLID_28_);}
	.st31{fill:#A7A6A6;}
	.st32{fill:url(#XMLID_29_);}
	.st33{fill:url(#XMLID_30_);}
	.st34{fill:#231F20;}
	.st35{fill:#891731;}
	.st36{fill:url(#XMLID_31_);}
	.st37{fill:url(#XMLID_32_);}
	.st38{fill:#FFFFFF;}
	.st39{fill:#1A1A1A;}
	.st40{fill:url(#XMLID_33_);}
	.st41{fill:url(#XMLID_34_);}
	.st42{fill:url(#XMLID_35_);}
	.st43{fill:url(#XMLID_36_);}
</style>
<g id="XMLID_107_">
	
		<linearGradient id="XMLID_2_" gradientUnits="userSpaceOnUse" x1="-347.4176" y1="46.5338" x2="-346.8755" y2="46.5338" gradientTransform="matrix(-8.9942 0 0 8.9942 -3042.5142 -263.7264)">
		<stop  offset="0" style="stop-color:#E9E8E8"/>
		<stop  offset="5.617980e-03" style="stop-color:#E9E8E8"/>
		<stop  offset="0.2933" style="stop-color:#BFBEBF"/>
		<stop  offset="0.5994" style="stop-color:#9A9999"/>
		<stop  offset="0.8459" style="stop-color:#838182"/>
		<stop  offset="1" style="stop-color:#7B7979"/>
	</linearGradient>
	<path id="XMLID_109_" class="st0" d="M79,156.1c0.7,9.8,4.7,16,8.3,23.4c-4.1-17.5-5.3-33.1-4.9-49c-0.6-0.8-1.6-0.3-2.5,0.8
		C79.2,136.8,78.3,147.2,79,156.1z"/>
	
		<radialGradient id="XMLID_3_" cx="-315.2096" cy="20.8391" r="0.5422" gradientTransform="matrix(121.6386 0 0 -121.6386 38490.0156 2688.7256)" gradientUnits="userSpaceOnUse">
		<stop  offset="0" style="stop-color:#E60A47"/>
		<stop  offset="1" style="stop-color:#7C0626"/>
	</radialGradient>
	<path id="XMLID_113_" class="st1" d="M119.4,220c7,1.7,16.8,3.3,28.9,3.3c12.3,0,35.5-2.6,44-10.4c6.7-6.1,9.4-16.3,12.7-29.3
		c7.8-30.7,5.7-49.5,4.1-71.4c-1.7-21.9-39.1-27.6-60.7-27.6c-18.9,0-59.8,5.7-61.5,28.4c-1.6,21.9-2,43.7,5.1,70.6
		C97.4,204.2,99.8,215.2,119.4,220z"/>
	
		<linearGradient id="XMLID_4_" gradientUnits="userSpaceOnUse" x1="-316.1497" y1="23.2298" x2="-315.6077" y2="23.2298" gradientTransform="matrix(1.579772e-08 351.8691 351.8691 -1.579772e-08 -8024.2231 111298.7031)">
		<stop  offset="0" style="stop-color:#656363"/>
		<stop  offset="5.617980e-03" style="stop-color:#656363"/>
		<stop  offset="0.5" style="stop-color:#A7A6A6"/>
		<stop  offset="1" style="stop-color:#656363"/>
	</linearGradient>
	<path id="XMLID_117_" class="st2" d="M149.6,55.8c-52.4,0-94.9,42.4-94.9,94.9c0,52.4,42.4,94.9,94.9,94.9
		c52.4,0,94.9-42.4,94.9-94.9S202,55.8,149.6,55.8z M150.6,240.6c-53.1,0-91.9-36.6-91.9-88c0-60.3,39.4-92.9,91.9-92.9
		c57.5,0,89.9,41.6,89.9,92.9S199.3,240.6,150.6,240.6z"/>
	<path id="XMLID_118_" class="st3" d="M129.7,222.3c-0.2,0-0.3-0.1-0.3-0.3c-3.7-29.9-8.6-106.2-7.2-134.8c0-0.2,0.2-0.3,0.3-0.3
		c0.2,0,0.3,0.2,0.3,0.3c-1.5,28.5,3.4,104.8,7.2,134.7C130.1,222.1,130,222.2,129.7,222.3L129.7,222.3z"/>
	<path id="XMLID_119_" class="st3" d="M141.2,223.4c-0.2,0-0.3-0.1-0.3-0.3c-0.6-17.5-3.5-106.4-4-137.9c0-0.2,0.1-0.3,0.3-0.3
		c0.2,0,0.3,0.1,0.3,0.3c0.5,31.6,3.5,120.4,4,137.9C141.5,223.2,141.3,223.4,141.2,223.4L141.2,223.4z"/>
	<path id="XMLID_120_" class="st3" d="M138.1,223.1c-0.2,0-0.3-0.1-0.3-0.3c-0.7-17.3-4.2-105.3-4.9-137.3c0-0.2,0.1-0.3,0.3-0.3
		c0.2,0,0.3,0.1,0.3,0.3c0.7,32,4.2,120,4.9,137.3C138.4,223,138.3,223.1,138.1,223.1L138.1,223.1z"/>
	<path id="XMLID_121_" class="st3" d="M147.3,223.5c-0.2,0-0.3-0.2-0.3-0.3c0-1-2-104.9-3-138.6c0-0.2,0.1-0.3,0.3-0.3
		c0.2,0,0.3,0.1,0.3,0.3c1,33.7,3,137.5,3,138.6C147.6,223.4,147.5,223.5,147.3,223.5L147.3,223.5z"/>
	<path id="XMLID_122_" class="st3" d="M144.6,223.5c-0.2,0-0.3-0.1-0.3-0.3c-0.6-17.3-3.5-105.6-3.4-138.4c0-0.2,0.2-0.3,0.3-0.3
		c0.2,0.1,0.3,0.2,0.3,0.3c-0.1,32.8,2.8,121,3.4,138.3C144.9,223.4,144.8,223.5,144.6,223.5L144.6,223.5z"/>
	<path id="XMLID_123_" class="st3" d="M126.5,221.7c-0.2,0-0.3-0.1-0.3-0.3c-0.8-7.9-4.8-48.4-5.9-67.5c-1-18.1-2.2-51.9-1.7-65.9
		c0-0.2,0.2-0.3,0.3-0.3s0.3,0.2,0.3,0.3c-0.4,13.9,0.7,47.7,1.7,65.8c1.1,19.1,5.1,59.6,5.9,67.5
		C126.8,221.6,126.7,221.7,126.5,221.7L126.5,221.7z"/>
	<path id="XMLID_125_" class="st3" d="M135.5,222.9c-0.2,0-0.3-0.1-0.3-0.3c-3.2-31.4-5.6-119.3-6.1-136.6c0-0.2,0.1-0.3,0.3-0.3
		c0.2,0,0.3,0.1,0.3,0.3c0.4,17.3,2.9,105.1,6.1,136.5C135.8,222.8,135.7,222.9,135.5,222.9L135.5,222.9z"/>
	<path id="XMLID_126_" class="st3" d="M132.5,222.6c-0.2,0-0.3-0.1-0.3-0.3c-3.3-31.3-6.1-118.6-6.6-135.7c0-0.2,0.1-0.3,0.3-0.3
		c0.2,0,0.3,0.1,0.3,0.3c0.5,17.2,3.4,104.4,6.6,135.6C132.8,222.4,132.7,222.6,132.5,222.6L132.5,222.6z"/>
	<path id="XMLID_127_" class="st3" d="M123.5,221.2c-0.2,0-0.3-0.1-0.3-0.3c-3.4-28.4-9.5-81.1-8.1-131.9c0-0.2,0.1-0.3,0.3-0.3
		c0.2,0,0.3,0.2,0.3,0.3c-1.4,50.7,4.8,103.5,8.1,131.8C123.8,221,123.7,221.2,123.5,221.2L123.5,221.2z"/>
	<path id="XMLID_131_" class="st3" d="M108.6,216.1c-0.2,0-0.3-0.1-0.3-0.2c-13.3-58-11.5-106.1-10.7-119.4c0-0.2,0.2-0.3,0.3-0.3
		c0.2,0,0.3,0.2,0.3,0.3c-0.9,13.3-2.7,61.4,10.7,119.3C108.9,215.9,108.8,216.1,108.6,216.1L108.6,216.1z"/>
	<path id="XMLID_132_" class="st3" d="M100.9,208.8c-0.1,0-0.2-0.1-0.3-0.2c-3.9-5.7-5.9-13.6-8.5-23.5l-0.4-1.5
		c-6.7-25.6-6.9-46.8-5.1-70.7c0-0.2,0.2-0.3,0.3-0.3c0.2,0,0.3,0.2,0.3,0.3c-1.8,23.9-1.6,45,5.1,70.5l0.4,1.5
		c2.3,9,4.2,16.3,7.5,21.8c-12.1-59.3-10.9-92.4-9.8-103.9c0-0.2,0.2-0.3,0.3-0.3c0.2,0,0.3,0.2,0.3,0.3
		c-1.1,11.6-2.4,45.1,10.1,105.4c0.1,0.2-0.1,0.3-0.2,0.3L100.9,208.8z"/>
	<path id="XMLID_133_" class="st3" d="M104.9,213.3c-0.2,0-0.3-0.1-0.3-0.3c-13-58.3-11.6-101.7-10.8-113.6c0-0.2,0.2-0.3,0.3-0.3
		c0.2,0,0.3,0.2,0.3,0.3c-0.8,11.9-2.2,55.2,10.8,113.5C105.2,213.1,105.1,213.3,104.9,213.3L104.9,213.3z"/>
	<path id="XMLID_134_" class="st3" d="M120.6,220.6c-0.2,0-0.3-0.1-0.3-0.3c-6.7-38.3-10.1-101.5-8.6-130.4c0-0.2,0.2-0.3,0.3-0.3
		c0.2,0,0.3,0.2,0.3,0.3c-1.5,28.8,1.8,92,8.5,130.2C121,220.4,120.9,220.5,120.6,220.6L120.6,220.6z"/>
	<path id="XMLID_139_" class="st3" d="M117.5,219.8c-0.2,0-0.3-0.1-0.3-0.3c-7.7-37.4-10.4-105.6-8.9-128.4c0-0.2,0.2-0.3,0.3-0.3
		c0.2,0,0.3,0.2,0.3,0.3c-1.5,22.7,1.3,90.9,8.9,128.2C117.9,219.6,117.8,219.7,117.5,219.8L117.5,219.8z"/>
	<path id="XMLID_140_" class="st3" d="M114.8,218.9c-0.2,0-0.3-0.1-0.3-0.3c-11.7-66.1-10.4-116.5-10-125.9c0-0.2,0.2-0.3,0.3-0.3
		c0.2,0,0.3,0.2,0.3,0.3c-0.4,9.4-1.7,59.8,10,125.8C115.1,218.7,114.9,218.9,114.8,218.9L114.8,218.9z"/>
	<path id="XMLID_141_" class="st3" d="M111.9,217.8c-0.2,0-0.3-0.1-0.3-0.3c-12.3-54.9-11-112.2-10.6-123.1c0-0.2,0.2-0.3,0.3-0.3
		c0.2,0,0.3,0.2,0.3,0.3c-0.4,10.9-1.6,68,10.6,122.9c0.1,0.2-0.1,0.3-0.2,0.4L111.9,217.8z"/>
	<path id="XMLID_142_" class="st3" d="M153.8,223.4c-0.2,0-0.3-0.2-0.3-0.3c-0.1-28.9-1.2-111.7-1.7-138.4c0-0.2,0.1-0.3,0.3-0.3
		l0,0c0.2,0,0.3,0.2,0.3,0.3c0.4,26.7,1.6,109.5,1.7,138.4C154.1,223.2,154,223.4,153.8,223.4z"/>
	<path id="XMLID_144_" class="st3" d="M150.3,223.5c-0.2,0-0.3-0.2-0.3-0.3c-0.1-24.1-1.7-119.7-2.1-138.7c0-0.1,0.1-0.2,0.1-0.2
		c0.1-0.1,0.2-0.1,0.2-0.1h0.2c0.2,0,0.3,0.2,0.3,0.3c0,0.1-0.1,0.2-0.2,0.3c0.3,19.6,2,114.4,2.1,138.4
		C150.6,223.4,150.5,223.5,150.3,223.5z"/>
	<path id="XMLID_145_" class="st3" d="M185.8,217.2L185.8,217.2c-0.2-0.1-0.3-0.2-0.3-0.4c10.9-63.2,7.6-111.1,6.3-124.3
		c0-0.2,0.1-0.3,0.3-0.3c0.2,0,0.3,0.1,0.3,0.3c1.3,13.2,4.6,61.3-6.3,124.5C186.1,217.1,186,217.2,185.8,217.2z"/>
	<path id="XMLID_147_" class="st3" d="M182.8,218.4L182.8,218.4c-0.2-0.1-0.3-0.2-0.3-0.4c7.2-37.4,7.8-103.4,6.1-126.9
		c0-0.2,0.1-0.3,0.3-0.3c0.2,0,0.3,0.1,0.3,0.3c1.7,23.5,1.2,89.6-6.1,127.1C183.1,218.3,183,218.4,182.8,218.4z"/>
	<path id="XMLID_148_" class="st3" d="M188.2,216L188.2,216c-0.2-0.1-0.3-0.2-0.3-0.4c12.7-53.1,9.2-106.2,7.9-121.2
		c0-0.2,0.1-0.3,0.3-0.3s0.3,0.1,0.3,0.3c1.4,15,4.8,68.2-7.9,121.4C188.4,216,188.3,216,188.2,216z"/>
	<path id="XMLID_149_" class="st3" d="M195.7,209.4L195.7,209.4c-0.2-0.1-0.3-0.2-0.3-0.4c12.3-54,9.3-94.3,7.5-109.2
		c0-0.2,0.1-0.3,0.3-0.3s0.3,0.1,0.3,0.3c1.8,14.9,4.9,55.3-7.5,109.4C196,209.3,195.9,209.4,195.7,209.4z"/>
	<path id="XMLID_150_" class="st3" d="M192,213.5L192,213.5c-0.2-0.1-0.3-0.2-0.3-0.4c13-56.4,9.2-103.3,7.7-116.3
		c0-0.2,0.1-0.3,0.3-0.3s0.3,0.1,0.3,0.3c1.5,13.1,5.3,60-7.7,116.5C192.3,213.4,192.2,213.5,192,213.5z"/>
	<path id="XMLID_152_" class="st3" d="M179.8,219.3L179.8,219.3c-0.2-0.1-0.3-0.2-0.3-0.4c6.8-35.6,7.2-98.1,5.3-129.2
		c0-0.2,0.1-0.3,0.3-0.3s0.3,0.1,0.3,0.3c1.9,31.1,1.5,93.7-5.3,129.3C180.1,219.2,180,219.3,179.8,219.3z"/>
	<path id="XMLID_153_" class="st3" d="M177.2,220L177.2,220c-0.2,0-0.3-0.2-0.3-0.4c1.2-9.5,7.3-60.5,4.5-130.9
		c0-0.2,0.1-0.3,0.3-0.3c0.2,0,0.3,0.1,0.3,0.3c2.8,70.5-3.3,121.5-4.5,131C177.5,219.9,177.4,220,177.2,220z"/>
	<path id="XMLID_154_" class="st3" d="M173.9,220.9L173.9,220.9c-0.2,0-0.3-0.2-0.3-0.3c7.3-68.8,5.3-105.8,3.8-132.8
		c0-0.2,0.1-0.3,0.3-0.3s0.3,0.1,0.3,0.3c1.5,27,3.5,64-3.8,132.8C174.1,220.8,174,220.9,173.9,220.9z"/>
	<path id="XMLID_155_" class="st3" d="M156.3,223.2L156.3,223.2c-0.2,0-0.3-0.2-0.3-0.3c2.4-35.6,0-121.3-0.5-138.1
		c0-0.2,0.1-0.3,0.3-0.3c0.2,0,0.3,0.1,0.3,0.3c0.5,16.8,2.8,102.6,0.5,138.2C156.6,223.1,156.4,223.2,156.3,223.2z"/>
	<path id="XMLID_156_" class="st3" d="M159.2,223L159.2,223c-0.2,0-0.3-0.2-0.3-0.3c1.1-24.2,2.1-67.6,0.5-136.9v-0.7
		c0-0.2,0.1-0.3,0.3-0.3c0.2,0,0.3,0.1,0.3,0.3v0.7c1.6,69.3,0.6,112.8-0.5,137C159.4,222.9,159.3,223,159.2,223z"/>
	<path id="XMLID_159_" class="st3" d="M200.8,199h-0.1c-0.2-0.1-0.3-0.2-0.2-0.4c10-50.8,8.2-80.6,6.2-93.7c0-0.2,0.1-0.3,0.2-0.3
		c0.2-0.1,0.3,0,0.4,0.2c1.2,2.3,2,4.8,2.2,7.5l0.3,3.6c1.6,20.9,3,38.9-4.3,68c-1.5,5.9-2.8,10.7-4.3,15.1
		C201,198.9,200.9,199,200.8,199z M207.6,106.9c1.8,13.6,3,41.3-5.5,86.6c0.9-3,1.7-6.3,2.7-10c7.4-29,6-46.9,4.3-67.8l-0.3-3.6
		C208.7,110.3,208.2,108.5,207.6,106.9z"/>
	<path id="XMLID_160_" class="st3" d="M171,221.4L171,221.4c-0.2,0-0.3-0.2-0.3-0.3c6.9-65.1,4-123.1,3.3-134c0-0.2,0.1-0.3,0.3-0.3
		s0.3,0.1,0.3,0.3c0.7,10.9,3.6,69-3.4,134.1C171.4,221.3,171.2,221.4,171,221.4z"/>
	<path id="XMLID_161_" class="st3" d="M162.2,222.7L162.2,222.7c-0.2,0-0.3-0.2-0.3-0.3c2.6-43.3,2.8-88.4,0.7-134
		c-0.1-1.2-0.1-2.2-0.2-3c0-0.2,0.1-0.3,0.3-0.3c0.2,0,0.3,0.1,0.3,0.3c0.1,0.8,0.1,1.8,0.2,3c2.1,45.7,1.8,90.8-0.7,134.1
		C162.5,222.6,162.3,222.7,162.2,222.7z"/>
	<path id="XMLID_162_" class="st3" d="M168.1,221.9L168.1,221.9c-0.2,0-0.3-0.2-0.3-0.3c5.9-71.9,3.3-125.2,2.7-135.2
		c0-0.2,0.1-0.3,0.3-0.3c0.2,0,0.3,0.1,0.3,0.3c0.6,10,3.3,63.4-2.7,135.3C168.3,221.8,168.2,221.9,168.1,221.9z"/>
	<path id="XMLID_163_" class="st3" d="M165.2,222.3L165.2,222.3c-0.2,0-0.3-0.2-0.3-0.3c0.7-14.9,4.2-91.3,1.8-136.2
		c0-0.2,0.1-0.3,0.3-0.3s0.3,0.1,0.3,0.3c2.4,44.9-1.1,121.4-1.8,136.2C165.5,222.2,165.4,222.3,165.2,222.3z"/>
	
		<linearGradient id="XMLID_5_" gradientUnits="userSpaceOnUse" x1="-320.2091" y1="23.7376" x2="-319.6671" y2="23.7376" gradientTransform="matrix(-73.1467 -59.295 -59.295 73.1467 -21807.6406 -20636.1641)">
		<stop  offset="0" style="stop-color:#DEDEDE"/>
		<stop  offset="5.617980e-03" style="stop-color:#DEDEDE"/>
		<stop  offset="0.1616" style="stop-color:#D2D1D1"/>
		<stop  offset="1" style="stop-color:#918F8F"/>
	</linearGradient>
	<path id="XMLID_164_" class="st4" d="M220.1,92.9l-0.1-2.6c-13.2-16.2-32.5-27.2-57.2-29.9C176.8,63.2,203.4,71.3,220.1,92.9z"/>
	
		<linearGradient id="XMLID_6_" gradientUnits="userSpaceOnUse" x1="-314.9153" y1="20.4401" x2="-314.3732" y2="20.4401" gradientTransform="matrix(128.6339 0 0 -128.6339 40597.4141 2707.7275)">
		<stop  offset="0" style="stop-color:#DEDEDE"/>
		<stop  offset="5.617980e-03" style="stop-color:#DEDEDE"/>
		<stop  offset="0.1834" style="stop-color:#9B999A"/>
		<stop  offset="0.3652" style="stop-color:#5A5758"/>
		<stop  offset="1" style="stop-color:#DEDEDE"/>
	</linearGradient>
	<path id="XMLID_165_" class="st5" d="M162.8,60.4c-3.9-0.4-8-0.7-12.1-0.7c-27.1,0-50.7,8.7-67.3,25.4l-5.5,10.1
		c3.5-5.9,20.8-29.3,71.9-28.4c56.2,1,70.5,30.3,70.5,30.3l-0.2-4.3C203.4,71.3,176.8,63.2,162.8,60.4z"/>
	
		<linearGradient id="XMLID_7_" gradientUnits="userSpaceOnUse" x1="-320.3599" y1="19.8776" x2="-319.8178" y2="19.8776" gradientTransform="matrix(2.516614e-09 -56.0536 -56.0536 -2.516614e-09 1338.7059 -17770.7617)">
		<stop  offset="0" style="stop-color:#A7A6A6"/>
		<stop  offset="5.617980e-03" style="stop-color:#A7A6A6"/>
		<stop  offset="0.225" style="stop-color:#9A9999"/>
		<stop  offset="0.7013" style="stop-color:#838182"/>
		<stop  offset="1" style="stop-color:#7B7979"/>
	</linearGradient>
	<path id="XMLID_166_" class="st6" d="M240.5,152.6c0-24-7.1-45.9-20.5-62.4c0,0,17.6,24.3,18.5,55.5c0.3,10.9-1.6,21.8-4.8,32.3
		c-3.8,12.5-11,28.1-25.2,42.5C228,204.8,240.5,181,240.5,152.6z"/>
	<path id="XMLID_167_" class="st7" d="M238.4,145.7c-0.9-31.1-18.5-55.5-18.5-55.5s18.5,31.2,17.7,69.7
		C238.3,155.2,238.6,150.4,238.4,145.7z"/>
	<path id="XMLID_168_" class="st7" d="M227,105.2c-3.7-9.3-7-14.9-7-14.9l0.3,6.9l8.6,21.6c0,0,0-1.3,0-3.4
		C228.8,113.7,227.6,109.8,227,105.2z"/>
	
		<linearGradient id="XMLID_8_" gradientUnits="userSpaceOnUse" x1="-317.819" y1="21.8324" x2="-317.2769" y2="21.8324" gradientTransform="matrix(8.837211e-09 -196.8348 -196.8348 -8.837211e-09 4521.3984 -62339.1367)">
		<stop  offset="0" style="stop-color:#A7A6A6"/>
		<stop  offset="5.617980e-03" style="stop-color:#A7A6A6"/>
		<stop  offset="0.1011" style="stop-color:#9A9999"/>
		<stop  offset="0.3083" style="stop-color:#838182"/>
		<stop  offset="0.4382" style="stop-color:#7B7979"/>
		<stop  offset="0.7224" style="stop-color:#797777"/>
		<stop  offset="0.8339" style="stop-color:#727070"/>
		<stop  offset="0.915" style="stop-color:#666464"/>
		<stop  offset="0.981" style="stop-color:#555353"/>
		<stop  offset="1" style="stop-color:#4F4C4D"/>
	</linearGradient>
	<path id="XMLID_169_" class="st8" d="M227,105.2c0.6,4.6,1.8,8.5,1.8,10.1c0,0,4.9,8.6,4.9,15.4c0,6.8,1.8,12.1,1.8,21.2
		c0,9.1,1.6,27.9-19.5,58.2c-2,2.8-4,5.8-5.8,8.6c13-13.9,19.8-28.7,23.4-40.7c1.8-5.9,3.2-11.9,4-18.1
		C238.2,137.7,232.1,117.9,227,105.2z"/>
	<path id="XMLID_170_" class="st7" d="M208.3,220.6c-9.6,6-33.2,18.9-59,18.9c-27.8,0-65.5-11.1-79.9-51c-5.3-14.8-7.4-25-7.4-42.1
		c0-24.2,10.2-47.8,21.3-61.1l-0.2,0.2c-1.2,1.3-10.6,11.5-17.1,29.9c-8.8,24.8-12.2,63,18.7,100.8c16.3,15.5,39.2,24.6,65.8,24.6
		C172.4,240.6,192.6,233.3,208.3,220.6z"/>
	<path id="XMLID_171_" class="st9" d="M66.2,115.2C72.7,96.8,82,86.6,83.2,85.3c-15.4,15.6-24.6,38.3-24.6,67.3
		c0,25.7,9.8,47.8,26.2,63.3C54,178.2,57.4,140,66.2,115.2z"/>
	
		<linearGradient id="XMLID_9_" gradientUnits="userSpaceOnUse" x1="-434.4724" y1="220.8168" x2="-433.9304" y2="220.8168" gradientTransform="matrix(-1.2959 0.6472 0.6472 1.2959 -631.9048 190.5143)">
		<stop  offset="0" style="stop-color:#A7A6A6"/>
		<stop  offset="5.617980e-03" style="stop-color:#A7A6A6"/>
		<stop  offset="0.1011" style="stop-color:#9A9999"/>
		<stop  offset="0.3083" style="stop-color:#838182"/>
		<stop  offset="0.4382" style="stop-color:#7B7979"/>
		<stop  offset="0.7224" style="stop-color:#797777"/>
		<stop  offset="0.8339" style="stop-color:#727070"/>
		<stop  offset="0.915" style="stop-color:#666464"/>
		<stop  offset="0.981" style="stop-color:#555353"/>
		<stop  offset="1" style="stop-color:#4F4C4D"/>
	</linearGradient>
	<path id="XMLID_172_" class="st10" d="M66.9,181c0.8,2.4,1.6,4.8,2.5,7.4c2.8,7.9,6.6,14.6,11,20.4l1.7,0.7
		C75.5,199.2,69.8,187.3,66.9,181z"/>
	
		<linearGradient id="XMLID_10_" gradientUnits="userSpaceOnUse" x1="-315.4364" y1="23.9068" x2="-314.8943" y2="23.9068" gradientTransform="matrix(26.7304 187.1128 187.1128 -26.7304 4028.7546 59765.3047)">
		<stop  offset="0" style="stop-color:#A7A6A6"/>
		<stop  offset="5.617980e-03" style="stop-color:#A7A6A6"/>
		<stop  offset="0.1011" style="stop-color:#9A9999"/>
		<stop  offset="0.3083" style="stop-color:#838182"/>
		<stop  offset="0.4382" style="stop-color:#7B7979"/>
		<stop  offset="0.7224" style="stop-color:#797777"/>
		<stop  offset="0.8339" style="stop-color:#727070"/>
		<stop  offset="0.915" style="stop-color:#666464"/>
		<stop  offset="0.981" style="stop-color:#555353"/>
		<stop  offset="1" style="stop-color:#4F4C4D"/>
	</linearGradient>
	<path id="XMLID_173_" class="st11" d="M86.8,213.8c-10.9-17-22.1-34-22.1-64.9s13.1-53.7,13.1-53.7l5.5-10.1
		C72.2,98.5,62,122.1,62,146.3c0,14.1,1.4,23.5,4.9,34.7c2.9,6.2,8.6,18.2,15.2,28.5l-1.7-0.7c1.2,1.6,2.5,3.1,3.8,4.6L86.8,213.8z"
		/>
	
		<linearGradient id="XMLID_11_" gradientUnits="userSpaceOnUse" x1="-277.5417" y1="29.5907" x2="-276.9996" y2="29.5907" gradientTransform="matrix(3.5491 4.6337 4.6337 -3.5491 1049.9213 1613.4658)">
		<stop  offset="0" style="stop-color:#231F20"/>
		<stop  offset="5.617980e-03" style="stop-color:#231F20"/>
		<stop  offset="7.776989e-02" style="stop-color:#373334"/>
		<stop  offset="0.2339" style="stop-color:#5C595A"/>
		<stop  offset="0.3596" style="stop-color:#737071"/>
		<stop  offset="0.4382" style="stop-color:#7B7979"/>
		<stop  offset="0.7224" style="stop-color:#797777"/>
		<stop  offset="0.8339" style="stop-color:#727070"/>
		<stop  offset="0.915" style="stop-color:#666464"/>
		<stop  offset="0.981" style="stop-color:#555353"/>
		<stop  offset="1" style="stop-color:#4F4C4D"/>
	</linearGradient>
	<path id="XMLID_174_" class="st12" d="M208.3,220.6c0.1-0.1,0.1-0.1,0.2-0.1c0.6-0.6,1.2-1.2,1.7-1.8c0.5-0.8,1-1.5,1.6-2.3
		c-5.5,4.8-14.4,10.1-19.1,12.7C199.4,226,204.8,222.8,208.3,220.6z"/>
	
		<linearGradient id="XMLID_12_" gradientUnits="userSpaceOnUse" x1="-318.1205" y1="20.5553" x2="-317.5785" y2="20.5553" gradientTransform="matrix(13.122 -111.7793 -111.7793 -13.122 6623.0474 -35060.3203)">
		<stop  offset="0" style="stop-color:#A7A6A6"/>
		<stop  offset="5.617980e-03" style="stop-color:#A7A6A6"/>
		<stop  offset="0.1011" style="stop-color:#9A9999"/>
		<stop  offset="0.3083" style="stop-color:#838182"/>
		<stop  offset="0.4382" style="stop-color:#7B7979"/>
		<stop  offset="0.7224" style="stop-color:#797777"/>
		<stop  offset="0.8339" style="stop-color:#727070"/>
		<stop  offset="0.915" style="stop-color:#666464"/>
		<stop  offset="0.981" style="stop-color:#555353"/>
		<stop  offset="1" style="stop-color:#4F4C4D"/>
	</linearGradient>
	<path id="XMLID_175_" class="st13" d="M201,222.7c-0.1,0.1-0.1,0.1-0.2,0.1c-9.1,6-27.4,12.8-53.9,12.8c-28.2,0-46.7-9.8-52.3-14.5
		c-2.7-2.3-4.8-3.1-6.1-3.4c17.7,16.4,41.6,21.7,60.8,21.7c16.3,0,31.8-5.1,43.4-10.5c4.7-2.6,13.6-7.8,19.1-12.7
		c1.4-2.1,2.8-4.2,4.2-6.2c0.1-0.2,0.2-0.3,0.4-0.5l1.4-5.1C217.8,204.5,209,217.3,201,222.7z"/>
	
		<linearGradient id="XMLID_13_" gradientUnits="userSpaceOnUse" x1="-308.5373" y1="18.5499" x2="-307.9952" y2="18.5499" gradientTransform="matrix(23.7521 11.3103 11.3103 -23.7521 7341.1284 4112.2329)">
		<stop  offset="0" style="stop-color:#393637"/>
		<stop  offset="5.617980e-03" style="stop-color:#393637"/>
		<stop  offset="0.1376" style="stop-color:#5B5959"/>
		<stop  offset="0.2536" style="stop-color:#737071"/>
		<stop  offset="0.3258" style="stop-color:#7B7979"/>
		<stop  offset="0.4102" style="stop-color:#747272"/>
		<stop  offset="0.7823" style="stop-color:#595657"/>
		<stop  offset="1" style="stop-color:#4F4C4D"/>
	</linearGradient>
	<path id="XMLID_176_" class="st14" d="M235.6,157.6c-6.6,7.6-9.6,18.2-12.7,28c-3.3,10.5-3.3,15.6-5.1,18.9l-1.4,5.1
		C233.5,184.9,235.4,167.8,235.6,157.6z"/>
	
		<linearGradient id="XMLID_14_" gradientUnits="userSpaceOnUse" x1="-325.651" y1="44.2592" x2="-325.1089" y2="44.2592" gradientTransform="matrix(-11.8252 1.9438 1.9438 11.8252 -3701.7405 236.0487)">
		<stop  offset="0" style="stop-color:#393637"/>
		<stop  offset="5.617980e-03" style="stop-color:#393637"/>
		<stop  offset="0.1156" style="stop-color:#423F40"/>
		<stop  offset="0.296" style="stop-color:#5B5858"/>
		<stop  offset="0.5243" style="stop-color:#828080"/>
		<stop  offset="0.7887" style="stop-color:#B8B7B7"/>
		<stop  offset="1" style="stop-color:#E9E8E8"/>
	</linearGradient>
	<path id="XMLID_177_" class="st15" d="M233,140.9c1.1,0.3-0.5-3.1,0.9-7.2c-0.1-1-0.1-2-0.1-3c0-6.8-4.9-15.4-4.9-15.4
		c0,2.1,0,3.4,0,3.4l-2-5.1c0.4,2.2,1,5.1,1.6,8.9C229.9,131.6,231.1,140.5,233,140.9z"/>
	<path id="XMLID_178_" class="st7" d="M231.1,137.3L231.1,137.3c-0.9-3.5-1.7-9.2-2.7-14.9c-0.6-3.7-1.2-6.7-1.6-8.9l-3.4-8.5
		c1.7,7,3.7,14,5,20.9C230.1,135.5,231.1,137.3,231.1,137.3z"/>
	<path id="XMLID_179_" class="st7" d="M196.3,78c8.9,4,15.2,9.2,19.8,14.9c3.8,4.7,7,13.4,9.4,20.5c-0.7-2.7-1.4-5.4-2.1-8.2l-3.1-8
		c0,0-14.4-29.3-70.5-30.3c-18.2-0.3-32.6,3.2-43.5,7.9c9.6-2.7,26.3-6.7,39.6-6.7C162.9,67.9,177.7,69.6,196.3,78z"/>
	
		<linearGradient id="XMLID_15_" gradientUnits="userSpaceOnUse" x1="-321.8535" y1="33.4685" x2="-321.3114" y2="33.4685" gradientTransform="matrix(-29.7373 9.1801 9.1801 29.7373 -9761.0049 2039.5958)">
		<stop  offset="0" style="stop-color:#918F8F"/>
		<stop  offset="5.617980e-03" style="stop-color:#918F8F"/>
		<stop  offset="1" style="stop-color:#918F8F"/>
	</linearGradient>
	<path id="XMLID_180_" class="st16" d="M122.3,74.1l0.1-1c-23.6,4.8-37.1,15.8-40,23.9c0,0,0.4-0.2,1-0.3c0.7-1,1.7-2.3,2.9-3.9
		C88.6,89.6,99.9,78.4,122.3,74.1z"/>
	
		<linearGradient id="XMLID_16_" gradientUnits="userSpaceOnUse" x1="-315.9209" y1="21.5755" x2="-315.3785" y2="21.5755" gradientTransform="matrix(252.5768 0 0 -252.5768 79877.6797 5548.4771)">
		<stop  offset="0" style="stop-color:#FFFFFF"/>
		<stop  offset="5.617980e-03" style="stop-color:#FFFFFF"/>
		<stop  offset="6.048165e-02" style="stop-color:#E6E6E6"/>
		<stop  offset="0.1613" style="stop-color:#BEBDBD"/>
		<stop  offset="0.2685" style="stop-color:#9C9A9A"/>
		<stop  offset="0.3814" style="stop-color:#807E7E"/>
		<stop  offset="0.5019" style="stop-color:#6A6868"/>
		<stop  offset="0.6336" style="stop-color:#5B5859"/>
		<stop  offset="0.7848" style="stop-color:#524F50"/>
		<stop  offset="1" style="stop-color:#4F4C4D"/>
	</linearGradient>
	<path id="XMLID_181_" class="st17" d="M220.2,107.1c-0.7-1.8-3.2-9.9-8-15.4c-4.8-5.6-24-21.1-63.9-21.1c-9.7,0-18.4,0.9-26,2.5
		l-0.1,1c-22.3,4.2-33.7,15.5-36,18.7c-1.1,1.6-2.1,2.9-2.9,3.9c0.3,0,0.7,0.1,1.1,0.2c1.2,0.5,1.1,0.5,2.1,1c1,0.4,1.2,0.8,4.1-2.3
		c2.8-3.1,18.1-16,57.8-16c24.3,0,46.7,4.7,58.8,16.2c2.3,3,6.1,6.2,8.6,31.7c-0.2-3.9-0.4-6.9-0.5-8.5c0-0.1-1-5.6-1-9.8
		c0-1.4,0.2-2.3,1.2-1.7c1.1,0.5,1.8,0.2,2.7,0.6c0.8,0.4,2.3,0.8,2.2-0.4C220.3,107.5,220.3,107.3,220.2,107.1z"/>
	
		<linearGradient id="XMLID_17_" gradientUnits="userSpaceOnUse" x1="-222.7893" y1="-4.5403" x2="-222.2472" y2="-4.5403" gradientTransform="matrix(2.0674 1.3168 1.3168 -2.0674 684.4188 480.1824)">
		<stop  offset="0" style="stop-color:#BDBBBC"/>
		<stop  offset="5.617980e-03" style="stop-color:#BDBBBC"/>
		<stop  offset="0.1642" style="stop-color:#C5C5C5"/>
		<stop  offset="0.4233" style="stop-color:#DEDDDD"/>
		<stop  offset="0.5225" style="stop-color:#E9E8E8"/>
		<stop  offset="1" style="stop-color:#918F8F"/>
	</linearGradient>
	<path id="XMLID_182_" class="st18" d="M217.9,193.3c-0.1,0.1-1.1,1.6-2.4,4.3C216.3,196.4,217.1,194.9,217.9,193.3z"/>
	
		<linearGradient id="XMLID_18_" gradientUnits="userSpaceOnUse" x1="-315.5465" y1="24.8721" x2="-315.0045" y2="24.8721" gradientTransform="matrix(-37.9097 90.7238 90.7238 37.9097 -13990.0303 27836.7344)">
		<stop  offset="0" style="stop-color:#2E2B2C"/>
		<stop  offset="5.617980e-03" style="stop-color:#2E2B2C"/>
		<stop  offset="0.5225" style="stop-color:#918F8F"/>
		<stop  offset="1" style="stop-color:#393637"/>
	</linearGradient>
	<path id="XMLID_184_" class="st19" d="M235.6,151.9c0-7.7-1.3-12.7-1.7-18.2c-1.4,4.1,0.3,7.5-0.9,7.2c-0.7-0.2-1.3-1.5-1.8-3.6
		c0,0-1-1.8-2.7-10.9c0.2,4.8,0.4,13.9-0.1,22.4c-0.7,14.1-5.3,33.6-10.5,44.6l0,0l0,0c-0.8,1.6-1.6,3.1-2.4,4.3
		c-1,2.2-1.7,8.7-4.7,15.8c4.1-4.7,7-9,7-9c1.8-3.3,1.8-8.3,5.1-18.9c3-9.8,6.1-20.4,12.7-28C235.6,155.4,235.6,153.5,235.6,151.9z"
		/>
	
		<linearGradient id="XMLID_19_" gradientUnits="userSpaceOnUse" x1="-314.2153" y1="24.3962" x2="-313.6733" y2="24.3962" gradientTransform="matrix(1.2958 85.8649 85.8649 -1.2958 -1466.9248 27140.877)">
		<stop  offset="0" style="stop-color:#393637"/>
		<stop  offset="5.617980e-03" style="stop-color:#393637"/>
		<stop  offset="0.1013" style="stop-color:#423F40"/>
		<stop  offset="0.2582" style="stop-color:#5B5858"/>
		<stop  offset="0.4556" style="stop-color:#828080"/>
		<stop  offset="0.5225" style="stop-color:#918F8F"/>
		<stop  offset="1" style="stop-color:#393637"/>
	</linearGradient>
	<path id="XMLID_185_" class="st20" d="M224.8,118.1c-1.5-7-3.5-9.5-4.4-10.5c0.1,1.1-1.4,0.8-2.2,0.4c-0.9-0.4-1.6-0.1-2.7-0.6
		s-1.2,0.3-1.2,1.7c0,4.1,1,9.7,1,9.8l0,0c0,0,1.6-3,2.7,3.8c0.8,4.8,1.7,8.1,1.8,11.8c2.1,2.1,6.6,7.6,6.2,16.9
		c-0.2,6.6-1.1,13.5-1.8,18.5c0.5-2.3,1.1-4.8,1.6-7.2C228.5,149.4,226.9,127.9,224.8,118.1z"/>
	
		<linearGradient id="XMLID_20_" gradientUnits="userSpaceOnUse" x1="-314.0931" y1="25.8289" x2="-313.5511" y2="25.8289" gradientTransform="matrix(-13.2844 59.6162 59.6162 13.2844 -5487.4072 18535.7344)">
		<stop  offset="0" style="stop-color:#BDBBBC"/>
		<stop  offset="5.617980e-03" style="stop-color:#BDBBBC"/>
		<stop  offset="0.1642" style="stop-color:#C5C5C5"/>
		<stop  offset="0.4233" style="stop-color:#DEDDDD"/>
		<stop  offset="0.5225" style="stop-color:#E9E8E8"/>
		<stop  offset="1" style="stop-color:#918F8F"/>
	</linearGradient>
	<path id="XMLID_187_" class="st21" d="M226.4,129.1c1,10.6,1.2,24.1-0.8,33.5c-0.5,2.4-1,4.8-1.6,7.2c-0.7,4.3-1.2,7.2-1.2,7.2
		s0.5-2.9,1.2-7.2c-2.4,10.3-5,19.6-8.5,27.8c1.3-2.8,2.3-4.2,2.4-4.3c5.3-11,9.8-30.5,10.5-44.6c0.2-3.9,0.3-8,0.3-11.7
		L226.4,129.1z"/>
	<path id="XMLID_188_" class="st22" d="M205.4,212.7c-1.2,2.6-4.1,6.5-10.8,10.4c-11.5,6.7-23.4,10.7-46.3,10.7s-54.8-5.5-64.8-31.2
		s-13.7-32.3-13.7-65.3c0-18.4,3.8-34.6,13.8-46.3l8.1-8.2c-8.9,6.1-13.2,11.8-13.8,12.6l-0.1,0.1c0,0-13.1,22.7-13.1,53.7
		s11.2,48,22.1,64.9l-2.5-0.4c1.4,1.5,2.8,2.9,4.2,4.3c1.4,0.3,3.4,1.1,6.1,3.4c5.6,4.8,24.1,14.5,52.3,14.5
		c26.5,0,44.8-6.9,53.9-12.8c3.5-2.3,7-5.9,10-9.4c1.2-3,2.1-6,2.8-8.5C207.8,212.4,205.4,212.7,205.4,212.7z"/>
	
		<linearGradient id="XMLID_21_" gradientUnits="userSpaceOnUse" x1="-317.5991" y1="20.1179" x2="-317.057" y2="20.1179" gradientTransform="matrix(48.2509 -80.4178 -80.4178 -48.2509 17144.9102 -24360.0352)">
		<stop  offset="0" style="stop-color:#3E3B3B"/>
		<stop  offset="5.617980e-03" style="stop-color:#3E3B3B"/>
		<stop  offset="6.554088e-02" style="stop-color:#535051"/>
		<stop  offset="0.2572" style="stop-color:#939191"/>
		<stop  offset="0.4188" style="stop-color:#C1C0C0"/>
		<stop  offset="0.542" style="stop-color:#DEDDDD"/>
		<stop  offset="0.6124" style="stop-color:#E9E8E8"/>
		<stop  offset="0.6625" style="stop-color:#DDDCDC"/>
		<stop  offset="0.7532" style="stop-color:#BEBCBD"/>
		<stop  offset="0.8741" style="stop-color:#8B8989"/>
		<stop  offset="1" style="stop-color:#4F4C4D"/>
	</linearGradient>
	<path id="XMLID_189_" class="st23" d="M217.7,181.1c0,0-0.4,1.2-7,11.4c-3.5,5.4-5.3,6.7-6.2,6.7c-2,5.9-4.4,10.9-8.1,14.9
		c0.6,1,1.8,2.1,3.9,2.1c2,0,3.5-1,5.1-3.5c1.6-2.3,3.4-6,5.9-11.5C216.5,190.1,217.7,181.1,217.7,181.1z"/>
	
		<linearGradient id="XMLID_22_" gradientUnits="userSpaceOnUse" x1="-315.1729" y1="24.9279" x2="-314.6308" y2="24.9279" gradientTransform="matrix(-27.7032 87.9698 87.9698 27.7032 -10699.29 27178.4238)">
		<stop  offset="0" style="stop-color:#3E3B3B"/>
		<stop  offset="5.617980e-03" style="stop-color:#3E3B3B"/>
		<stop  offset="3.952281e-02" style="stop-color:#626060"/>
		<stop  offset="8.371706e-02" style="stop-color:#8B898A"/>
		<stop  offset="0.1289" style="stop-color:#ADACAC"/>
		<stop  offset="0.1747" style="stop-color:#C7C6C6"/>
		<stop  offset="0.2213" style="stop-color:#DAD9D9"/>
		<stop  offset="0.2692" style="stop-color:#E5E4E5"/>
		<stop  offset="0.3202" style="stop-color:#E9E8E8"/>
		<stop  offset="0.7753" style="stop-color:#E9E8E8"/>
		<stop  offset="0.902" style="stop-color:#D9D8D8"/>
		<stop  offset="1" style="stop-color:#D3D2D2"/>
	</linearGradient>
	<path id="XMLID_190_" class="st24" d="M208.6,184.5c-1.4,5.3-2.6,10.2-4.2,14.8c1,0,2.8-1.3,6.2-6.7c6.6-10.3,7-11.4,7-11.4
		s-1.2,8.9-6.4,20.2c-2.5,5.5-4.3,9.1-5.9,11.5c0,0,2.4-0.4,8.1-7.8c0.9-3.4,1.4-6.1,2-7.4c3.4-8.1,6.1-17.5,8.5-27.8
		c0.8-5,1.6-11.9,1.8-18.5c0.3-9.3-4.1-14.9-6.2-16.9c0,1.4-0.1,2.9-0.4,4.6c-1.2,5.9-2.8,11.3-3.6,18c-0.8,6.7-2.2,10.8-2.2,10.8
		l-1.2,0.2C211.3,173.2,210.1,178.6,208.6,184.5z"/>
	
		<linearGradient id="XMLID_23_" gradientUnits="userSpaceOnUse" x1="-313.832" y1="20.8932" x2="-313.2899" y2="20.8932" gradientTransform="matrix(91.3741 4.8603 4.8603 -91.3741 28647.8945 3639.5022)">
		<stop  offset="0" style="stop-color:#3E3B3B"/>
		<stop  offset="5.617980e-03" style="stop-color:#3E3B3B"/>
		<stop  offset="0.1038" style="stop-color:#535051"/>
		<stop  offset="0.418" style="stop-color:#939191"/>
		<stop  offset="0.6828" style="stop-color:#C1C0C0"/>
		<stop  offset="0.8847" style="stop-color:#DEDDDD"/>
		<stop  offset="1" style="stop-color:#E9E8E8"/>
	</linearGradient>
	<path id="XMLID_191_" class="st25" d="M97.9,219.6c-7.9-5.3-16.1-22.2-18.1-29.9c-1-3.7-2.9-6.9-4.6-9.3c2.1,6.3,4.8,13,8.3,22.1
		c10,25.7,41.9,31.2,64.8,31.2c18.3,0,29.6-2.5,39.2-7c-7.8,2.4-22.3,6.1-38.9,6.1C123.8,232.8,105.7,224.9,97.9,219.6z"/>
	
		<linearGradient id="XMLID_24_" gradientUnits="userSpaceOnUse" x1="-316.0036" y1="21.6829" x2="-315.4618" y2="21.6829" gradientTransform="matrix(278.4541 0 0 -278.4541 88070.2969 6140.2056)">
		<stop  offset="0" style="stop-color:#2E2B2C"/>
		<stop  offset="5.617980e-03" style="stop-color:#2E2B2C"/>
		<stop  offset="4.464559e-02" style="stop-color:#2F2B2C"/>
		<stop  offset="1" style="stop-color:#393637"/>
	</linearGradient>
	<path id="XMLID_192_" class="st26" d="M228.5,126.4c0-0.1-0.1-0.2-0.1-0.3c-0.8-4.2-1.8-8.5-2.9-12.7c-2.4-7.1-5.6-15.8-9.4-20.5
		c-4.6-5.7-10.9-10.9-19.8-14.9c-18.6-8.3-33.3-10-50.4-10c-13.3,0-30,4.1-39.6,6.7c-5.7,2.4-10.6,5.2-14.5,7.9l-8.1,8.2
		c-0.1,0.1-0.1,0.2-0.2,0.3c-1.6,2.9-4.1,7.6-5.7,11.9c2.4-4.7,4.6-6,4.6-6c3.8-10.8,26-26.4,65.9-26.4s59.1,15.6,63.9,21.1
		c4.8,5.5,7.3,13.6,8,15.4c0.1,0.2,0.1,0.4,0.1,0.5c1,0.9,3,3.4,4.4,10.5c0.6,2.9,1.2,6.7,1.6,11.1l2.3,8
		C228.7,132.8,228.6,128.9,228.5,126.4z"/>
	
		<linearGradient id="XMLID_25_" gradientUnits="userSpaceOnUse" x1="-318.3924" y1="28.1744" x2="-317.8503" y2="28.1744" gradientTransform="matrix(-58.8098 25.5167 25.5167 58.8098 -19302.3457 6531.8003)">
		<stop  offset="0" style="stop-color:#DEDEDE"/>
		<stop  offset="5.617980e-03" style="stop-color:#DEDEDE"/>
		<stop  offset="0.1616" style="stop-color:#D2D1D1"/>
		<stop  offset="1" style="stop-color:#918F8F"/>
	</linearGradient>
	<path id="XMLID_193_" class="st27" d="M91.7,82.6c3.9-2.7,8.7-5.5,14.5-7.9c10.9-4.7,25.3-8.2,43.5-7.9
		c-51.2-0.9-68.4,22.5-71.9,28.4l0.1-0.1C78.5,94.3,82.9,88.6,91.7,82.6z"/>
	
		<linearGradient id="XMLID_26_" gradientUnits="userSpaceOnUse" x1="-318.4572" y1="23.7857" x2="-317.9151" y2="23.7857" gradientTransform="matrix(-139.484 0 0 139.484 -44254.2031 -3101.6716)">
		<stop  offset="0" style="stop-color:#4B4848"/>
		<stop  offset="2.853285e-02" style="stop-color:#444141"/>
		<stop  offset="7.303370e-02" style="stop-color:#3E3B3B"/>
		<stop  offset="0.191" style="stop-color:#5F5C5D"/>
		<stop  offset="0.3873" style="stop-color:#908E8E"/>
		<stop  offset="0.5727" style="stop-color:#B6B5B5"/>
		<stop  offset="0.7422" style="stop-color:#D2D1D1"/>
		<stop  offset="0.89" style="stop-color:#E3E2E2"/>
		<stop  offset="1" style="stop-color:#E9E8E8"/>
	</linearGradient>
	<path id="XMLID_194_" class="st28" d="M196.3,214.2c-0.5,0.5-1,1-1.5,1.5c-9.9,8.9-34.7,11.3-46.5,11.3c-8.6,0-16.8-0.8-24.5-2.2
		c-25.2-2.7-28.7-17.1-29.7-19.6c-1-2.7-1.5-1.5-2-2c-0.5-0.5-0.4-0.3-2.6-1.8s-1.5-0.7-3-1.6c-1.5-0.9-1.3,0-0.9,2
		c0.3,1.1,2.3,5.5,3.8,8.8c2.6,3.9,5.4,7.3,8.2,9.2c7.9,5.4,26,13.2,51,13.2c16.6,0,31-3.6,38.9-6.1c2.4-1.1,4.7-2.3,7-3.6
		c0.4-0.2,0.7-0.4,1.1-0.7c1.5-2.3,2.8-4.7,3.5-6.3C197.7,215.8,196.9,215,196.3,214.2z"/>
	
		<linearGradient id="XMLID_27_" gradientUnits="userSpaceOnUse" x1="-307.0872" y1="13.5714" x2="-306.5451" y2="13.5714" gradientTransform="matrix(17.9281 0 0 -17.9281 5701.2031 460.8636)">
		<stop  offset="0" style="stop-color:#3E3B3B"/>
		<stop  offset="5.617980e-03" style="stop-color:#3E3B3B"/>
		<stop  offset="1.658182e-02" style="stop-color:#454243"/>
		<stop  offset="7.954063e-02" style="stop-color:#6B6969"/>
		<stop  offset="0.1491" style="stop-color:#8D8B8C"/>
		<stop  offset="0.2247" style="stop-color:#AAA8A9"/>
		<stop  offset="0.3084" style="stop-color:#C1C0C0"/>
		<stop  offset="0.4036" style="stop-color:#D3D2D2"/>
		<stop  offset="0.5173" style="stop-color:#DFDFDF"/>
		<stop  offset="0.6676" style="stop-color:#E6E6E6"/>
		<stop  offset="1" style="stop-color:#E9E8E8"/>
	</linearGradient>
	<path id="XMLID_195_" class="st29" d="M205.4,212.7c-1.7,2.5-3.2,3.5-5.1,3.5c-0.4,0-0.7-0.1-1-0.1c-0.8,1.6-2.1,4-3.5,6.3
		C201.6,218.7,204.3,215.2,205.4,212.7z"/>
	
		<linearGradient id="XMLID_28_" gradientUnits="userSpaceOnUse" x1="-314.998" y1="26.6339" x2="-314.4559" y2="26.6339" gradientTransform="matrix(-26.4479 80.1357 80.1357 26.4479 -10377.9316 24631.9004)">
		<stop  offset="0" style="stop-color:#393637"/>
		<stop  offset="0.1388" style="stop-color:#403C3D"/>
		<stop  offset="0.3301" style="stop-color:#514E4F"/>
		<stop  offset="0.552" style="stop-color:#6E6B6C"/>
		<stop  offset="0.7949" style="stop-color:#959494"/>
		<stop  offset="1" style="stop-color:#BDBBBC"/>
	</linearGradient>
	<path id="XMLID_196_" class="st30" d="M87.7,98.2c-0.4,0.1-0.7-0.1-1.1-0.3c-1-0.5-0.8-0.5-2.1-1c-1.2-0.5-2.2,0.1-2.2,0.1
		s-5.6,3.1-8.3,17.7c-2.8,14.6-2.2,21.2-0.8,28.1c1.5,6.8,3-3.6,4.4-7.6c1.1-3.4,3.5-6,4.7-4.6c0.1-4,0.3-8.1,0.5-12.2
		C82.3,110.5,85.8,102,87.7,98.2z"/>
	<path id="XMLID_197_" class="st22" d="M215.7,127.4c-2.5-25.5-6.2-28.7-8.6-31.7c-12-11.4-34.4-16.2-58.8-16.2
		c-39.7,0-55,13-57.8,16c-1.6,1.8-2.4,2.4-2.9,2.5c-1.9,3.8-5.5,12.4-4.9,20.1c0.1-1.8,0.2-3.7,0.4-5.6
		c1.9-25.2,43.4-31.8,65.2-31.8c6.6,0,23.6,0.5,39,5.7c19.9,6.7,24.8,17.5,25.4,25.2l0.3,3.6c1.3,16.3,2.5,31.8-0.9,52.6l1.2-0.2
		c0,0,2.5-26.2,2.5-33C215.9,132.2,215.8,129.7,215.7,127.4z"/>
	<path id="XMLID_198_" class="st31" d="M88.9,186.1l-0.4-1.6c-0.4-1.7-0.9-3.4-1.2-5c-3.6-7.3-7.6-13.6-8.3-23.4
		c-0.7-8.9,0.2-19.3,0.9-24.9c-0.8,0.9-1.6,2.3-2.1,3.8c-1.4,4.1-2.9,14.5-4.4,7.6c-1.5-6.8-2.1-13.6,0.8-28.1
		c1-5.3,2.4-9.1,3.7-11.7c1.6-4.3,4.1-8.9,5.7-11.9c-9.9,11.7-13.6,27.8-13.6,46.1c0,21.4,1.5,31.7,5.3,43.2
		c1.7,2.3,3.6,5.5,4.6,9.3c0.8,3,2.5,7.4,4.8,12c-1.6-4.4-4-11.4-4.6-14.9c-0.8-5.2-1.1-7.2,0.2-6.5c1.2,0.8,1.8,0.3,2.8,2.1
		c1,1.7,1.5,2.3,2.2,3c0.8,0.8,1.7,1.7,2.2,2.2c0.5,0.5,1.1,0.9,2.3,4.9c1,3.5,3.3,10.8,5.1,12.3C92.4,199.6,90.8,193.3,88.9,186.1z
		"/>
	
		<linearGradient id="XMLID_29_" gradientUnits="userSpaceOnUse" x1="-315.0426" y1="26.9359" x2="-314.5005" y2="26.9359" gradientTransform="matrix(-14.0944 68.3657 68.3657 14.0944 -6192.8037 21337.4629)">
		<stop  offset="0" style="stop-color:#5C595A"/>
		<stop  offset="5.617980e-03" style="stop-color:#5C595A"/>
		<stop  offset="8.045499e-02" style="stop-color:#5A5758"/>
		<stop  offset="0.1074" style="stop-color:#535151"/>
		<stop  offset="0.1266" style="stop-color:#484545"/>
		<stop  offset="0.1404" style="stop-color:#393637"/>
		<stop  offset="0.3144" style="stop-color:#3D393A"/>
		<stop  offset="0.4554" style="stop-color:#474344"/>
		<stop  offset="0.5849" style="stop-color:#575455"/>
		<stop  offset="0.7074" style="stop-color:#6F6C6D"/>
		<stop  offset="0.8252" style="stop-color:#8D8B8C"/>
		<stop  offset="0.9377" style="stop-color:#B2B1B1"/>
		<stop  offset="0.9663" style="stop-color:#BDBBBC"/>
		<stop  offset="1" style="stop-color:#BDBBBC"/>
	</linearGradient>
	<path id="XMLID_199_" class="st32" d="M89.6,192.5c-1.1-4-1.8-4.4-2.3-4.9c-0.5-0.5-1.5-1.5-2.2-2.2c-0.8-0.8-1.2-1.2-2.2-3
		c-1-1.7-1.5-1.3-2.8-2.1c-1.2-0.8-1,1.2-0.2,6.5c0.5,3.4,3,10.5,4.6,14.9c1.5,3,3.2,6,5,8.8c-1.6-3.3-3.6-7.6-3.8-8.8
		c-0.5-2-0.7-2.9,0.9-2c1.5,0.9,0.8,0.1,3,1.6c2.2,1.5,2.1,1.3,2.6,1.8c0.3,0.3,0.7-0.1,1.1,0.4l0.1-0.7
		C91.9,200,90.3,195.1,89.6,192.5z"/>
	
		<linearGradient id="XMLID_30_" gradientUnits="userSpaceOnUse" x1="-300.4894" y1="-27.8261" x2="-299.9474" y2="-27.8261" gradientTransform="matrix(4.3851 -3.6537 -3.6537 -4.3851 1318.2367 -1000.8218)">
		<stop  offset="0" style="stop-color:#5C595A"/>
		<stop  offset="5.617980e-03" style="stop-color:#5C595A"/>
		<stop  offset="8.045499e-02" style="stop-color:#5A5758"/>
		<stop  offset="0.1074" style="stop-color:#535151"/>
		<stop  offset="0.1266" style="stop-color:#484545"/>
		<stop  offset="0.1404" style="stop-color:#393637"/>
		<stop  offset="0.3144" style="stop-color:#3D393A"/>
		<stop  offset="0.4554" style="stop-color:#474344"/>
		<stop  offset="0.5849" style="stop-color:#575455"/>
		<stop  offset="0.7074" style="stop-color:#6F6C6D"/>
		<stop  offset="0.8252" style="stop-color:#8D8B8C"/>
		<stop  offset="0.9377" style="stop-color:#B2B1B1"/>
		<stop  offset="0.9663" style="stop-color:#BDBBBC"/>
		<stop  offset="1" style="stop-color:#BDBBBC"/>
	</linearGradient>
	<path id="XMLID_200_" class="st33" d="M118.6,223.6c-13.6-3.3-19.8-9.5-23.9-18.8c-0.4-0.3-0.9-1-1.4-1.9l-0.1,0.7
		c0.2,0.2,0.5,0.7,0.9,1.6c0.9,2.5,4.4,16.9,29.7,19.6C122,224.3,120.3,224,118.6,223.6z"/>
	<path id="XMLID_201_" class="st34" d="M94.7,205L94.7,205c-4.2-9.3-7.6-20.3-10.2-32c-2.6-12.1-4-24.4-4-35.4
		c0-14.3,1.4-21.4,2.6-24.7l0.1-0.1l0.1,0.1c-1.2,3.4-2.6,10.4-2.6,24.7c0,21.7,5.5,48.1,14.1,67.3L94.7,205L94.7,205z"/>
	<path id="XMLID_204_" class="st35" d="M148.3,223.3c-10.4,0-20.1-1.1-28.9-3.3c-19.1-4.7-22-15.4-27-34.9l-0.4-1.6
		c-6.7-25.6-6.9-46.8-5.1-70.7c0.4-5.3,3-10,7.7-14c4.1-3.5,9.6-6.4,16.6-8.7c12.6-4.2,27.5-5.7,37.2-5.7c6.5,0,23,0.5,37.8,5.6
		c6.7,2.3,11.9,5.1,15.8,8.5c4.4,3.8,6.8,8.5,7.2,13.6c0.1,1.2,0.2,2.4,0.3,3.6c1.6,20.8,3,38.8-4.3,67.9
		c-3.1,12.4-5.9,23.1-12.7,29.3C184.1,220.5,161.5,223.3,148.3,223.3z M148.4,84.6c-9.7,0-24.6,1.5-37.1,5.7
		c-15.1,5-23.5,12.8-24.2,22.6c-1.8,23.9-1.6,45,5.1,70.6l0.4,1.6c5,19.4,7.9,30.1,26.9,34.7c8.8,2.2,18.6,3.3,28.9,3.3
		c13.1,0,35.6-2.8,44-10.3c6.8-6.2,9.5-16.9,12.6-29.3c7.4-29,6-47,4.3-67.8c-0.1-1.2-0.2-2.4-0.3-3.6c-0.8-9.6-8.4-17.1-22.8-22
		C171.4,85.2,154.8,84.6,148.4,84.6z"/>
	<path id="XMLID_205_" class="st34" d="M210.3,103.3c-1.2-2.3-2.9-4.6-5.3-6.8c0.4,0.7,0.8,1.3,1.1,2
		C207.9,100.1,209.2,101.8,210.3,103.3z"/>
	
		<linearGradient id="XMLID_31_" gradientUnits="userSpaceOnUse" x1="-311.6599" y1="18.4326" x2="-311.1179" y2="18.4326" gradientTransform="matrix(46.01 4.5355 4.5355 -46.01 14393.5381 2414.9199)">
		<stop  offset="0" style="stop-color:#E9E8E8"/>
		<stop  offset="5.617980e-03" style="stop-color:#E9E8E8"/>
		<stop  offset="0.2933" style="stop-color:#BFBEBF"/>
		<stop  offset="0.5994" style="stop-color:#9A9999"/>
		<stop  offset="0.8459" style="stop-color:#838182"/>
		<stop  offset="1" style="stop-color:#7B7979"/>
	</linearGradient>
	<path id="XMLID_206_" class="st36" d="M201.4,197c-2.2,6.7-4.8,12.1-9,15.9c-8.5,7.7-31.7,10.4-44,10.4c-12.2,0-22-1.6-28.9-3.3
		c-19.6-4.8-22-15.8-27.4-36.4c-7-26.9-6.7-48.7-5.1-70.6c1.7-22.7,42.6-28.4,61.5-28.4c10.4,0,24.5,1.3,36.5,5.1
		c-7.5-2.9-19-5.9-35.5-5.9c-24.9,0-39.2,4.3-48.2,8.8c-5,2.4-10.2,5.4-13,10.5c-3.9,7.2-5.1,18.2-5.1,28.7
		c0,14.2,2.4,31.7,2.4,31.7c2.7,13.4,4.9,24.2,8.2,33.5c3.4,9.3,5.5,18.6,19.4,22.7s20.7,5,37.3,5c15.1,0,32.4-4,41.1-9.7
		c1-0.7,1.8-1.4,2.6-2.2c-1.6,1.4-2.7,1.6-2.7,1.6s1.1-0.3,2.7-1.6c1-1,1.8-2.2,2.5-3.5C198.4,206.4,200.3,202.3,201.4,197z"/>
	<path id="XMLID_207_" class="st9" d="M191.1,89c6.7,2.5,11.5,6,15.1,9.4c-0.3-0.7-0.7-1.4-1.1-2c-3.8-3.6-9.5-7-17.6-9.8
		c-15.3-5.2-32.4-5.7-39-5.7c-14.1,0-36.6,2.8-51.1,11.7c20.1-8.7,38.9-10.6,46.9-10.6C156.5,82,173.2,82.3,191.1,89z"/>
	<path id="XMLID_208_" class="st31" d="M213.1,115.4l-0.3-3.6c-0.2-2.6-0.9-5.6-2.5-8.6c-1.1-1.5-2.4-3.1-4.2-4.8
		c4.1,8,4.4,17.2,5.3,24c1,8.7,2,24.1,1,33c-1,8.9-4.1,22.2-8.9,39.7c-3,10.7-6.8,15.5-9.2,17.6c-0.8,0.8-1.6,1.5-2.6,2.2
		c-8.7,5.6-26,9.7-41.1,9.7c-16.7,0-23.5-1-37.3-5c-13.9-4-16-13.4-19.4-22.7c-3.4-9.3-5.5-20-8.2-33.5c0,0-2.4-17.5-2.4-31.7
		c0-2.9,0.1-5.9,0.3-8.8l-0.7-3.8c-1.3,21.7-0.5,41.6,5.6,65.3l0.4,1.6c1.9,7.3,3.5,13.6,5.9,18.8c4.1,9.2,10.2,15.4,23.8,18.7
		c9.2,2.2,19.2,3.4,29.8,3.4c11.8,0,36.6-2.4,46.5-11.3c0.5-0.5,1-1,1.5-1.5c3.7-4,6.2-9.1,8.1-14.9c1.6-4.6,2.8-9.5,4.2-14.8
		c1.5-5.9,2.6-11.3,3.5-16.5C215.6,147.2,214.4,131.7,213.1,115.4z"/>
	
		<linearGradient id="XMLID_32_" gradientUnits="userSpaceOnUse" x1="-315.8615" y1="21.6906" x2="-315.3192" y2="21.6906" gradientTransform="matrix(239.7912 0 0 -239.7912 75823.5391 5348.5752)">
		<stop  offset="0" style="stop-color:#918F8F"/>
		<stop  offset="5.617980e-03" style="stop-color:#918F8F"/>
		<stop  offset="0.2933" style="stop-color:#676565"/>
		<stop  offset="0.5994" style="stop-color:#423F40"/>
		<stop  offset="0.8459" style="stop-color:#2B2829"/>
		<stop  offset="1" style="stop-color:#231F20"/>
	</linearGradient>
	<path id="XMLID_209_" class="st37" d="M88.2,103.2c2.8-5,8-8,13-10.5c9-4.4,23.3-8.8,48.2-8.8c16.4,0,28,2.9,35.5,5.9
		c12.9,4.1,23.4,11.1,24.2,22.4c1.7,21.9,3.7,40.7-4.1,71.4c-1.2,4.9-2.4,9.3-3.7,13.3c-1.1,5.4-3,9.5-4.6,12.3
		c-0.8,1.3-1.6,2.5-2.5,3.5c2.5-2.2,6.3-7,9.2-17.6c4.9-17.5,7.9-30.8,8.9-39.7c1-8.9,0-24.3-1-33c-0.8-6.7-1.2-15.9-5.3-24
		c-3.5-3.4-8.3-6.9-15.1-9.4c-17.9-6.8-34.6-7-46.9-7c-8,0-26.8,1.9-46.9,10.6c-7.9,4.8-13.4,11.3-14,20.1c0,0.1,0,0.1,0,0.2
		c-0.2,2.2-0.3,4.3-0.4,6.4l0.7,3.8C84,115.5,85.4,108.3,88.2,103.2z"/>
	<path id="XMLID_212_" class="st34" d="M148.3,227c-10.6,0-20.7-1.1-29.8-3.4c-21.3-5.2-24.5-17.3-29.8-37.5l-0.4-1.6
		c-6.8-26.1-7-47.6-5.2-71.9c1.9-25.2,43.5-31.9,65.3-31.9c6.6,0,23.6,0.5,39,5.8c19.9,6.8,24.8,17.5,25.4,25.3l0.3,3.6
		c1.6,20.3,3.1,39.5-4.4,69.1c-3.3,13-6.1,24.2-13.8,31.2C185,224.7,160.2,227,148.3,227z M83.2,112.7h0.1
		c-1.8,24.2-1.6,45.8,5.2,71.8l0.4,1.6c5.3,20.1,8.4,32.3,29.6,37.4c9.2,2.2,19.1,3.4,29.8,3.4c11.8,0,36.6-2.3,46.5-11.3
		c7.6-6.9,10.5-18.1,13.8-31.1c7.5-29.6,6-48.8,4.4-69l-0.3-3.6c-0.6-7.8-5.5-18.4-25.3-25.2c-15.3-5.2-32.4-5.7-39-5.7
		c-21.7,0-63.2,6.6-65,31.7L83.2,112.7z"/>
	<polygon id="XMLID_213_" class="st38" points="198.9,108.9 220.8,97.8 214.1,119.8 222.7,98.3 229,118.2 224,98 235.9,101.9 
		224.5,96.7 230.7,93 223.6,95.4 227,87.8 222,94.6 214.6,81.2 219.6,94 214.2,89.9 219,94.6 204,90.3 218.3,95.3 210.4,96.6 
		217.7,96.6 212,97.9 218.2,97.3 	"/>
	<polygon id="XMLID_214_" class="st39" points="121.4,160.6 121.4,151.6 113.6,151.6 113.7,128.8 123.8,128.8 123.8,119.6 
		102.7,119.6 104.6,189.7 113.9,189.7 113.6,160.6 	"/>
	<polygon id="XMLID_215_" class="st39" points="127.4,119.6 128.6,189.7 138.2,189.7 138.4,119.6 	"/>
	<polygon id="XMLID_216_" class="st39" points="188.9,189.7 190.8,128.4 198.4,128.4 198.3,119.6 172.3,119.6 172.3,128.4 
		179.8,128.4 179.6,189.7 	"/>
	<path id="XMLID_219_" class="st39" d="M152.8,152l0.1-23.8h5.4c2.4,5.3,4,12.3,5.2,23.8H152.8z M144.3,189.7h0.9h6.9h1l0.1-29h10.6
		c0.8,5.1,1,20.9,1.1,29h0.9h6.9h0.8c0.8-35.8-1.7-56-8.7-70.1h-21.4L144.3,189.7z"/>
	
		<radialGradient id="XMLID_33_" cx="-314.5655" cy="26.0817" r="0.8766" gradientTransform="matrix(88.4684 0 0 64.6448 27981.332 -1524.8661)" gradientUnits="userSpaceOnUse">
		<stop  offset="0" style="stop-color:#FFFFFF"/>
		<stop  offset="0.2463" style="stop-color:#FCFCFC"/>
		<stop  offset="0.4254" style="stop-color:#F3F3F3"/>
		<stop  offset="0.5832" style="stop-color:#E3E3E3"/>
		<stop  offset="0.7288" style="stop-color:#CDCCCD"/>
		<stop  offset="0.8646" style="stop-color:#B1B0B1"/>
		<stop  offset="0.9937" style="stop-color:#8F8D8E"/>
		<stop  offset="1" style="stop-color:#8D8B8C"/>
	</radialGradient>
	<polygon id="XMLID_220_" class="st40" points="122.5,150.3 114.8,150.3 114.8,127.5 125,127.5 124.9,118.4 103.8,118.4 
		105.7,188.4 114.9,188.4 114.8,159.4 122.5,159.4 	"/>
	
		<radialGradient id="XMLID_34_" cx="-314.5705" cy="25.881" r="0.8719" gradientTransform="matrix(88.4684 0 0 64.6448 27981.332 -1524.8661)" gradientUnits="userSpaceOnUse">
		<stop  offset="0" style="stop-color:#FFFFFF"/>
		<stop  offset="0.2463" style="stop-color:#FCFCFC"/>
		<stop  offset="0.4254" style="stop-color:#F3F3F3"/>
		<stop  offset="0.5832" style="stop-color:#E3E3E3"/>
		<stop  offset="0.7288" style="stop-color:#CDCCCD"/>
		<stop  offset="0.8646" style="stop-color:#B1B0B1"/>
		<stop  offset="0.9937" style="stop-color:#8F8D8E"/>
		<stop  offset="1" style="stop-color:#8D8B8C"/>
	</radialGradient>
	<polygon id="XMLID_221_" class="st41" points="139.6,118.4 128.6,118.4 129.7,188.4 139.3,188.4 	"/>
	
		<radialGradient id="XMLID_35_" cx="-314.575" cy="26.0222" r="0.9385" gradientTransform="matrix(88.4672 0 0 64.644 27980.9512 -1524.8463)" gradientUnits="userSpaceOnUse">
		<stop  offset="0" style="stop-color:#FFFFFF"/>
		<stop  offset="0.2463" style="stop-color:#FCFCFC"/>
		<stop  offset="0.4254" style="stop-color:#F3F3F3"/>
		<stop  offset="0.5832" style="stop-color:#E3E3E3"/>
		<stop  offset="0.7288" style="stop-color:#CDCCCD"/>
		<stop  offset="0.8646" style="stop-color:#B1B0B1"/>
		<stop  offset="0.9937" style="stop-color:#8F8D8E"/>
		<stop  offset="1" style="stop-color:#8D8B8C"/>
	</radialGradient>
	<polygon id="XMLID_222_" class="st42" points="180.9,188.4 190.2,188.4 192.2,127.2 199.7,127.2 199.6,118.4 173.5,118.4 
		173.5,127.2 181.1,127.2 	"/>
	
		<radialGradient id="XMLID_36_" cx="-314.5711" cy="25.9615" r="0.9609" gradientTransform="matrix(88.4659 0 0 64.643 27980.5371 -1524.8265)" gradientUnits="userSpaceOnUse">
		<stop  offset="0" style="stop-color:#FFFFFF"/>
		<stop  offset="0.2463" style="stop-color:#FCFCFC"/>
		<stop  offset="0.4254" style="stop-color:#F3F3F3"/>
		<stop  offset="0.5832" style="stop-color:#E3E3E3"/>
		<stop  offset="0.7288" style="stop-color:#CDCCCD"/>
		<stop  offset="0.8646" style="stop-color:#B1B0B1"/>
		<stop  offset="0.9937" style="stop-color:#8F8D8E"/>
		<stop  offset="1" style="stop-color:#8D8B8C"/>
	</radialGradient>
	<path id="XMLID_225_" class="st43" d="M154,150.8l0.1-23.8h5.4c2.4,5.3,4,12.3,5.2,23.8L154,150.8L154,150.8z M145.5,188.4h0.9h6.9
		h1l0.1-29h10.6c0.8,5.1,1,20.9,1.1,29h0.9h6.9h0.8c0.8-35.8-1.7-56-8.7-70.1h-21.5L145.5,188.4z"/>
</g>
</svg>
