<?xml version="1.0" encoding="utf-8"?>
<!-- Generator: Adobe Illustrator 21.0.2, SVG Export Plug-In . SVG Version: 6.00 Build 0)  -->
<svg version="1.1" id="Layer_1" xmlns="http://www.w3.org/2000/svg" xmlns:xlink="http://www.w3.org/1999/xlink" x="0px" y="0px"
	 viewBox="0 0 300 300" style="enable-background:new 0 0 300 300;" xml:space="preserve">
<style type="text/css">
	.st0{fill:url(#path3558_1_);}
	.st1{fill:url(#path3580_1_);}
	.st2{fill:url(#path3602_1_);}
	.st3{fill:url(#path3624_1_);}
	.st4{fill:url(#path3646_1_);}
	.st5{fill:url(#path3668_1_);}
	.st6{fill:url(#path3690_1_);}
	.st7{fill:url(#path3742_1_);}
	.st8{fill:url(#path3764_1_);}
	.st9{fill:url(#path3786_1_);}
	.st10{fill:url(#path3808_1_);}
	.st11{fill:url(#path3830_1_);}
	.st12{fill:url(#path3852_1_);}
	.st13{fill:url(#path3874_1_);}
	.st14{fill:url(#path3896_1_);}
	.st15{fill:url(#path3918_1_);}
	.st16{fill:url(#path3940_1_);}
	.st17{fill:url(#path3962_1_);}
	.st18{fill:url(#path3984_1_);}
	.st19{fill:url(#path4028_1_);}
	.st20{fill:url(#path4050_1_);}
	.st21{fill:url(#path4072_1_);}
	.st22{fill:url(#path4094_1_);}
	.st23{fill:url(#path4180_1_);}
	.st24{fill:url(#path4206_1_);}
	.st25{fill:url(#path4232_1_);}
</style>
<g>
	
		<radialGradient id="path3558_1_" cx="-954.5267" cy="324.6444" r="1.0153" gradientTransform="matrix(647.6554 0 0 -711.8472 618353.25 231894.6406)" gradientUnits="userSpaceOnUse">
		<stop  offset="0" style="stop-color:#00050D"/>
		<stop  offset="0.7" style="stop-color:#051125"/>
		<stop  offset="0.9045" style="stop-color:#173E7E"/>
		<stop  offset="0.955" style="stop-color:#4CA9E3"/>
		<stop  offset="1" style="stop-color:#4CA9E3"/>
	</radialGradient>
	<path id="path3558" class="st0" d="M0,151.8c0,34,67.1,61.7,150,61.7l0,0c82.8,0,150-27.6,150-61.7l0,0c0-34-67.1-61.7-150-61.7
		l0,0C67.2,90,0,117.7,0,151.8"/>
	
		<linearGradient id="path3580_1_" gradientUnits="userSpaceOnUse" x1="-963.4854" y1="317.6551" x2="-962.3408" y2="317.6551" gradientTransform="matrix(0 -114.3202 -114.3202 0 36464.1406 -109928.2422)">
		<stop  offset="0" style="stop-color:#08142E"/>
		<stop  offset="0.809" style="stop-color:#17326E"/>
		<stop  offset="1" style="stop-color:#0D69A9"/>
	</linearGradient>
	<path id="path3580" class="st1" d="M11.3,151.8c0,2.3,0.4,4.6,1.3,6.9l0,0c-0.3-1.4-0.5-3-0.5-4.5l0,0c0-28.3,62.1-51.2,138.7-51.2
		l0,0c70.5,0,128.6,19.3,137.5,44.6l0,0c-5.9-26.4-65.5-47.2-138.2-47.2l0,0C73.5,100.3,11.3,123.3,11.3,151.8"/>
	
		<linearGradient id="path3602_1_" gradientUnits="userSpaceOnUse" x1="-963.4846" y1="317.6552" x2="-962.3401" y2="317.6552" gradientTransform="matrix(0 -114.3306 -114.3306 0 36469.3789 -109938.1641)">
		<stop  offset="0" style="stop-color:#08142E"/>
		<stop  offset="0.809" style="stop-color:#17326E"/>
		<stop  offset="1" style="stop-color:#0D69A9"/>
	</linearGradient>
	<path id="path3602" class="st2" d="M293.7,151.8c0,31.2-64.4,56.4-143.7,56.4l0,0c-70.6,0-129.4-20.1-141.4-46.3l0,0
		c9.2,27.4,69.5,48.6,142.4,48.6l0,0c79.4,0,143.7-25.1,143.7-55.8l0,0c0-3-0.8-6.2-1.9-9.1l0,0
		C293.3,147.4,293.7,149.6,293.7,151.8"/>
	
		<linearGradient id="path3624_1_" gradientUnits="userSpaceOnUse" x1="-966.7057" y1="313.9507" x2="-965.6904" y2="313.9507" gradientTransform="matrix(0 -79.21 -79.21 0 25044.0742 -76382.5469)">
		<stop  offset="0" style="stop-color:#08142E"/>
		<stop  offset="0.809" style="stop-color:#17326E"/>
		<stop  offset="1" style="stop-color:#0D69A9"/>
	</linearGradient>
	<path id="path3624" class="st3" d="M176.7,156.6c-3.2,3.3-3.5,7.7-1.3,9.6l0,0c0.8,0.8,1.7,1,2.6,1.2l0,0c-1.4-1.7-2-5.1-0.3-7.8
		l0,0c-0.3-0.8-0.4-1.7-0.3-2.7l0,0c0-0.3-0.1-0.4-0.3-0.4l0,0C177,156.4,176.9,156.5,176.7,156.6"/>
	
		<linearGradient id="path3646_1_" gradientUnits="userSpaceOnUse" x1="-966.5651" y1="314.1027" x2="-965.5497" y2="314.1027" gradientTransform="matrix(0 -80.2656 -80.2656 0 25422.0449 -77391.3594)">
		<stop  offset="0" style="stop-color:#08142E"/>
		<stop  offset="0.809" style="stop-color:#17326E"/>
		<stop  offset="1" style="stop-color:#0D69A9"/>
	</linearGradient>
	<path id="path3646" class="st4" d="M210,163.8c0,0.5,0.3,1.4,0.3,2.2l0,0c0.3-0.3,0.3-0.6,0.5-1l0,0c0.1-0.3,0.1-0.3-0.1-0.4l0,0
		C210.4,164.3,210,164,210,163.8L210,163.8C209.9,163.8,209.9,163.8,210,163.8L210,163.8L210,163.8L210,163.8z"/>
	
		<linearGradient id="path3668_1_" gradientUnits="userSpaceOnUse" x1="-967.5325" y1="313.0134" x2="-966.5172" y2="313.0134" gradientTransform="matrix(0 -73.5277 -73.5277 0 23230.4258 -70953.0625)">
		<stop  offset="0" style="stop-color:#08142E"/>
		<stop  offset="0.809" style="stop-color:#17326E"/>
		<stop  offset="1" style="stop-color:#0D69A9"/>
	</linearGradient>
	<path id="path3668" class="st5" d="M213.9,152.8c1.2,1,1.7,2.2,1.8,3.5l0,0c0,0.5,0.5,0.6,0.8,0.1l0,0c0.1-0.1,0.3-0.3,0.3-0.5l0,0
		c-0.1-0.1-0.3-0.3-0.3-0.4l0,0C216,155,215,153.8,213.9,152.8L213.9,152.8z"/>
	
		<linearGradient id="path3690_1_" gradientUnits="userSpaceOnUse" x1="-967.157" y1="313.4437" x2="-966.1417" y2="313.4437" gradientTransform="matrix(0 -76.0038 -76.0038 0 23993.3887 -73319.1562)">
		<stop  offset="0" style="stop-color:#08142E"/>
		<stop  offset="0.809" style="stop-color:#17326E"/>
		<stop  offset="1" style="stop-color:#0D69A9"/>
	</linearGradient>
	<path id="path3690" class="st6" d="M169.3,150.7c0.8,1.3,1.3,2.8,1.3,5l0,0c0,0.5,0.4,0.5,0.6,0.1l0,0c0.1-0.3,0.3-0.4,0.4-0.6l0,0
		C171,153.3,170,151.5,169.3,150.7z"/>
	
		<linearGradient id="path3742_1_" gradientUnits="userSpaceOnUse" x1="-966.5822" y1="314.084" x2="-965.5667" y2="314.084" gradientTransform="matrix(0 -80.1365 -80.1365 0 25372.4473 -77267.9844)">
		<stop  offset="0" style="stop-color:#08142E"/>
		<stop  offset="0.809" style="stop-color:#17326E"/>
		<stop  offset="1" style="stop-color:#0D69A9"/>
	</linearGradient>
	<path id="path3742" class="st7" d="M199,161.9c-3.1,3.7-4.6,7.4-4.6,11l0,0c0,1.3,0.5,2.9,1.7,3.5l0,0c0.4,0.3,0.8,0.3,1.2,0.4l0,0
		c-0.1-0.5-0.3-1-0.3-1.4l0,0c0-3.7,1.2-7.6,4.2-11.3l0,0c3.7-4.5,7.6-6.7,10.1-5.5l0,0c-0.1-1-0.6-1.8-1.7-2.3l0,0
		c-0.5-0.3-1-0.3-1.7-0.3l0,0C205.3,156,202,158.3,199,161.9"/>
	
		<linearGradient id="path3764_1_" gradientUnits="userSpaceOnUse" x1="-966.5843" y1="314.0963" x2="-965.5688" y2="314.0963" gradientTransform="matrix(0 -80.1195 -80.1195 0 25297.5879 -77251.7812)">
		<stop  offset="0" style="stop-color:#08142E"/>
		<stop  offset="0.809" style="stop-color:#17326E"/>
		<stop  offset="1" style="stop-color:#0D69A9"/>
	</linearGradient>
	<path id="path3764" class="st8" d="M138.7,154.1c-4.1,1.5-8.1,4-11,7.7l0,0c-3.2,4.2-4.1,9.5-1.9,12.5l0,0c0.5,0.8,1.2,1.3,1.8,1.5
		l0,0c-1.2-3.6-0.3-8.3,2.4-12l0,0c2.8-3.7,6-5.1,9.6-6.8l0,0c0.5-0.3,0.5-0.5,0.4-0.9l0,0c-0.3-0.8-0.6-2.6-0.8-2.9l0,0l0,0
		C139.4,153.7,139.2,153.9,138.7,154.1"/>
	
		<linearGradient id="path3786_1_" gradientUnits="userSpaceOnUse" x1="-966.6572" y1="314.0057" x2="-965.6418" y2="314.0057" gradientTransform="matrix(0 -79.5717 -79.5717 0 25153.6309 -76728.0859)">
		<stop  offset="0" style="stop-color:#08142E"/>
		<stop  offset="0.809" style="stop-color:#17326E"/>
		<stop  offset="1" style="stop-color:#0D69A9"/>
	</linearGradient>
	<path id="path3786" class="st9" d="M169.2,165.6c-3.7,5.8-7.3,11.4-11,17.3l0,0c-0.3,0.3-0.4,0.4-0.8,0.5l0,0c-2.3,0-4.9,0-7.4,0
		l0,0c-0.3,0-0.4-0.1-0.5-0.3l0,0c0.3,0.9,0.5,2.6,0.6,2.9l0,0c0.1,0.3,0.3,0.4,0.5,0.4l0,0c2.7,0,6.1,0,8.4,0l0,0
		c0.3,0,0.6-0.3,0.8-0.5l0,0c3.5-5.4,7.2-11.1,10.6-16.5l0,0c0.8,2.7,1.2,4,2.7,5.2l0,0c1.4,1.3,2.7,1.7,4.7,1.7l0,0
		c1.8,0,3.6-0.8,5.6-1.7l0,0c0.8-0.3,1.4-0.8,2-1.2l0,0c0-1,0.1-2,0.3-2.9l0,0c0-0.1-0.1-0.8-0.6-0.4l0,0c-1,0.8-2.2,1.4-3.8,2l0,0
		c-1.9,0.8-2.8,1-4.6,1l0,0c-2.2,0-4.2-1-5.6-3.2l0,0c-0.8-1.3-1.2-3.1-1.3-4.4l0,0c0-0.1-0.1-0.3-0.3-0.3l0,0
		C169.5,165.4,169.3,165.4,169.2,165.6"/>
	
		<linearGradient id="path3808_1_" gradientUnits="userSpaceOnUse" x1="-966.5796" y1="314.0866" x2="-965.5643" y2="314.0866" gradientTransform="matrix(0 -80.1548 -80.1548 0 25386.0879 -77285.5)">
		<stop  offset="0" style="stop-color:#08142E"/>
		<stop  offset="0.809" style="stop-color:#17326E"/>
		<stop  offset="1" style="stop-color:#0D69A9"/>
	</linearGradient>
	<path id="path3808" class="st10" d="M234.6,168.6c-3.7,4.5-7.6,8.6-11.5,11.5l0,0c-6,4.6-11.9,5.8-14.8,2.8l0,0
		c-1.2-1.2-1.7-2.7-1.7-4.1l0,0c0-0.8-0.4-0.8-0.8-0.4l0,0c-3.6,3.5-9.6,7.3-15.2,4.6l0,0c-2.7-1.4-4.2-4-4.9-6.8l0,0
		c0.3,2,0.8,5,1.7,6.8l0,0c0.6,1.3,2,2.7,2.9,3.1l0,0c5,2.4,12-0.3,16.5-4.6l0,0c0-0.1,0.1-0.1,0.1-0.1l0,0c0.3,0.8,0.5,1.7,0.5,1.8
		l0,0c0.3,1,0.8,1.9,1.3,2.4l0,0c3.2,3.6,9.6,1.9,16.5-3.3l0,0c3.8-2.9,6.7-5.9,10.1-10l0,0c0.1-0.3,0.1-0.4,0.1-0.8l0,0
		c-0.3-0.9-0.5-2.4-0.8-3.2l0,0C234.7,168.3,234.7,168.5,234.6,168.6 M185.6,176.1c0,0.1,0,0.3,0,0.3l0,0
		C185.6,176.3,185.6,176.2,185.6,176.1L185.6,176.1C185.6,176.2,185.6,176.1,185.6,176.1L185.6,176.1z"/>
	
		<linearGradient id="path3830_1_" gradientUnits="userSpaceOnUse" x1="-966.573" y1="314.0998" x2="-965.5576" y2="314.0998" gradientTransform="matrix(0 -80.2057 -80.2057 0 25375.5 -77334.125)">
		<stop  offset="0" style="stop-color:#08142E"/>
		<stop  offset="0.809" style="stop-color:#17326E"/>
		<stop  offset="1" style="stop-color:#0D69A9"/>
	</linearGradient>
	<path id="path3830" class="st11" d="M187.4,156.4c-0.3,2.2-1.5,4.2-3.6,5.1l0,0c-1.7,0.8-3.7,0.8-5.1-0.6l0,0
		c-0.4-0.4-0.8-0.9-1-1.4l0,0c0.4,1.7,0.8,2.8,1.2,3.6l0,0c1.3,2,3.7,2.6,6.1,1.2l0,0c1.8-1,3.5-3.2,3.2-6.5l0,0
		c-0.1-1.7-0.6-3.5-1.4-4.9l0,0C187.4,153.9,187.6,155.1,187.4,156.4"/>
	
		<linearGradient id="path3852_1_" gradientUnits="userSpaceOnUse" x1="-966.5823" y1="314.0801" x2="-965.5668" y2="314.0801" gradientTransform="matrix(0 -80.1351 -80.1351 0 25396.2148 -77266.7031)">
		<stop  offset="0" style="stop-color:#08142E"/>
		<stop  offset="0.809" style="stop-color:#17326E"/>
		<stop  offset="1" style="stop-color:#0D69A9"/>
	</linearGradient>
	<path id="path3852" class="st12" d="M239.5,135.4c-1.2,2-23.4,36-24.8,39.5l0,0c-0.4,1.2-0.5,1.9,0,2.6l0,0
		c0.5,0.6,1.2,0.8,1.9,0.8l0,0c0.1-0.4,0.3-0.9,0.4-1.4l0,0c1.4-3.6,22.4-35.2,23.4-37.2l0,0c0.1-0.3,0.1-0.4,0-0.5l0,0
		c-0.1-0.3-0.8-3.7-0.8-4l0,0C239.6,135.2,239.6,135.2,239.5,135.4"/>
	
		<linearGradient id="path3874_1_" gradientUnits="userSpaceOnUse" x1="-966.832" y1="313.8143" x2="-965.8167" y2="313.8143" gradientTransform="matrix(0 -78.2857 -78.2857 0 24715.8926 -75499.5078)">
		<stop  offset="0" style="stop-color:#08142E"/>
		<stop  offset="0.809" style="stop-color:#17326E"/>
		<stop  offset="1" style="stop-color:#0D69A9"/>
	</linearGradient>
	<path id="path3874" class="st13" d="M146.8,151.2c0.1,0.1,0.1,0.1,0.3,0.3l0,0c1.3,2,2,4.7,2.2,7.7l0,0c0.1,0.6,0.3,0.6,0.6,0.3
		l0,0c0.3-0.3,0.5-0.6,0.8-0.8l0,0c-0.4-1.5-1-2.9-1.7-4.2l0,0C148.7,153.8,147.8,152,146.8,151.2z"/>
	
		<linearGradient id="path3896_1_" gradientUnits="userSpaceOnUse" x1="-966.6539" y1="314.0198" x2="-965.6385" y2="314.0198" gradientTransform="matrix(0 -79.5963 -79.5963 0 25130.6445 -76751.6016)">
		<stop  offset="0" style="stop-color:#08142E"/>
		<stop  offset="0.809" style="stop-color:#17326E"/>
		<stop  offset="1" style="stop-color:#0D69A9"/>
	</linearGradient>
	<path id="path3896" class="st14" d="M158.2,157.9c-4.7,3.7-8.8,9.3-10.9,11.9l0,0c-1.3,1.5-2.3,3.7-5.5,7.2l0,0
		c-5,5.4-11.5,8.6-17.9,6.3l0,0c-3.5-1.2-6-4-6.9-7.4l0,0c-0.3-0.8-0.6-0.8-0.9-0.4l0,0c-1,1.3-3.2,3.2-4.9,4.4l0,0
		c-0.3,0.1-0.8,0.4-1.2,0.3l0,0c-0.4-0.3-1.7-2-1.9-2.6l0,0c0-0.1-0.1-0.1-0.1-0.3l0,0l0,0c0.4,2.2,0.5,2.6,1.2,3.6l0,0
		c0.8,1.2,1.4,1.9,1.5,2l0,0c0.4,0.3,0.8,0,1-0.1l0,0c1.3-0.8,4-2.7,5.1-4.2l0,0c0.3-0.3,0.8-0.1,0.8,0.3l0,0c0.5,1.5,1.3,2.7,1.9,4
		l0,0c0.8,1.4,2.6,2.8,4.7,3.5l0,0c2.8,0.8,6,0.9,10.1-0.6l0,0c3.2-1.3,6.7-3.7,9.3-6.7l0,0c3.2-3.5,4.2-5.6,5.5-7.2l0,0
		c2-2.6,5.2-7,9.7-10.9l0,0c1.5-1.3,3.2-2.2,4.4-1.8l0,0c0.6-1.7,0.3-2.6-0.3-3.1l0,0c-0.3-0.1-0.5-0.3-0.8-0.3l0,0
		C161.1,156,159.6,156.9,158.2,157.9"/>
	
		<linearGradient id="path3918_1_" gradientUnits="userSpaceOnUse" x1="-966.5826" y1="314.1103" x2="-965.5673" y2="314.1103" gradientTransform="matrix(0 -80.1316 -80.1316 0 25244.7344 -77263.3594)">
		<stop  offset="0" style="stop-color:#08142E"/>
		<stop  offset="0.809" style="stop-color:#17326E"/>
		<stop  offset="1" style="stop-color:#0D69A9"/>
	</linearGradient>
	<path id="path3918" class="st15" d="M78.2,153.4c-2.7,1.4-6,3.7-7.7,7l0,0c-1.3,2.7-1.5,5.8,0.4,8.8l0,0c0.3,0.3,0.3,0.5,0.5,0.8
		l0,0c-0.6-2.6,0.1-5.1,1-7.2l0,0c1.7-3.2,3.8-4.7,6.1-6.1l0,0c0.9-0.6,1.4-1.3,0.8-2.7l0,0c-0.3-0.4-0.3-1.3-0.4-1.9l0,0
		C79.1,152.5,78.8,153,78.2,153.4"/>
	
		<linearGradient id="path3940_1_" gradientUnits="userSpaceOnUse" x1="-966.5849" y1="314.0982" x2="-965.5696" y2="314.0982" gradientTransform="matrix(0 -80.1145 -80.1145 0 25274.998 -77246.9688)">
		<stop  offset="0" style="stop-color:#08142E"/>
		<stop  offset="0.809" style="stop-color:#17326E"/>
		<stop  offset="1" style="stop-color:#0D69A9"/>
	</linearGradient>
	<path id="path3940" class="st16" d="M98.7,121c-7.8,2.9-11.3,9.1-9.6,13.3l0,0c0.3,0.8,0.8,1.4,1.5,1.8l0,0
		c-0.5-3.8,2.3-10.1,9.9-12.5l0,0c9.9-3.2,20.9-1.3,29.7,0.8l0,0c1.3-0.8,2.3-1.3,3.3-1.9l0,0c0.5-0.3-0.1-0.6-0.3-0.6l0,0
		c-7-1.3-14.3-2.9-21.4-2.9l0,0C107.3,118.7,102.9,119.4,98.7,121"/>
	
		<linearGradient id="path3962_1_" gradientUnits="userSpaceOnUse" x1="-966.5823" y1="314.1022" x2="-965.5668" y2="314.1022" gradientTransform="matrix(0 -80.1344 -80.1344 0 25271.0547 -77266.0156)">
		<stop  offset="0" style="stop-color:#08142E"/>
		<stop  offset="0.809" style="stop-color:#17326E"/>
		<stop  offset="1" style="stop-color:#0D69A9"/>
	</linearGradient>
	<path id="path3962" class="st17" d="M131.4,144.2c-3.6,0.3-9.1,0.8-12.8,1.3l0,0c-0.9,0.1-1,0.3-1.3,0.6l0,0
		c-6,9.9-12.3,20.3-19.3,27.5l0,0c-7.6,7.6-13.7,9.6-20.3,9.6l0,0c-7.6,0.1-14.5-4.2-16.1-11.9l0,0c0.9,4.2,3.7,9.3,6.8,11.5l0,0
		c3.2,2.2,6.4,3.1,10.1,3.1l0,0c7.6,0.1,14.5-2.9,21.8-10.4l0,0c7-7.2,13.1-17,18.9-26.9l0,0c0.3-0.3,0.4-0.5,1.4-0.6l0,0
		c3.7-0.5,7.2-0.8,10.5-1l0,0c1-0.1,1.7-0.3,2.2,0.3l0,0c1.3,1.3,2.6,2.3,3.6,2.8l0,0c0.6,0,1.2,0.1,1.5,0.5l0,0
		c0.4-0.1,0.8-0.3,1-0.5l0,0c0.4-0.4,0.4-0.9,0.4-1.3l0,0c-0.1-0.8-0.4-2.4-0.6-2.8l0,0c0.3,0.3,0.1,0.8-0.3,1.3l0,0
		c-0.3,0.3-0.8,0.6-1.3,0.6l0,0c-0.4,0-0.8-0.3-1.3-0.4l0,0c-1.2-0.6-2.6-1.7-3.5-2.7l0,0c-0.3-0.3-0.4-0.4-0.8-0.4l0,0
		C131.7,144.1,131.6,144.2,131.4,144.2"/>
	
		<linearGradient id="path3984_1_" gradientUnits="userSpaceOnUse" x1="-966.577" y1="314.1096" x2="-965.5616" y2="314.1096" gradientTransform="matrix(0 -80.1746 -80.1746 0 25286.043 -77304.3984)">
		<stop  offset="0" style="stop-color:#08142E"/>
		<stop  offset="0.809" style="stop-color:#17326E"/>
		<stop  offset="1" style="stop-color:#0D69A9"/>
	</linearGradient>
	<path id="path3984" class="st18" d="M99.2,150.1c-0.8,0.6-2,0.5-2.6-0.3l0,0c-0.3-0.3-0.3-0.6-0.3-0.8l0,0
		c-0.1,1.3,0.4,3.2,0.8,3.7l0,0c0.4,0.8,1.7,1,2.7,0.3l0,0c2.2-1.7,4.4-2.7,6.7-3.2l0,0c0.6-0.8,1.3-1.7,1.9-2.7l0,0
		c0.1-0.1,0.1-0.3,0-0.3l0,0c0-0.1-0.1-0.1-0.3-0.1l0,0C104.9,147,102,148,99.2,150.1"/>
	
		<linearGradient id="path4028_1_" gradientUnits="userSpaceOnUse" x1="-966.5835" y1="314.0918" x2="-965.5682" y2="314.0918" gradientTransform="matrix(0 -80.1255 -80.1255 0 25324.5938 -77257.5156)">
		<stop  offset="0" style="stop-color:#08142E"/>
		<stop  offset="0.809" style="stop-color:#17326E"/>
		<stop  offset="1" style="stop-color:#0D69A9"/>
	</linearGradient>
	<path id="path4028" class="st19" d="M194.5,120.3c-0.1,2.2-1.8,4.2-6,6.5l0,0c-4.7,2.7-9.6,3.3-14.8,3.5l0,0
		c-12.5,0.1-24.2-4.7-36.1-7.4l0,0c0,0.5,0.1,1.2-0.3,1.5l0,0c-6.7,5-12.7,10-16.8,16.9l0,0c-0.1,0.3-0.1,0.3,0.3,0.3l0,0
		c1.2-0.1,2.2-0.1,3.2-0.3l0,0c3.7-5.8,7.6-9.1,13.6-13.6l0,0c0.4-0.3,0.9-0.6,0.8-1.8l0,0c12,2.7,21.2,7.2,36.9,7.2l0,0
		c4.6,0,11.1-1.5,14.7-3.7l0,0c4.1-2.4,5.1-4.2,5.2-6.1l0,0c0-0.6-0.1-1.5-0.3-1.9l0,0c-0.1-0.6-0.3-1.4-0.4-2l0,0
		C194.5,119.6,194.5,120,194.5,120.3"/>
	
		<linearGradient id="path4050_1_" gradientUnits="userSpaceOnUse" x1="-967.2016" y1="313.3999" x2="-966.1863" y2="313.3999" gradientTransform="matrix(0 -75.7006 -75.7006 0 23861.2617 -73030.0312)">
		<stop  offset="0" style="stop-color:#08142E"/>
		<stop  offset="0.809" style="stop-color:#17326E"/>
		<stop  offset="1" style="stop-color:#0D69A9"/>
	</linearGradient>
	<path id="path4050" class="st20" d="M136.4,135c-0.1,0.1-0.3,0.3-0.5,0.4l0,0c-1.3,1.3-1.5,2.8-1.4,4.1l0,0
		c0.1,0.5,0.3,0.6,0.5,0.5l0,0c0.3,0,0.5-0.1,0.8-0.3l0,0c0.1-0.8,0.4-1.3,1-1.9l0,0c0.5-0.4,1.2-0.6,1.7-0.5l0,0
		c0.5-0.9,0.6-2,0-2.6l0,0c-0.3-0.3-0.5-0.3-0.9-0.3l0,0C137.2,134.6,136.8,134.7,136.4,135"/>
	
		<linearGradient id="path4072_1_" gradientUnits="userSpaceOnUse" x1="-966.5824" y1="314.0969" x2="-965.5669" y2="314.0969" gradientTransform="matrix(0 -80.1342 -80.1342 0 25309.1855 -77265.8047)">
		<stop  offset="0" style="stop-color:#08142E"/>
		<stop  offset="0.809" style="stop-color:#17326E"/>
		<stop  offset="1" style="stop-color:#0D69A9"/>
	</linearGradient>
	<path id="path4072" class="st21" d="M141.2,139.2c-1.2,2.2-3.1,3.3-4.9,4l0,0c0,0-0.4,0.1-0.3,0.4l0,0c0,0.4,1.3,1.3,2.2,1.7l0,0
		c0.1,0,0.3-0.1,0.3-0.1l0,0c0.9-0.4,2.4-1.3,3.3-3.2l0,0c0.6-1.3,0.9-2.2,0.6-4.5l0,0c-0.3-1.5-0.5-2.9-0.9-3.6l0,0
		C142.4,135.6,142.1,137.7,141.2,139.2"/>
	
		<linearGradient id="path4094_1_" gradientUnits="userSpaceOnUse" x1="-966.582" y1="314.1062" x2="-965.5667" y2="314.1062" gradientTransform="matrix(0 -80.1372 -80.1372 0 25266.2363 -77268.6719)">
		<stop  offset="0" style="stop-color:#08142E"/>
		<stop  offset="0.809" style="stop-color:#17326E"/>
		<stop  offset="1" style="stop-color:#0D69A9"/>
	</linearGradient>
	<path id="path4094" class="st22" d="M107.9,129c0.3,0.5,0.3,1.4-0.3,2.4l0,0c-3.3,7.8-9.6,14-17.4,14.2l0,0
		c-4.6,0.1-8.1-2.2-9.7-5.6l0,0c1.3,2.7,3.7,5,5.8,6.3l0,0c1.7,1,3.7,1.7,6.1,1.5l0,0c8.1-0.3,14.1-6.9,16.1-12.5l0,0
		c0.5-1.5,0.1-3.2-0.1-4.2l0,0C108.3,130.6,108.1,129.7,107.9,129L107.9,129L107.9,129z"/>
	
		<linearGradient id="path4180_1_" gradientUnits="userSpaceOnUse" x1="-948.6972" y1="334.3022" x2="-947.5527" y2="334.3022" gradientTransform="matrix(0 114.9095 114.9095 0 -38264.4961 109100.1953)">
		<stop  offset="0" style="stop-color:#FFFFFF"/>
		<stop  offset="0.5522" style="stop-color:#FFFFFF"/>
		<stop  offset="0.691" style="stop-color:#FAFAFA"/>
		<stop  offset="0.8" style="stop-color:#D3D2D2"/>
		<stop  offset="1" style="stop-color:#BDBCBC"/>
	</linearGradient>
	<path id="path4180" class="st23" d="M6.3,151.8c0,31.2,64.4,56.4,143.7,56.4l0,0c79.4,0,143.7-25.2,143.7-56.4l0,0
		c0.1-31.2-64.1-56.3-143.6-56.3l0,0C70.6,95.5,6.3,120.6,6.3,151.8 M11.3,151.8c0-28.6,62.1-51.5,138.7-51.5l0,0
		c76.5,0,138.7,22.9,138.7,51.5l0,0c0,28.6-62.1,51.5-138.7,51.5l0,0C73.5,203.3,11.3,180.3,11.3,151.8"/>
	
		<linearGradient id="path4206_1_" gradientUnits="userSpaceOnUse" x1="-941.1348" y1="342.7471" x2="-940.1194" y2="342.7471" gradientTransform="matrix(0 56.9881 56.9881 0 -19358.6074 53764.1055)">
		<stop  offset="0" style="stop-color:#FFFFFF"/>
		<stop  offset="0.5522" style="stop-color:#FFFFFF"/>
		<stop  offset="0.691" style="stop-color:#EFEEEE"/>
		<stop  offset="0.8" style="stop-color:#E9E9E9"/>
		<stop  offset="1" style="stop-color:#D3D2D2"/>
	</linearGradient>
	<path id="path4206" class="st24" d="M231.3,134.9c-0.6,0-0.8,0.1-1.2,0.6l0,0c-0.9,1.7-11.6,17.8-13.6,20.9l0,0
		c-0.3,0.5-0.8,0.4-0.8-0.1l0,0c-0.3-1.8-1.8-4-4.4-5l0,0c-1.9-0.8-3.8-0.9-5.8-0.8l0,0c-3.6,0.5-6.7,2.3-9.5,4.5l0,0
		c-4.2,3.2-7.8,7.3-12.4,10.4l0,0c-2.6,1.7-6,3.2-8.3,0.9l0,0c-2.2-1.9-1.8-6.3,1.3-9.6l0,0c0.3-0.3,0.8-0.1,0.8,0.3l0,0
		c-0.3,1.5,0.1,3.1,1.3,4.1l0,0c1.4,1.3,3.5,1.4,5.1,0.6l0,0c2-1,3.2-2.9,3.6-5.1l0,0c0.5-3.5-2.2-6.4-5.4-6.7l0,0
		c-2.7-0.3-5.2,0.8-7.7,2.8l0,0c-1.3,1-1.9,1.8-3.1,3.3l0,0c-0.3,0.4-0.8,0.4-0.6-0.1l0,0c0.1-4.4-1.7-6.8-5.2-6.9l0,0
		c-2.8-0.1-5.8,1.4-8.1,3.3l0,0c-2.6,2-4.7,4.7-7.2,7.3l0,0c-0.3,0.3-0.6,0.3-0.6-0.3l0,0c-0.1-2.9-0.8-5.6-2.2-7.7l0,0
		c-0.5-0.8-1.5-1-2.3-0.6l0,0c-0.4,0.3-1.7,0.8-2.7,1.7l0,0c-0.5,0.4-0.8,1-0.5,1.7l0,0c1.3,4.4,1,9.2-0.8,13.4l0,0
		c-1.7,3.8-4.7,7.2-8.4,8.4l0,0c-2.4,0.8-5,0.4-6.5-1.7l0,0c-2.2-2.9-1.3-8.1,1.9-12.5l0,0c2.8-3.7,6.9-6.1,11-7.7l0,0
		c0.5-0.3,0.6-0.5,0.4-0.9l0,0c-0.3-0.8-0.6-1.7-0.8-2l0,0c-0.4-1-1.4-1.2-2.7-1l0,0c-2.9,0.3-5.6,1.3-8.3,2.7l0,0
		c-6.9,3.7-10.4,10.9-11.9,14.7l0,0c-0.8,1.8-1.3,2.9-2.2,4l0,0c-1.2,1.4-2.4,2.7-5,4.7l0,0c-0.3,0.3-0.4,0.6-0.3,1l0,0
		c0.3,0.5,1.5,2.3,1.9,2.6l0,0c0.4,0.3,0.9-0.1,1.2-0.3l0,0c1.7-1.3,3.8-3.1,4.9-4.4l0,0c0.3-0.4,0.8-0.3,0.9,0.4l0,0
		c0.9,3.5,3.5,6.1,6.9,7.4l0,0c6.3,2.2,12.9-0.9,17.9-6.3l0,0c3.2-3.5,4.2-5.6,5.5-7.2l0,0c2-2.6,6.1-8.2,10.9-11.9l0,0
		c1.7-1.3,3.8-2.3,4.9-1.7l0,0c0.8,0.5,1.2,1.8-0.3,4.2l0,0c-4.9,9-12,19.5-13.4,22l0,0c-0.3,0.4,0,0.8,0.4,0.8l0,0
		c2.6,0,5.1,0,7.4,0l0,0c0.4,0,0.6-0.3,0.8-0.5l0,0c3.7-5.9,7.3-11.5,11-17.3l0,0c0.3-0.3,0.4-0.1,0.4,0.1l0,0
		c0.1,1.3,0.4,3.2,1.3,4.4l0,0c1.4,2.2,3.5,3.2,5.6,3.2l0,0c1.8,0,2.7-0.3,4.6-1l0,0c1.7-0.6,2.8-1.3,3.8-2l0,0
		c0.6-0.4,0.8,0.3,0.6,0.4l0,0c-0.9,4.6,0.3,10.2,4.9,12.5l0,0c5.6,2.7,11.6-1.2,15.2-4.6l0,0c0.3-0.3,0.8-0.3,0.8,0.4l0,0
		c0.1,1.3,0.8,2.9,1.7,4.1l0,0c2.9,2.9,9,1.8,14.8-2.8l0,0c3.8-2.9,7.8-7.2,11.5-11.5l0,0c0.1-0.3,0.3-0.4,0-0.8l0,0
		c-0.5-0.6-1.3-1.3-1.9-1.7l0,0c-0.3-0.3-0.6-0.1-0.8,0l0,0c-3.7,3.6-7,7.6-11.9,10.9l0,0c-1.7,1.2-4.2,2-5.4,0.5l0,0
		c-0.4-0.6-0.4-1.4,0-2.6l0,0c1.4-3.6,23.8-37.5,24.8-39.5l0,0c0.3-0.3,0-0.6-0.4-0.6l0,0C236.8,134.9,233.7,134.9,231.3,134.9
		 M195.9,176.6c-1.2-0.6-1.7-2.2-1.7-3.5l0,0c0.1-3.7,1.7-7.4,4.6-11l0,0c3.7-4.5,7.7-6.8,10.4-5.6l0,0c2.7,1.3,1.8,4.5,0.6,7l0,0
		c-0.1,0.3-0.1,0.4,0,0.5l0,0c0,0.3,0.4,0.5,0.8,0.6l0,0c0.1,0,0.3,0.1,0.1,0.4l0,0c-0.9,2-1.8,3.2-3.1,5l0,0
		c-1.2,1.7-2.3,2.9-3.8,4.2l0,0c-1.7,1.4-4,2.9-6.1,2.9l0,0C197.2,177.1,196.5,176.8,195.9,176.6"/>
	
		<linearGradient id="path4232_1_" gradientUnits="userSpaceOnUse" x1="-945.288" y1="338.0676" x2="-944.2726" y2="338.0676" gradientTransform="matrix(0 79.0529 79.0529 0 -26597.0898 74836.375)">
		<stop  offset="0" style="stop-color:#FFFFFF"/>
		<stop  offset="0.5522" style="stop-color:#FFFFFF"/>
		<stop  offset="0.691" style="stop-color:#EFEEEE"/>
		<stop  offset="0.8" style="stop-color:#E9E9E9"/>
		<stop  offset="1" style="stop-color:#D3D2D2"/>
	</linearGradient>
	<path id="path4232" class="st25" d="M112.8,114.1c-2.2,0-4.2,0.1-6.4,0.3l0,0c-13.7,1.3-26.7,9-26.9,20.7l0,0
		c0,6,4.2,10.8,10.8,10.6l0,0c7.7-0.3,14-6.4,17.4-14.2l0,0c1.3-2.9-1.2-4.2-2.2-2.4l0,0c-1.9,3.1-4.7,5.4-7.7,6.9l0,0
		c-3.7,1.7-7.6,1.3-8.6-1.7l0,0c-1.7-4.2,1.8-10.4,9.6-13.3l0,0c11.3-4.2,23.2-1.4,34.6,0.8l0,0c0.3,0,0.8,0.3,0.3,0.6l0,0
		c-2,1.2-4.1,2-7.2,4.6l0,0c-2.2,1.9-5.1,4.5-7.4,7.2l0,0c-2.2,2.7-3.8,5.1-6,7.9l0,0c-0.3,0.4-0.6,0.4-0.6,0.4l0,0
		c-5.1,0.9-10.1,1.4-14.8,4.6l0,0c-0.9,0.6-1.3,1.8-0.8,2.7l0,0c0.5,0.8,1.7,0.9,2.6,0.3l0,0c2.8-2.2,5.8-3.2,9.2-3.2l0,0
		c0.1,0,0.3,0,0.3,0.1l0,0c0,0.1,0,0.3,0,0.3l0,0c-5.1,7-6.3,8.6-10.1,13.1l0,0c-1.9,2.2-3.8,4.2-6,6.1l0,0
		c-8.6,8.1-17.9,7.9-21.4,2.8l0,0c-2-3.1-1.7-6.1-0.4-8.8l0,0c1.7-3.2,4.9-5.6,7.6-7l0,0c1-0.5,1.3-1.8,0.3-2.9l0,0
		c-0.6-0.8-2.2-0.9-3.3-0.8l0,0c-3.6,0.6-7.7,3.3-10.2,6.7l0,0c-2.7,3.7-4.2,8.1-3.7,12.9l0,0c0.8,9,8.1,14,16.5,14l0,0
		c6.7-0.1,12.9-2,20.3-9.6l0,0c7-7.2,13.4-17.7,19.3-27.5l0,0c0.3-0.3,0.3-0.5,1.3-0.6l0,0c3.7-0.5,9.2-1,12.8-1.3l0,0
		c0.8,0,0.9,0,1.3,0.4l0,0c0.9,1.2,2.3,2.2,3.5,2.7l0,0c0.5,0.3,0.8,0.4,1.3,0.4l0,0c0.5,0,0.9-0.3,1.3-0.6l0,0
		c0.4-0.4,0.5-0.9,0.3-1.3l0,0c-0.3-0.4-2.7-1.7-2.7-2.2l0,0c-0.1-0.3,0.3-0.4,0.3-0.4l0,0c1.8-0.6,3.7-1.7,4.9-4l0,0
		c1.2-2.2,1.3-5.1-0.8-6.7l0,0c-1.8-1.4-4.6-1.3-6.7,0.8l0,0c-2.2,1.9-2.8,4.6-2.6,7.2l0,0c0,0.4,0,0.6-0.5,0.6l0,0
		c-3.2,0.3-6.4,0.3-10,0.5l0,0c-0.3,0-0.3-0.1-0.3-0.3l0,0c4.1-7,10.1-12,16.8-16.9l0,0c0.4-0.3,0.3-0.9,0.3-1.5l0,0
		c12,2.7,23.7,7.6,36.1,7.4l0,0c5.1,0,10.1-0.8,14.8-3.5l0,0c4.2-2.2,5.9-4.4,6-6.5l0,0c0.1-1.5-0.9-2.4-2.4-2.2l0,0
		c-12.5,2.9-24.7,2.8-37.2,1.3l0,0C140.7,117.7,127,114.1,112.8,114.1L112.8,114.1L112.8,114.1 M134.5,139.5
		c-0.3-1.3,0.3-3.2,1.7-4.4l0,0c0.8-0.6,1.7-0.8,2.2-0.3l0,0c0.8,0.6,0.3,2-0.3,2.9l0,0c-0.8,1.2-2,2-3.2,2.2l0,0h-0.1l0,0
		C134.8,140.1,134.5,140,134.5,139.5"/>
</g>
</svg>
