<?xml version="1.0" encoding="utf-8"?>
<!-- Generator: Adobe Illustrator 19.0.0, SVG Export Plug-In . SVG Version: 6.00 Build 0)  -->
<svg version="1.1" id="Layer_1" xmlns="http://www.w3.org/2000/svg" xmlns:xlink="http://www.w3.org/1999/xlink" x="0px" y="0px"
	 viewBox="-389 811 300 300" style="enable-background:new -389 811 300 300;" xml:space="preserve">
<style type="text/css">
	.st0{fill:url(#SVGID_1_);}
	.st1{fill:url(#SVGID_2_);}
	.st2{fill-rule:evenodd;clip-rule:evenodd;fill:#666666;}
	.st3{fill:#808080;}
	.st4{fill-rule:evenodd;clip-rule:evenodd;fill:url(#H_Bianca_2_);}
	.st5{fill:url(#SVGID_3_);}
	.st6{fill:#FFFFFF;}
	.st7{fill:#333333;}
	.st8{fill:#666666;}
	.st9{fill:url(#SVGID_4_);}
	.st10{fill:url(#SVGID_5_);}
	.st11{fill-rule:evenodd;clip-rule:evenodd;fill:url(#H_Bianca_3_);}
	.st12{fill:url(#SVGID_6_);}
	.st13{fill:url(#SVGID_7_);}
	.st14{fill:url(#SVGID_8_);}
</style>
<radialGradient id="SVGID_1_" cx="-273.7318" cy="969.4317" r="82.1121" gradientUnits="userSpaceOnUse">
	<stop  offset="0.164" style="stop-color:#FFFFFF"/>
	<stop  offset="0.378" style="stop-color:#CFCFCF"/>
	<stop  offset="0.8636" style="stop-color:#555555"/>
	<stop  offset="0.8972" style="stop-color:#4D4D4D"/>
</radialGradient>
<path class="st0" d="M-198.1,895.9c0,0-12.2,50-17,62.3c-4.9,12.3-7.4,18.1-25.2,18.1l0,0l0,0c-17.1,0-20.4-5.8-25.2-18.1
	c-4.9-12.3-17-62.3-17-62.3l-4.7-2.9c0,0,1.9,11.8,10.6,48.9c8.7,37.1,14.4,41.1,36.4,41.1l0,0c0,0,0,0,0,0c0,0,0,0,0,0h0
	c22,0,27.7-4,36.4-41.1c8.7-37.1,10.6-48.9,10.6-48.9L-198.1,895.9z"/>
<radialGradient id="SVGID_2_" cx="156.2539" cy="950.0859" r="90.7467" gradientTransform="matrix(-1 0 0 1 -176.5481 0)" gradientUnits="userSpaceOnUse">
	<stop  offset="0" style="stop-color:#FFFFFF"/>
	<stop  offset="0.1193" style="stop-color:#F9F9F9"/>
	<stop  offset="0.274" style="stop-color:#E9E9E9"/>
	<stop  offset="0.4483" style="stop-color:#CECECE"/>
	<stop  offset="0.637" style="stop-color:#A9A9A9"/>
	<stop  offset="0.8348" style="stop-color:#7A7A7A"/>
	<stop  offset="0.9995" style="stop-color:#4D4D4D"/>
</radialGradient>
<path class="st1" d="M-240.4,893.1l0-8.9h-8c0,0-50.7-1.3-69.7,8.4c-22,11.3-18.3,46.4-18.9,70.6l7.6-4.5l3.4-42.2
	c0,0,6-21.4,30.9-22.7C-270.2,892.6-240.4,893.1-240.4,893.1z"/>
<path class="st2" d="M-297.5,1028.2c6.5,2.1,7.2-0.1,7.2-0.1l6.6,1.1l10.5,0.8l4.5,1.1c0.7,1.4,18,1.2,18,1.2h10.3v4.2
	c-45.6-0.4-71.6-0.5-80.8-22.4c-6.8-16.2-8.6-56-8.6-67.6c0-14.2,0.5-24.8,3.1-32.9c2.7-5.2,5.9-8.1,7-9c2.1-1.7,8.2-5.4,8.2-5.4
	l-4.3,4.5c-14.4,9.9-9.4,59.9-5.4,90.5C-317.3,1025-304.1,1026.2-297.5,1028.2z"/>
<path class="st3" d="M-299.8,898l-0.2-0.4l0-1.5l5-2.4l4.3-1l3.9-0.6l4.1,2.5l0.2,0.5l-0.1,0.6c0,0-2.8-0.3-2.9-0.3
	c-0.1,0-5.1-0.1-5.1-0.1l-2.7,0.9L-299.8,898z"/>
<linearGradient id="H_Bianca_2_" gradientUnits="userSpaceOnUse" x1="77.8031" y1="951.3269" x2="126.1229" y2="971.6093" gradientTransform="matrix(-1 0 0 1 -176.5481 0)">
	<stop  offset="0" style="stop-color:#FFFFFF"/>
	<stop  offset="0.1193" style="stop-color:#F9F9F9"/>
	<stop  offset="0.274" style="stop-color:#E9E9E9"/>
	<stop  offset="0.4483" style="stop-color:#CECECE"/>
	<stop  offset="0.637" style="stop-color:#A9A9A9"/>
	<stop  offset="0.8348" style="stop-color:#7A7A7A"/>
	<stop  offset="0.9995" style="stop-color:#4D4D4D"/>
</linearGradient>
<path id="H_Bianca_4_" class="st4" d="M-240.4,983c-22,0-27.7-4-36.4-41.1c-8.7-37.1-10.6-48.9-10.6-48.9s-3.8,0.5-7.6,1.9
	c-3.8,1.4-4.8,3.1-4.8,3.1s-0.8,26.2,3.9,74.1c4.7,47.8,5.6,56,5.6,56s7.5,4.4,11.1,4.9c3.2,0.4,4.7,0.3,4.7,0.3s2.2-10.5,5.4-20.4
	c4.8-14.5,5.9-21.4,28.7-21.4V983z"/>
<radialGradient id="SVGID_3_" cx="80.9462" cy="1012.4201" r="19.0771" gradientTransform="matrix(-1 0 0 1 -176.5481 0)" gradientUnits="userSpaceOnUse">
	<stop  offset="0.164" style="stop-color:#FFFFFF"/>
	<stop  offset="0.378" style="stop-color:#CFCFCF"/>
	<stop  offset="0.8636" style="stop-color:#555555"/>
	<stop  offset="0.8972" style="stop-color:#4D4D4D"/>
</radialGradient>
<path class="st5" d="M-240.4,991.5v5.3c-10.4,0.1-13.1,0.8-17.5,4.5c-4.4,3.7-8.7,21.3-9.9,25.4c-1.1,4.1-1,4.4-1,4.4l-5.8,2.2
	c0,0,2.2-10.5,5.4-20.4C-264.4,998.4-263.3,991.5-240.4,991.5z"/>
<path class="st6" d="M-240.3,984.6c0,0-0.4,0-1.3,0c-0.4,0-0.9,0-1.5,0c-0.6,0-1.3,0-2-0.1c-1.5,0-3.4,0-5.7-0.3
	c-2.2-0.3-4.8-1-7.2-2.4c-2.5-1.4-4.8-3.4-6.7-5.8c-2-2.4-3.7-5.2-5.2-8.2c-3-6-5.1-12.8-6.8-19.6c-3.3-13.6-6.1-27.4-7.9-37.8
	c-1.8-10.4-2.7-17.3-2.7-17.3s1.1,6.9,3.2,17.2c2.1,10.3,5.3,24,9,37.5c1.9,6.7,4.1,13.4,7.1,19.1c1.5,2.9,3.2,5.5,5.1,7.6
	c1.9,2.2,4,3.9,6.2,5.1c2.2,1.2,4.4,1.7,6.4,1.9c2,0.2,3.8,0.2,5.4,0.2c0.8,0,1.4,0,2,0c0.6,0,1.1,0,1.5,0c0.8,0,1.3,0,1.3,0
	L-240.3,984.6z"/>
<path class="st7" d="M-240.4,1041.7h-5.5c0,0-60.5,1.8-73.4-12.1c-10.5-11.3-19.9-38.4-16.9-101c0,0-2.9,71.5,17.1,96.1
	c0,0,5,8.5,27.9,11.3c17.9,2.2,50.8,2.1,50.8,2.1V1041.7z"/>
<path class="st8" d="M-240.4,1035.5c0,0-4.5,0.1-12.3,0.2c-3.9,0.1-8.6,0.1-14.1,0.1c-5.4,0-11.6-0.2-18.3-0.7
	c-6.7-0.6-14-1.5-21.2-4.7c-7.3-2.9-13.3-9.6-15.9-17.7c-1.4-4-2.3-8.2-3.1-12.4c-0.8-4.2-1.4-8.6-2-12.9
	c-1.1-8.7-1.9-17.6-2.5-26.5c-0.3-4.5-0.5-8.9-0.6-13.4c0-4.4-0.1-8.9,0.1-13.3c0.2-4.4,0.5-8.8,1.1-13.1c0.7-4.3,1.7-8.5,3.6-12.4
	c1.8-3.9,4.8-7.2,8.2-9.5c3.4-2.4,7.2-3.9,10.9-5c7.4-2.2,14.7-3,21.4-3.5c6.7-0.5,12.8-0.7,18.3-0.8c5.4-0.1,10.2-0.2,14.1-0.1
	c7.8,0.1,12.3,0.2,12.3,0.2v0.1c0,0-4.5,0.1-12.3,0.3c-3.9,0.1-8.6,0.2-14.1,0.4c-5.4,0.2-11.5,0.5-18.2,1.2
	c-3.3,0.3-6.8,0.7-10.3,1.3c-3.5,0.6-7.2,1.3-10.8,2.4c-3.6,1.1-7.2,2.6-10.4,4.9c-3.2,2.3-5.9,5.3-7.7,8.9
	c-1.8,3.6-2.9,7.7-3.6,11.9c-0.7,4.2-1,8.5-1.2,12.9c-0.2,4.4-0.3,8.8-0.3,13.2c0,4.4,0.1,8.9,0.3,13.3c0.2,4.5,0.5,8.9,0.8,13.3
	c0.4,4.4,0.8,8.8,1.3,13.2c0.5,4.4,1.2,8.7,2.1,12.9c0.8,4.2,1.9,8.3,3.4,12.2c2.8,7.9,8.7,13.9,15.7,16.8c6.9,3,14.2,4,20.8,4.7
	c6.6,0.6,12.8,0.8,18.2,1c5.4,0.2,10.2,0.2,14.1,0.3c7.8,0.2,12.3,0.2,12.3,0.2V1035.5z"/>
<path class="st6" d="M-240.4,889.7c0,0-14.7-0.3-29.3,0.2c-7.3,0.2-14.7,0.6-20.1,1.2c-1.4,0.1-2.6,0.3-3.7,0.4
	c-1.1,0.1-2.1,0.3-2.9,0.4c-1.6,0.2-2.5,0.4-2.5,0.4s0.9-0.2,2.5-0.5c0.8-0.2,1.7-0.3,2.9-0.5c1.1-0.2,2.4-0.4,3.7-0.5
	c5.5-0.7,12.8-1.3,20.1-1.7c14.7-0.9,29.4-0.9,29.4-0.9L-240.4,889.7z"/>
<path d="M-240.4,890h-9.7c0,0-21.9-0.1-40.5,1.9c-18.6,2-26.1,6.7-30.6,11.8c-4.4,5.2-6.5,13.1-7.3,18.3c-0.7,5.2-1.9,16.9-1.2,30.9
	c0.7,14,1.9,35.4,5,49.3c3.1,13.8,4.7,11.5,5,11.2c0.2-0.4-2.2-10.6-3.2-17.1c-1-6.5-2.7-19-3.4-34.9c-0.7-16-0.6-33.7,2.1-43.5
	c2.5-9.2,8.2-17,20.1-19.7c0,0,3.8-1.4,4.2-0.4c0,0,2.1-3.6,13-5l4.4,2.6c0,0,0.3-0.3,2-0.4c1.6-0.2,15.2-1.8,30.2-1.7h10V890z"/>
<linearGradient id="SVGID_4_" gradientUnits="userSpaceOnUse" x1="63.8891" y1="889.9679" x2="134.9822" y2="889.9679" gradientTransform="matrix(-1 0 0 1 -176.5481 0)">
	<stop  offset="0" style="stop-color:#FFFFFF"/>
	<stop  offset="0.1486" style="stop-color:#F9F9F9"/>
	<stop  offset="0.3413" style="stop-color:#E9E9E9"/>
	<stop  offset="0.5583" style="stop-color:#CECECE"/>
	<stop  offset="0.7913" style="stop-color:#A9A9A9"/>
	<stop  offset="0.9995" style="stop-color:#828282"/>
</linearGradient>
<path class="st9" d="M-240.4,884.2c0,0-33.2,0.3-53.9,3.2c-9.3,1.5-12.9,4.8-17.2,8.4c0,0,11.5-7.9,71.1-7.9V884.2z"/>
<radialGradient id="SVGID_5_" cx="-148.0708" cy="950.0859" r="90.7467" gradientUnits="userSpaceOnUse">
	<stop  offset="0" style="stop-color:#FFFFFF"/>
	<stop  offset="0.1193" style="stop-color:#F9F9F9"/>
	<stop  offset="0.274" style="stop-color:#E9E9E9"/>
	<stop  offset="0.4483" style="stop-color:#CECECE"/>
	<stop  offset="0.637" style="stop-color:#A9A9A9"/>
	<stop  offset="0.8348" style="stop-color:#7A7A7A"/>
	<stop  offset="0.9995" style="stop-color:#4D4D4D"/>
</radialGradient>
<path class="st10" d="M-240.4,893.1l0-8.9h8c0,0,50.7-1.3,69.7,8.4c22,11.3,18.3,46.4,18.9,70.6l-7.6-4.5l-3.4-42.2
	c0,0-6-21.4-30.9-22.7C-210.7,892.6-240.4,893.1-240.4,893.1z"/>
<path class="st2" d="M-183.4,1028.2c-6.5,2.1-7.2-0.1-7.2-0.1l-6.6,1.1l-10.5,0.8l-4.5,1.1c-0.7,1.4-18,1.2-18,1.2h-10.3v4.2
	c48.3-1.2,71.6-0.5,80.8-22.4c6.8-16.2,8.6-56,8.6-67.6c0-14.2-0.5-24.8-3.1-32.9c-2.7-5.2-5.9-8.1-7-9c-2.1-1.7-8.2-5.4-8.2-5.4
	l4.3,4.5c14.4,9.9,9.4,59.9,5.4,90.5C-163.6,1025-176.8,1026.2-183.4,1028.2z"/>
<path class="st3" d="M-181,898l0.2-0.4l0-1.5l-5-2.4l-4.3-1l-3.9-0.6l-4.1,2.5l-0.2,0.5l0.1,0.6c0,0,2.8-0.3,2.9-0.3
	c0.1,0,5.1-0.1,5.1-0.1l2.7,0.9L-181,898z"/>
<linearGradient id="H_Bianca_3_" gradientUnits="userSpaceOnUse" x1="-226.5216" y1="951.3269" x2="-178.2018" y2="971.6093">
	<stop  offset="0" style="stop-color:#FFFFFF"/>
	<stop  offset="0.1193" style="stop-color:#F9F9F9"/>
	<stop  offset="0.274" style="stop-color:#E9E9E9"/>
	<stop  offset="0.4483" style="stop-color:#CECECE"/>
	<stop  offset="0.637" style="stop-color:#A9A9A9"/>
	<stop  offset="0.8348" style="stop-color:#7A7A7A"/>
	<stop  offset="0.9995" style="stop-color:#4D4D4D"/>
</linearGradient>
<path id="H_Bianca_1_" class="st11" d="M-240.4,983c22,0,27.7-4,36.4-41.1c8.7-37.1,10.6-48.9,10.6-48.9s3.8,0.5,7.6,1.9
	c3.8,1.4,4.8,3.1,4.8,3.1s0.8,26.2-3.9,74.1c-4.7,47.8-5.6,56-5.6,56s-7.5,4.4-11.1,4.9c-3.2,0.4-4.7,0.3-4.7,0.3
	s-2.2-10.5-5.4-20.4c-4.8-14.5-5.9-21.4-28.7-21.4V983z"/>
<radialGradient id="SVGID_6_" cx="-223.5805" cy="1012.4201" r="19.1677" gradientUnits="userSpaceOnUse">
	<stop  offset="0.164" style="stop-color:#FFFFFF"/>
	<stop  offset="0.378" style="stop-color:#CFCFCF"/>
	<stop  offset="0.8636" style="stop-color:#555555"/>
	<stop  offset="0.8972" style="stop-color:#4D4D4D"/>
</radialGradient>
<path class="st12" d="M-240.8,991.5v5.3c10.4,0.1,13.5,0.8,17.9,4.5c4.4,3.7,8.7,21.3,9.9,25.4c1.1,4.1,1,4.4,1,4.4l5.8,2.2
	c0,0-2.2-10.5-5.4-20.4C-216.5,998.4-218,991.5-240.8,991.5z"/>
<path class="st6" d="M-242.3,981.6c0,0,1.8,0,4.9,0c0.7,0,1.7,0,2.6,0c0.9,0,1.9,0,3,0c2.1-0.1,4.3-0.5,6.6-1.4
	c2.3-1,4.6-2.6,6.6-4.7c2-2.1,3.8-4.7,5.4-7.6c1.6-2.9,3-6,4.2-9.2c1.2-3.3,2.3-6.6,3.2-10c3.8-13.7,7-27.6,9.1-38
	c2.2-10.5,3.3-17.5,3.3-17.5s-0.9,7.1-2.8,17.6c-1.9,10.5-4.7,24.5-8.1,38.4c-0.8,3.5-1.9,6.9-3,10.3c-1.2,3.3-2.5,6.6-4.1,9.6
	c-1.6,3-3.4,5.8-5.5,8.2c-2.1,2.4-4.6,4.3-7.2,5.4c-2.6,1.2-5.2,1.7-7.5,1.8c-1.1,0.1-2.2,0.1-3.1,0.1c-0.9,0-1.7,0.1-2.6,0.1
	c-3.2,0.1-4.9,0.1-4.9,0.1L-242.3,981.6z"/>
<path class="st7" d="M-240.4,1041.7h5.5c0,0,59.8,1.2,73.4-12.1c12.4-12.1,19.9-38.4,16.9-101c0,0,2.9,71.5-17.1,96.1
	c0,0-5,8.5-27.9,11.3c-17.9,2.2-50.8,2.1-50.8,2.1V1041.7z"/>
<radialGradient id="SVGID_7_" cx="-240.1083" cy="1035.1195" r="51.0082" gradientUnits="userSpaceOnUse">
	<stop  offset="0" style="stop-color:#FFFFFF"/>
	<stop  offset="0.1193" style="stop-color:#F9F9F9"/>
	<stop  offset="0.274" style="stop-color:#E9E9E9"/>
	<stop  offset="0.4483" style="stop-color:#CECECE"/>
	<stop  offset="0.637" style="stop-color:#A9A9A9"/>
	<stop  offset="0.8348" style="stop-color:#7A7A7A"/>
	<stop  offset="0.9995" style="stop-color:#4D4D4D"/>
</radialGradient>
<path class="st13" d="M-168.2,1029.8c0,0-5.3,8.2-72.1,8.2c-64.1,0-71.7-8.1-71.7-8.1c13,11.3,71.6,10.4,71.6,10.4
	C-240.4,1040.4-181.2,1041.1-168.2,1029.8z"/>
<path class="st8" d="M-240.4,1035.4c0,0,4.5-0.1,12.3-0.2c3.9-0.1,8.6-0.1,14.1-0.3c5.4-0.2,11.5-0.4,18.2-1
	c6.6-0.7,13.8-1.7,20.8-4.7c7-2.8,12.9-8.9,15.7-16.8c1.5-3.9,2.5-8,3.4-12.2c0.9-4.2,1.5-8.5,2.1-12.9c0.5-4.4,1-8.8,1.3-13.2
	c0.3-4.4,0.6-8.9,0.8-13.3c0.2-4.4,0.3-8.9,0.3-13.3c0-4.4-0.1-8.9-0.3-13.2c-0.2-4.4-0.5-8.7-1.2-12.9c-0.7-4.2-1.8-8.3-3.6-11.9
	c-1.8-3.7-4.5-6.7-7.7-8.9c-3.2-2.3-6.8-3.8-10.4-4.9c-3.6-1.1-7.2-1.9-10.8-2.4c-3.5-0.6-7-1-10.3-1.3c-6.6-0.6-12.8-0.9-18.2-1.2
	c-5.4-0.2-10.2-0.3-14.1-0.4c-7.8-0.2-12.3-0.3-12.3-0.3v-0.1c0,0,4.5-0.1,12.3-0.2c3.9,0,8.6,0,14.1,0.1c5.4,0.1,11.6,0.3,18.3,0.8
	c6.7,0.6,14,1.3,21.4,3.5c3.7,1.1,7.5,2.7,10.9,5c3.4,2.4,6.3,5.6,8.2,9.5c1.9,3.9,3,8.1,3.6,12.4c0.7,4.3,1,8.7,1.1,13.1
	c0.1,4.4,0.1,8.8,0.1,13.3c-0.1,4.5-0.3,8.9-0.6,13.4c-0.6,8.9-1.4,17.8-2.5,26.5c-0.6,4.4-1.2,8.7-2,12.9
	c-0.8,4.2-1.7,8.4-3.1,12.4c-2.6,8-8.7,14.7-15.9,17.7c-7.1,3.2-14.5,4.1-21.2,4.7c-6.7,0.5-12.8,0.7-18.3,0.7
	c-5.4,0-10.2,0-14.1-0.1c-7.8-0.1-12.3-0.2-12.3-0.2V1035.4z"/>
<path class="st6" d="M-240.9,888.2c0,0,14.8,0.1,29.6,0.9c7.4,0.4,14.8,1,20.3,1.7c1.4,0.1,2.6,0.4,3.7,0.5c1.1,0.1,2.1,0.3,2.9,0.5
	c1.6,0.3,2.5,0.5,2.5,0.5s-0.9-0.1-2.5-0.4c-0.8-0.1-1.8-0.3-2.9-0.4c-1.1-0.1-2.4-0.3-3.8-0.4c-5.5-0.6-12.9-1-20.3-1.2
	c-14.8-0.5-29.5-0.2-29.5-0.2L-240.9,888.2z"/>
<path d="M-240.4,890h9.7c0,0,21.9-0.1,40.5,1.9c18.6,2,26.1,6.7,30.6,11.8c4.4,5.2,6.5,13.1,7.3,18.3s1.9,16.9,1.2,30.9
	c-0.7,14-1.9,35.4-5,49.3c-3.1,13.8-4.7,11.5-5,11.2s2.2-10.6,3.2-17.1c1-6.5,2.7-19,3.4-34.9c0.7-16,0.6-33.7-2.1-43.5
	c-2.5-9.2-8.2-17-20.1-19.7c0,0-3.8-1.4-4.2-0.4c0,0-2.1-3.6-13-5l-4.4,2.6c0,0-0.3-0.3-2-0.4c-1.6-0.2-15.2-1.8-30.2-1.7h-10V890z"
	/>
<linearGradient id="SVGID_8_" gradientUnits="userSpaceOnUse" x1="-240.8654" y1="889.9679" x2="-169.3424" y2="889.9679">
	<stop  offset="0" style="stop-color:#FFFFFF"/>
	<stop  offset="0.1486" style="stop-color:#F9F9F9"/>
	<stop  offset="0.3413" style="stop-color:#E9E9E9"/>
	<stop  offset="0.5583" style="stop-color:#CECECE"/>
	<stop  offset="0.7913" style="stop-color:#A9A9A9"/>
	<stop  offset="0.9995" style="stop-color:#828282"/>
</linearGradient>
<path class="st14" d="M-240.9,884.2c0,0,33.6,0.3,54.4,3.2c9.3,1.5,12.9,4.8,17.2,8.4c0,0-11.9-7.9-71.5-7.9V884.2z"/>
</svg>
