<?xml version="1.0" encoding="utf-8"?>
<!-- Generator: Adobe Illustrator 21.0.2, SVG Export Plug-In . SVG Version: 6.00 Build 0)  -->
<svg version="1.1" id="Layer_1" xmlns="http://www.w3.org/2000/svg" xmlns:xlink="http://www.w3.org/1999/xlink" x="0px" y="0px"
	 viewBox="0 0 300 300" style="enable-background:new 0 0 300 300;" xml:space="preserve">
<style type="text/css">
	.st0{fill:#FF0000;}
</style>
<g id="layer1" transform="translate(-273.48418,-395.90361)">
	<polygon id="polygon2395" class="st0" points="291.9,573.3 291.9,519.8 277.3,519.8 277.3,573.3 	"/>
	<path id="path2397" class="st0" d="M413,573.3h0.6l0.6,0l1.2-0.1l1.1-0.1l1-0.1l1-0.2l1-0.2l0.9-0.2l0.8-0.3l0.8-0.3l0.8-0.3
		l0.7-0.4l0.7-0.4l0.6-0.4l0.6-0.5l0.5-0.5l0.5-0.5l0.5-0.5l0.4-0.6l0.4-0.6l0.3-0.6l0.3-0.6l0.3-0.6l0.3-0.7l0.2-0.7l0.2-0.7
		l0.2-0.7l0.1-0.8l0.1-0.8l0.1-0.8l0.1-0.8l0-0.8l0-0.8l0,0v-37.9h-14.6v32.4l0,0c0,4.8-1,8.6-8.7,8.6l0,0h-8.1l0,0
		c-7.7,0-8.7-3.8-8.7-8.6l0,0v-32.4h-14.6v37.9l0,0c0,8.8,3.6,15.6,16.8,15.6l0,0H413z"/>
	<path id="path2399" class="st0" d="M552.9,573.3h0.6l0.6,0l1.2-0.1l1.1-0.1l1-0.1l1-0.2l0.9-0.2l0.9-0.2l0.8-0.3l0.8-0.3l0.8-0.3
		l0.7-0.4l0.7-0.4l0.6-0.4l0.6-0.5l0.5-0.5l0.5-0.5l0.5-0.5l0.4-0.6l0.4-0.6l0.4-0.6l0.3-0.6l0.3-0.6l0.3-0.7l0.2-0.7l0.2-0.7
		l0.2-0.7l0.1-0.8l0.1-0.8l0.1-0.8l0-0.8l0-0.8l0-0.8l0,0v-37.9h-14.6v32.4l0,0c0,4.8-1,8.6-8.7,8.6l0,0h-8.1l0,0
		c-7.7,0-8.7-3.8-8.7-8.6l0,0v-32.4H515v37.9l0,0c0,8.8,3.7,15.6,16.8,15.6l0,0H552.9z"/>
	<path id="path2401" class="st0" d="M305.7,560.8v12.5h47.4l0,0c7.9,0,10.7-6.6,11.3-10c0.6-3.4-0.2-10.9-5.5-13.2l0,0l-35.6-15l0,0
		c-1.5-0.8-0.7-2.9,1.1-2.9l0,0h35.3v-12.5h-36.4l0,0c-7.7,0-14.2,3.2-15.8,9c-1.5,5.2-1.3,13.5,5.8,16.2l0,0l32,13.3l0,0
		c2,0.9,1.5,2.6-0.2,2.6l0,0H305.7z"/>
	<path id="path2403" class="st0" d="M499.2,560.8v12.5h-45.4l0,0c-7.9,0-9.3-5-9.9-8.4c-0.6-3.4,0.2-10.9,5.5-13.1l0,0l32.5-18.6
		l0,0c0.7-0.4,0.8-0.9,0-0.9l0,0h-36.8v-12.5H482l0,0c7.7,0,14.1,0.4,16.4,6c2,5,1,12.6-6.1,15.3l0,0l-30.5,17.5l0,0
		c-1.4,0.7-1.6,2.2,0.1,2.2l0,0H499.2z"/>
</g>
</svg>
