<?xml version="1.0" encoding="utf-8"?>
<!-- Generator: Adobe Illustrator 19.2.1, SVG Export Plug-In . SVG Version: 6.00 Build 0)  -->
<svg version="1.1" id="layer" xmlns="http://www.w3.org/2000/svg" xmlns:xlink="http://www.w3.org/1999/xlink" x="0px" y="0px"
	 viewBox="0 0 652 652" style="enable-background:new 0 0 652 652;" xml:space="preserve">
<style type="text/css">
	.st0{fill:#4E5A30;}
	.st1{fill:none;stroke:#4E5A30;stroke-width:1.6167;}
</style>
<path class="st0" d="M488.6,452.7V263.2h47.2v7.7c0,10.2,4.1,6,7.5,2c0.5-0.7,11.1-13.6,34.8-13.6c23.6,0,60.4,16.5,60.4,74.7
	c0,45.1-22,78-59.9,78c-20.9,0-33-8.3-35.7-11.6c-2.8-3.3-6.6-3.9-6.6,0v52.2H488.6z M535.2,335.7c-0.5,28,5.5,42.8,28.6,42.8
	c23.1,0,26.4-25.3,26.4-44.5c0-19.2-4.4-37.9-28.6-37.9C546.8,296.1,535.8,307.7,535.2,335.7"/>
<path class="st0" d="M123.1,201.7h51.1v134c0,23.1-9.9,71.4-80.8,71.4c-70.9,0-78.5-45-78.5-70.3v-24.7h49.4v24.2
	c0,14.9,9.9,28.6,28.6,28.6c18.7,0,30.2-10.5,30.2-28V201.7z"/>
<path class="st0" d="M250.9,257.7c40.1,0,75.3,15.4,75.3,86.3h-95c0,22.5,9.3,31.9,25.8,31.9c16.5,0,22-13.2,22-13.2h46.7
	c0,20.3-28,47.8-70.3,47.2c-48.3,0-72-35.7-72-72.5C183.4,300.5,204.2,257.7,250.9,257.7 M281.1,315.4c0-13.7-7.7-26.9-25.3-26.9
	c-17,0-23.1,12.1-23.1,26.9H281.1z"/>
<path class="st0" d="M402.9,257.7c40.1,0,75.3,15.4,75.3,86.3h-95c0,22.5,9.3,31.9,25.8,31.9c16.5,0,22-13.2,22-13.2h46.7
	c0,20.3-28,47.8-70.3,47.2c-48.4,0-72-35.7-72-72.5C335.3,300.5,356.2,257.7,402.9,257.7 M433.1,315.4c0-13.7-7.7-26.9-25.3-26.9
	c-17,0-23.1,12.1-23.1,26.9H433.1z"/>
<circle class="st1" cx="622.7" cy="425" r="12.3"/>
<path class="st0" d="M619.7,424.3v-4.9h3.8c1.6,0,2.6,0.9,2.6,2.3c0,1.6-1.1,2.6-2.8,2.6H619.7z M627.9,431.7l-2.7-6.4
	c0.9-0.3,1.2-0.5,1.6-1c0.6-0.6,0.9-1.6,0.9-2.5c0-2.3-1.7-3.9-4.3-3.9h-5.4v13.7h1.6v-5.9h3.9l2.6,5.9H627.9z"/>
</svg>
