<?xml version="1.0" encoding="utf-8"?>
<!-- Generator: Adobe Illustrator 21.0.2, SVG Export Plug-In . SVG Version: 6.00 Build 0)  -->
<svg version="1.1" id="Layer_1" xmlns="http://www.w3.org/2000/svg" xmlns:xlink="http://www.w3.org/1999/xlink" x="0px" y="0px"
	 viewBox="0 0 300 300" style="enable-background:new 0 0 300 300;" xml:space="preserve">
<style type="text/css">
	.st0{fill:#C41230;}
</style>
<path class="st0" d="M277.6,131.4c-15.3-22.9-53.9-40-100.8-44.7c-39.9-4-80.9,1.1-112.3,14c-18.8,7.8-33.1,18-41.2,29.5
	c-3.6,5.1-6,10.5-7,15.8c-0.5,2.7-0.6,3.9-0.6,6.7s0.1,4.1,0.6,6.7c1.5,8.1,6.2,16.1,13.6,23.5c17.3,17.3,48.4,30,85.4,34.9
	c8.7,1.1,18.6,1.9,27.5,2.1c16.4,0.4,32.4-0.6,47.9-3c34.6-5.4,63.4-17.8,79.8-34.1c5.9-5.9,10.1-12.4,12.2-18.7
	C286.3,153.1,284.5,141.8,277.6,131.4z M265.4,166.7c-2.1,4.4-4.8,8.1-9,12.1c-3.5,3.5-6.5,6-10.9,9c-8.8,5.9-20.2,11.1-32.5,15
	c-15.4,4.8-31.3,7.6-50,8.7l0,0c-3.3,0.2-19.9,0.3-23.3,0.1c-29.4-1.4-54.4-7.3-74.7-17.7c-9-4.5-15.8-9.3-21.5-15.1
	c-7.7-7.7-11.5-15.3-12.2-24c-0.6-8,2.2-16.2,8.4-23.9c1.7-2.1,5.8-6.2,8.1-8.2c18.1-14.9,47.3-25,81.3-28.1
	c13.5-1.2,28.7-1.2,42.1,0c24.2,2.1,45.9,7.9,63.3,16.5c9.3,4.6,16.3,9.5,22.2,15.4c4,4,6.7,7.7,8.9,11.9c2.4,4.9,3.5,9.1,3.5,14.2
	C268.8,157.8,267.8,161.7,265.4,166.7z"/>
<path class="st0" d="M67.7,186.8c-0.2-0.1-0.4-0.3-0.6-0.4c-0.3-0.3-0.3-0.5-0.3-31.7v-31.3l-0.4-0.4c-0.4-0.4-0.5-0.4-1.8-0.4h-1.4
	v-1.9v-1.9h10.6h10.6l0.4,0.4l0.4,0.4v11.3c0,12.5,0,11.9,0.8,11.9c0.5,0,0.7-0.2,3.9-4.6c8.2-11.6,12.7-18,13.1-18.4
	c1-1.1,0.5-1,10.9-1h9.3l0.3,0.3c0.4,0.4,0.6,1,0.4,1.4c-0.1,0.3-4.2,6.2-18.2,26.9c-1.5,2.2-1.9,3-1.9,3.4c0,0.4,1,1.8,5.2,7.9
	c18.8,26.5,18.9,26.6,18.9,27.2c0,0.4,0,0.6-0.3,0.9l-0.4,0.4h-9.7c-9.6,0-9.7,0-10.4-0.3c-0.4-0.2-0.9-0.5-1.1-0.7
	c-0.2-0.2-4.6-6.3-9.8-13.7c-5.2-7.2-9.6-13.4-9.7-13.5c-0.4-0.3-1-0.2-1.2,0.3c-0.1,0.3-0.2,3.3-0.2,13.7v13.3l-0.3,0.4l-0.3,0.4
	h-8.3C71.7,186.9,67.8,186.9,67.7,186.8L67.7,186.8z"/>
<path class="st0" d="M141.2,186.8c-0.2-0.1-0.5-0.4-0.6-0.6c-0.1-0.3-0.2-7.2-0.2-31.6v-31.2l-0.4-0.4c-0.4-0.4-0.5-0.4-1.8-0.4
	h-1.4v-2v-2h10.8h10.8l0.5,0.4l0.5,0.4v33.4V186l-0.4,0.4l-0.4,0.4h-8.5C143.4,187,141.6,186.9,141.2,186.8L141.2,186.8z"/>
<path class="st0" d="M172.8,186.8c-0.4-0.3-0.6-0.6-0.6-1.1c0-0.3,2-6.7,4.6-14.3c2.6-7.6,6.6-19.7,9-26.8
	c2.4-7.1,4.9-14.7,5.6-16.7s1.2-3.9,1.2-4.1c0-0.2-0.1-0.5-0.3-0.7c-0.2-0.3-0.4-0.3-1.7-0.4l-1.4-0.1v-2v-2h13
	c8.6,0,13.2,0.1,13.6,0.1c0.3,0.1,0.6,0.3,0.7,0.4c0.2,0.3,1.6,4.7,8.5,25.2c11.2,33.4,13.8,41.1,13.8,41.4c0,0.5-0.3,1-0.7,1.2
	c-0.2,0.1-2.9,0.2-8.5,0.2c-7.5,0-8.2,0-8.7-0.3c-0.3-0.1-0.6-0.4-0.8-0.6c-0.1-0.2-1.3-3.6-2.6-7.5c-11.8-36.8-11.5-35.8-11.7-36.1
	c-0.3-0.3-0.5-0.3-0.8,0c-0.2,0.3-0.7,1.6-7.1,21.9c-1.8,5.9-3.9,12.2-4.5,14.1c-0.6,1.8-1.3,4.3-1.7,5.3c-0.6,2.1-0.9,2.6-1.7,3
	C189.3,187,173.3,187.1,172.8,186.8L172.8,186.8z"/>
</svg>
