<svg xmlns="http://www.w3.org/2000/svg" viewBox="0 0 300 300"><path d="M150.8 88.1c-69 0-125 29.1-125 65.1 0 35.9 56 65.1 125 65.1s125-29.1 125-65.1c0-35.9-56-65.1-125-65.1" fill="#a3a5a8"/><path d="M150.9 89.2c-68.4 0-123.9 28.7-123.9 64 0 35.4 55.5 64 123.9 64s123.9-28.7 123.9-64-55.5-64-123.9-64" fill="#e5e6e7"/><linearGradient id="A" gradientUnits="userSpaceOnUse" x1="29.264" y1="153.159" x2="272.011" y2="153.159"><stop offset="0" stop-color="#008948"/><stop offset=".376" stop-color="#008948"/><stop offset=".596" stop-color="#004e25"/><stop offset="1"/></linearGradient><path d="M29.3 153.2c0 33.7 54.3 61.1 121.4 61.1 67 0 121.4-27.4 121.4-61.1s-54.3-61.1-121.4-61.1-121.4 27.3-121.4 61.1" fill="url(#A)"/><g fill="none"><path d="M150.6 99.4c-62.8 0-113.7 24.3-113.7 54.4s50.9 54.3 113.7 54.3 113.7-24.3 113.7-54.3-50.8-54.4-113.7-54.4" stroke="#004e25" stroke-width=".749"/><path d="M150.6 96.2c-64.5 0-116.8 25.5-116.8 57.1 0 31.5 52.3 57.1 116.8 57.1s116.8-25.6 116.8-57.1c0-31.6-52.3-57.1-116.8-57.1" stroke="#f5f0cc" stroke-width="1.419"/></g><path d="M203.4 129.2l-2.3 7h12.3l-14.1 5.1-.9 2.8 21.7-7.4 2.4-7.5zM91.7 117.3c1.3.7.2 3.3.2 3.3l-9.2 26.3c-.6 1.3-1 1.4-1 1.4h18.6l2.6-7.4c-.3.7-2 .5-2 .5H93l7.8-21.6c.8-2.2 1.4-2.5 1.6-2.5H91.7zm68.3 1.9l-5.1 14.2-1.9-16h-9s.5.8.2 1.6c-.2.7-9.6 27.6-9.6 27.6s-.6 1.7-1.1 1.7h8.8s-.6-.9-.2-1.9l5.2-14.6 2 16.6h7.9l10.4-29.5s.4-1.4 1-1.4h-8.4c-.2-.1.1.9-.2 1.7m20.6 4.9h2.2s5.8-.4 1.6 10.2c-2.5 6.5-6.3 6.9-8.3 6.9h-1.4l5.9-17.1zm2.8-6.7h-10s.7 1.2-.2 4.1l-8.6 24.4s-.6 2-1.4 2.4h12s14.5.6 19-15.4c0 0 5.6-15.6-10.5-15.6-.1.1-.2.1-.3.1M70.7 165.9l-2.4 7.4h19.1l2.3-7H77.4l14-5.1 1-2.8zm38.5-3.7h2.1c4.5 0 2.9 3.5 2.9 3.5-1.4 3.1-5.1 2.7-5.1 2.7h-1.9l2-6.2zm4.9-7.1h-12.4c.9 1 .2 3.2.2 3.2l-8.3 24.8c-.6 1.8-1.7 3-1.7 3h9.8c-.3 0-.3-1-.3-1l3.5-9.7 4.7 9.6c.3.6.2 1.1.2 1.1h10.5c-1 0-2-2-2-2l-5.2-9.8c7.3 0 9.6-7.6 9.6-7.6 3.3-11.3-7.4-11.6-8.6-11.6h0m95.9 31.1h0m7.3-23.8h2.7s3.3-.1 2 3.5c-1.1 3-4.8 2.7-4.8 2.7h-1.9l2-6.2zm4.9-7.2H210c.9 1 .2 3.2.2 3.2l-8.6 24.8c-.6 1.8-1.7 2.9-1.7 2.9h10.2c-.7 0-.2-1.9-.2-1.9l3.1-8.9 4.5 9.6c.3.6.1 1.2.1 1.2h10.8c-1 0-2.1-2-2.1-2l-5.2-9.8c7.3 0 9.5-7.3 9.5-7.3 3.5-11.5-6.3-12-8.1-12-.2.2-.3.2-.3.2m-86 24.3c-3.7-.7-3-6.6-2.4-9.4 1.3-6 4.5-8.9 6.9-8.6.8.1 5.1.2 2.8 10-1.4 5.8-3.9 8.1-6.4 8.1-.3 0-.6 0-.9-.1m-11.6-8.2c-1.5 8.7 3.2 15.6 10.9 15.6 10.8 0 17.2-11.1 17.2-19 0-8.3-3.3-13.5-10.8-13.5-9.4-.1-15.6 7.5-17.3 16.9" opacity=".5"/><path d="M155.4 155.2s.7.4.7 2.4v26.8s-.1 1.5-.6 1.8h8s0-.6.8-1.7c.8-1 17.5-24.4 17.5-24.4s3.8-4.9 4.8-4.9h-11.5s.9.6.2 1.8l-10.9 17.1.1-16.1s0-2.6 1-2.8h-10.1zm45.4 11.4h0zM187 155.2s.7.6-.2 3.3l-8.8 24.8s-1.4 2.9-1.8 2.9h20.1l2.4-7.4s-.3.4-2.2.4H188l1.8-5h6.6s1.4-.1 1.7.3l2.7-7.9c0 .1-.3.7-2 .7h-6.4l1.9-5.5h8.1s1.1-.2 1.5.7l2.6-7.3H187zm-63.7-27.3l.1 9.1H118l5.3-9.1zm-1.7-10.5s.7.9-.6 2.8l-17.5 27.1s-.3.6-1.1 1h9.6s0-.8.2-1.3l1.6-3.1h9.7v2.7s.1.9-.7 1.7h9.6s-.7-.4-.8-1.7l-1.2-27.2s0-1.7.7-2.1c0 .1-9.5.1-9.5.1z" opacity=".5"/><g fill="#f5f0cc"><path d="M220.7 127.3h-19.1l-2.3 6.9h12.4l-14.1 5.1-1 2.9 21.7-7.5zM101 139l-2.6 7.4H79.8s.4-.2 1-1.4 9.2-26.3 9.2-26.3 1.2-2.6-.2-3.3h10.7s-.6-.2-1.6 2.5c-.6 1.5-7.8 21.6-7.8 21.6H99s1.8.2 2-.5m30.6 7.3h8.8s-.6-.9-.2-1.9l5.2-14.6 2 16.6h7.9l10.4-29.5s.4-1.4 1-1.4h-8.4s.2 1-.1 1.8l-5.1 14.2-1.9-16h-9.1s.5.8.2 1.6c-.2.7-9.6 27.6-9.6 27.6s-.6 1.6-1.1 1.6m50-30.9h-10s.8 1.3-.2 4.1l-8.6 24.4s-.6 2-1.4 2.4h12s14.5.6 19-15.4c0 .1 5.7-15.6-10.8-15.5m1.1 16.9c-2.5 6.5-6.3 6.9-8.3 6.9H173l5.8-17.2h2.2c0 .1 5.9-.3 1.7 10.3m-116.2 39h19.1l2.3-6.9H75.6l14.1-5.1.9-2.8-21.7 7.4zm54.3-6.5c3.6-12-8.5-11.7-8.5-11.7H100c.9 1 .2 3.2.2 3.2l-8.3 24.8c-.6 1.8-1.7 3-1.7 3h9.8c-.3 0-.3-1-.3-1l3.5-9.7 4.7 9.6c.3.6.2 1.1.2 1.1h10.5c-1 0-2-2-2-2l-5.2-9.8c7.1.1 9.4-7.5 9.4-7.5m-8.5-1c-1.4 3.1-5.1 2.7-5.1 2.7h-1.9l2-6.2h2.1c4.5 0 2.9 3.5 2.9 3.5m116.5 1.4c3.8-12.6-8.4-12-8.4-12h-12.3c.9 1 .2 3.2.2 3.2l-8.6 24.8c-.6 1.8-1.8 2.9-1.8 2.9h10.2c-.7 0-.2-1.9-.2-1.9l3.1-8.9 4.5 9.6c.3.6.1 1.2.1 1.2h10.8c-1 0-2.1-2-2.1-2l-5.2-9.8c7.5.2 9.7-7.1 9.7-7.1m-8.6-1.3c-1.1 3-4.8 2.7-4.8 2.7h-1.9l2-6.2h2.7c0 .1 3.3 0 2 3.5m-79.9-11.5c-9.5 0-15.8 7.6-17.4 17-1.5 8.7 3.2 15.6 10.9 15.6 10.8 0 17.2-11.1 17.2-19 0-8.4-3.3-13.6-10.7-13.6m1.4 17.2c-1.5 6.5-4.5 8.5-7.2 8-3.7-.7-3-6.6-2.4-9.4 1.3-6 4.5-8.9 6.9-8.6.7.1 5 .2 2.7 10"/><path d="M153.6 153.3s.7.4.7 2.4v26.8s-.1 1.5-.6 1.8h8s0-.6.8-1.7c.8-1 17.5-24.4 17.5-24.4s3.8-4.9 4.8-4.9h-11.5s.9.6.2 1.8l-10.9 17.1.1-16.1s0-2.6 1-2.8h-10.1m48.5 7.3l2.6-7.3h-19.5s.7.6-.2 3.3l-8.8 24.8s-1.4 2.9-1.8 2.9h20.1l2.4-7.4s-.3.4-2.2.4h-8.5l1.8-5h6.6s1.4-.1 1.7.3l2.7-7.9s-.2.7-2 .7h-6.4l1.9-5.5h8.1s1.1-.2 1.5.7m-71.5-14.2s-.7-.4-.8-1.7l-1.2-27.2s-.1-1.7.7-2.1h-9.5s.7.9-.6 2.8l-17.5 27.1s-.3.6-1.1 1h9.6s0-.8.2-1.3l1.6-3.1h9.7v2.7s.1.9-.7 1.7c0 .1 9.6.1 9.6.1zM116.2 135l5.3-9.1.1 9.1h-5.4z"/></g></svg>