<svg xmlns="http://www.w3.org/2000/svg" viewBox="0 0 300 300"><path d="M131.5 143.9c-6.7-9.1-14.8-14.3-23-18.4-1.3-.7-2.7-1.3-4-1.9 3.9 1.5 7.7 3.3 13.8 6.8 6.6 3.8 12.6 11.9 16.4 17.4.5.7.9 1.4 1.4 2.1-1.6-1.9-3-3.9-4.6-6" fill="#43565c"/><g fill-rule="evenodd" fill="#657681"><path d="M64.7 158.7l1 7.2c16.5 55.2 35.7 59.3 82.9 61.3 36.6 1.6 57.6-7.5 70-18.9s16.2-25.1 18.3-33c1.6-5.7 2.6-11.1 3-16.7h26.3c-1.1 17.8-6.7 35.1-18.5 50.3-14.6 18-37.5 26.3-57.3 30.1s-36.6 3-39.2 3c-2.6-.1-12 .1-23.6-1-11.6-1-25.4-3.2-36.8-7.8-5-2.1-9.3-4.2-13.2-6.4-10.3-6.2-19.8-15.2-24.5-21.9-5.8-8.3-12.9-22.9-14.9-46.4l26.5.2zm85.8 0c.8 1.1 1.4 1.8 1.8 1.8.2 0 .4-.2.8-.6.3-.3.6-.7.9-1.2h22.9c-4 3-7.4 6.4-10.6 10.4-5.3 6.6-8.3 13.2-9.3 16.4-1 3.3-2.9 6.1-3.2 6.5-.4.5-2 .9-2.5 0-.6-.5-1.1-1.5-1.6-2.9-.7-1.8-1.5-4.5-3.2-7.9s-4.3-7.6-8.4-12.1c-3.6-3.9-7.2-7.4-11-10.3l23.4-.1"/><path d="M38.2 158.7c-.4-4.2-.6-8.7-.6-13.6v-.4c.2-22.3 10.4-42.4 17.8-51.1 1-1.2 4.8-5.5 8-8.6 9.3-8.8 34.6-25.4 90.8-23.9 32 .1 51.4 4.3 64.6 10 6.6 2.9 11.6 6.1 15.8 9.4s7.6 6.6 10.9 9.6l.1.1v.1c0 .1 15.9 19.2 19.5 46.3 1 7.5 1.3 15 .9 22.4h-26.3c.5-5.7.3-11.4-.5-17.5-.6-3.2-1.1-5.7-1.6-7.4.1-.1-.6.5-.6.5s-4.7 2.9-27.2 9.7c-15 4.5-25.2 8.8-33.2 14.8h-22.9c.1-.1.1-.2.2-.3.8-1.2 1.6-2.8 2.4-4 1.7-2.7 6.8-10 14.1-16.9 7.1-6.7 24.2-14.5 36.8-19.2l6.3-2.5c5.2-2.4 10.3-5.4 14.9-8.5-.3-1.2-.6-1.9-.8-2.3 0 0-.2-.6-.7-1.5-.5-1-1.4-2.4-2.6-4.1-2.5-3.3-6.5-7.8-12.9-12-3-2-7.2-4.3-12.9-6.8-11.2-4.6-26.4-8-47-8-32 0-50.7 8.1-61.3 16.1-5.3 4-8.7 8-10.7 11-1 1.5-1.7 2.7-2.1 3.6s-1 2.1-1 2.1c-.6 1.7.1 2.4 1.3 3.2 2.5 1.6 6.3 3.9 7 4.3 3.1 1.5 7.3 3.4 12.6 5.4 12.6 4.7 29.7 12.5 36.8 19.2 7.3 6.8 12.1 14.3 13.7 17 .8 1.2 1.7 2.7 2.5 3.9.1.1.1.2.2.2H127c-5-3.9-10.1-6.8-15.3-8.6-9.1-3.3-18.4-5.3-22.5-6.6-1.9-.6-4.3-1.3-6.2-2l-3.1-1-.5-.2c-4.4-1.5-8.9-3.5-13.2-6-.2-.1-.3-.1-.3-.1h-.1l-.2.2c-.1.1-.1.2-.2.3-.2.4-1.2 8.2-1.4 17.5 0 0 .1 2.5.6 6.4l-26.4-.2"/></g><path d="M65 165c16.6 56.4 36 60.6 83.6 62.7 73.4 3.3 84.4-36.4 88.7-52.2 4.8-17.4 2.1-40.2 2.1-40.2l7.5 25.4-14.7 47.8-20.7 15.3-22 6.7-35.2 4-44.9-4L84 217.8l-12.8-18.4-5-17.4s-2.1-12.4-1.2-17h0z" fill="#ccc"/><path d="M238.1 129.4s8 33.3-4.8 59.9-25 42.8-82 43-68.9-23.5-77.7-40c-8.8-16.4-9.9-40-9.9-40l-1 27.6L79 210.7l13.6 12.4 19.3 8.4 51.6 3.2 22.8-3.2 24.3-6.1 23.2-19.3L243 173l-.9-36.7c-1.5-5.6-2.8-7.9-4-6.9h0z" fill="#666"/><path d="M53.6 112l5.3 3.5-1 39.2c-.2.7 0 21.5 0 21.5l6.8 26.4-3 2.5-14.4-38 1.5-31.4 3-19.7 1.8-4z" fill="gray"/><linearGradient id="A" gradientUnits="userSpaceOnUse" x1="155.559" y1="120.248" x2="153.52" y2="203.346"><stop offset="0" stop-color="#999"/><stop offset="1" stop-color="#d7d7d7"/></linearGradient><path d="M239.7 130.5s8.2 34.2-4.2 60.6c-12.3 26.4-21.2 39.7-81.6 42.1-49 1.2-61.7-11.5-70.7-20.8-7.2-7.3-12.1-19.6-12.1-19.6s-22.1-40.9-19.8-28c3.1 16.9 8 41.1 27 56.3 11.7 9.3 35.2 15 35.2 15l36.8 2.9 32.9-2 52.1-20.1 22.3-48.7c-1-22.6-3.2-41.4-6.5-56.2l-7.3 6.3-4.1 12.2z" fill="url(#A)"/><radialGradient id="B" cx="-557.127" cy="996.018" r="26.106" gradientTransform="matrix(1.5716 -1.1746 0.7254 0.9705 199.2283 -1477.5957)" gradientUnits="userSpaceOnUse"><stop offset="0" stop-color="#fff"/><stop offset="1" stop-color="#919191"/></radialGradient><path d="M55.8 97.4s-1 10.3 1.3 16.3c-3.1 5-7.2 19.9-7.7 31.8-.5 12 1.7 43.2 17.1 61l-4.1 7.9s-24.3-16.5-24.3-69.2c0-25.4 13.7-48.3 21-54.3-2.2 3-3.3 6.5-3.3 6.5z" fill="url(#B)"/><path d="M39.9 155.3s.7 25.6 10.2 41.8c9.6 16.2 18.2 26.6 40.8 35.9s55.1 8.6 60.3 8.7c5.1.2 67.1 2.9 96.2-32.9 16.7-21.5 21-46.9 17.5-72.4-3.5-25.4-16.4-40.3-16.4-40.3s1.8 4.6-.3 17.4c3.1 5.5 8.2 23.6 7.3 38.2-1 14.5-3.6 34.3-14.7 49.7-7.1 9.9-12.7 16.9-28.3 24.1-15.5 7.3-39.3 10.9-60.8 10.6s-42.1-2-59.5-9.9-26.6-20-33.2-29.6-1.5-4.7-9.6-12.7c-8-8-9.5-28.6-9.5-28.6" fill="#121113"/><path d="M56.3 93.3s22.4-33.9 98-31.9c63.9.1 77.6 16.8 91 28.8.3.9-5.3 5.4-5.3 5.4l-9.2 3.5-26.3-20.7-46.8-10.2-45.9 5C110 73 81.1 89.1 81.1 89.1l-5.4 16.5-17-12.8-2.4.5" fill="#c9cdd1"/><path d="M60.3 90.7S80.8 60 154.3 62c62 .1 77.1 17.9 90.1 29.6-4.2 3.5-8.5 3.1-8.5 3.1l-7.3 4L203 78.6l-45.4-9.9-44.5 4.8C111.3 73.3 83.3 89 83.3 89l-14.9 9.2-9-5.4.9-2.1z" fill="#e6e6e6"/><path d="M60.3 94.1s24.8-27.7 90.9-27.7 90.2 22.4 92.8 25.8c-2.9 3.7-8.1 7.6-8.1 7.6-16.9-10.6-32.8-19-47.7-25.2l-40-5.9L100 79.6c-.9 0-25.4 17.3-25.4 17.3s-2 3.4-3.9 3c-5-4.2-10.4-5.8-10.4-5.8z" fill="gray"/><path d="M228.2 105s-12.4-32.7-76.5-32.7-75.2 32.3-75.2 32.3l-3.1-5.4 10.9-14.9 28.9-13.2 20.1-3.1 19.2-.9 24.6 1.3 19.3 4.1L223 86l14.5 11.5 1 1.2-10.3 6.3" fill="#2a2e33"/><path d="M226.4 110s-6.2 4.1-18.8 8.8-29.6 12.5-36.6 19.1c-7.2 6.8-12.3 14-14 16.8-1.7 2.7-3.6 6.7-4.7 6.4l-.7 16.2.8.5 6.6-11.4 21.9-23.9 10-10.6 34-16.2 1.5-5.7z" fill="#b3b3b3"/><path d="M206.3 119.7c-4.1 1.8-23.3 7.9-32.8 19.5-3.2 4-8.9 14.4-10.5 16.9s-9.1 18.6-10.9 20.8 9.8-9.4 9.8-9.4l32.2-28.4c.7-.4 11.9-10.5 11.9-10.5s3.5-10.4.3-8.9" fill="#121113"/><path d="M246.5 94.5S230 109 213.2 116.6c-16.8 7.5-37.7 14.8-50.3 42.3-9.5 16.8 14.9-15.1 14.9-15.1l12.8-9.2 29.8-13.3 15.2-9.8 10.9-17z" fill="#333"/><path d="M246.7 94.3s-11.7 11.8-28.2 21.1c-5.5 3.1-20 9.4-26.7 13-14.7 7.8-22.4 21.5-24.7 24.3-2.4 2.8-14.7 24.9-14.7 24.9l5.3-1.1 20.4-27 16.6-10.1 37.9-11.9 12.4-10.3s3 1.5 3.9-12.6c.6-8.7-2.2-10.3-2.2-10.3z" fill="#e6e6e6"/><path d="M218.9 140.6l-25.1 8.1-14.1 5.8-17.8 13.3s-4.2 7.5-4.5 9.1-3 10.2-3 10.2l-.3 2.8-.9 1.1-.8-5.1.4-7 3.5-6.4 4-6.9 7.5-8.1 10.3-6.1 17.5-5.5 14.5-3.7 8.8-1.6z" fill="#333"/><path d="M237.1 133.9s-4.6 2.8-27.1 9.6-34.2 13-44 25.3c-5.3 6.7-8.3 13.3-9.3 16.5s-2.9 6-3.1 6.4c-.3.4-1.8.6-1.8-.3 0-.3 1.3.8 1.7-2.4 0-3.8.3-10.4 2.5-14.4 3-5.4 7.7-11.9 15.1-16.3 7.5-4.4 17.1-8.3 23.4-10.5 6.3-2.3 22-6.6 28.8-9 6.8-2.5 15.3-6.2 15.3-6.2l-1.5 1.3z" fill="#999"/><path d="M152.9 178.4s.4 10.4 0 11.4c-.4 1.1-2.2-.5-2.2-.5l-7.4-17.2-10.4-10.7-15.7-9.8-6.9-2.7-11.1-3.5-4.5-1.4-.9-2.6L117 147l17.4 9.1 8.9 8.4 6.6 9.1 3 4.8z" fill="#b3b3b3"/><path d="M78.5 110s6.2 4.1 18.8 8.8 29.6 12.5 36.6 19.1c7.2 6.8 12 14.2 13.7 16.9s4 6.6 5 6.2l.7 16.2-.8.5-6.6-11.4-21.9-23.9-10-10.6-34-16.2-1.5-5.6z" fill="#ccc"/><path d="M150.2 173.9l-9-11.2-16.3-14L73 128.4l-15.8-14.3s-3.7-12.1-1.4-16.6c-.1-1.4 2.6-8.8 3.5-6.5 2.7 2.7 5.9 6.8 16.9 13.9-.9 2.2-.1 3.2 1.4 4.1 2.8 1.8 7.1 4.4 7.1 4.4l9.3 5.1 18 9.1 9.5 6 9.3 9.8 7 8.6 7.6 9.8 7.7 15.4-2.9-3.3z" fill="#e6e6e6"/><path d="M74.6 199.6c-4-2.8-9-5.1-13.9-8.3-3.9-2.5-7-13-8.6-21.7-5.5-31 5.4-53.7 5.4-53.7s.2-.5 0-.7c-.8-.7-.2-2 1-1.2 13.9 9.2 17.4 9.3 28.3 14.4 15.5 7.3 31.8 7.2 49.1 24.6 8.2 8.3 16.4 24.6 17.4 24.4-.1 1.6-.3 9.3-.3 9.3s.4-7.4-1.9-11.1c-9.6-15-23.5-21.3-23.5-21.3s-12.1-6.3-30.9-9.9c-8.1-1.6-19.7-4.5-29.9-10.3-.8-.5-1.1.1-1.4.5-.6.8-2.7 21.6-.5 35 1.9 12.4 4.7 19.2 9.7 30h0z" fill="#1a1a1a"/><path d="M59.4 91.1s6.1 7.2 16.4 13.9c-4.3-1.6-6.3-1.9-10.2-4.8-2.6-2.1-6.2-9.1-6.2-9.1" fill="#3c444b"/><path d="M245.2 90.8s-4.8 5.2-8 7.6l-8.6 6.4 9.9-4.9 6.7-9.1" fill="#121113"/><path d="M67.3 97.6s8.7-12 23.2-19.1 24.2-8.6 33.2-9.9c8.6-1.3 26.1-1.6 27.5-1.6h.1c1.4 0 19.9.4 28.5 1.6 9 1.3 18.7 2.5 33.3 9.6 14.5 7.1 24.8 19.7 24.8 19.7s-3.6.9-5.9 2.7-3.1 1-3.1 1-.2-5-7-12.4-17.2-11.7-30.8-16.6c-13.1-4.7-38.3-4.8-39.9-4.8h-.1c-1.6 0-25.8.2-38.9 4.8-13.4 4.9-21.3 10.4-28 17.8-6.8 7.4-8.2 14.8-8.2 14.8s-2.2-2.8-4.4-4.6c-2.3-1.8-4.3-3-4.3-3h0z" fill="#1a1a1a"/><path d="M136 149.9l-4.4-6c-6.7-9.1-14.8-14.3-23.1-18.4-1.3-.7-2.7-1.3-4-1.9 3.9 1.6 7.7 3.4 13.7 6.8 6.6 3.8 12.6 11.8 16.4 17.4.4.7.9 1.4 1.4 2.1h0zM57.5 94.7c1.2 1.3 10.5 9.2 26 19.3 15.7 10.3 34.1 12.5 47.3 30.5 10.3 14 11.4 12.5 20.7 29.8-1.7-4.9-3.6-8.4-5.9-12-2.3-3.7-6.6-9.3-10.3-14.9-3.8-5.6-9.8-13.8-16.7-17.7-6.8-3.9-10.8-5.7-15.3-7.4-4.5-1.8-11.8-4.6-18.8-8.6-7-4.2-19.1-12.5-27-19" fill-rule="evenodd" fill="#3c444b"/><path d="M153.6 177.5c7-15.1 13.7-23.7 27.6-33.8 8.1-5.8 13.9-6.9 23.1-10.6 6.1-2.4 9.8-3.2 15.9-5.7 11.1-4.5 16.1-6.8 27.5-13.8.8 2.7-5.1 13.3-9.3 19.5-11.9 5.2-21.5 8.1-35.7 11.5-8.5 2-14.8 4.1-23.5 7.6-14.5 5.8-18.7 13-25.6 25.3z" fill="#1a1a1a"/><path d="M149.7 176.8c2.3 4.5 3.3 8.4 3.3 12.4s-1.5 3.3-2.8-.2c-1.4-3.5-3.4-11-11.7-20.2S121.1 153 112 149.7s-18.4-5.3-22.5-6.6c-4.1-1.2-9.9-3.2-9.9-3.2l10.3 2.6s23.3 5.2 36.6 13.1c13.2 7.8 19.6 14.2 23.2 21.2h0z" fill="#ccc"/><path d="M55.8 97.4c-.5.6-13.5 16.7-17.6 47.8 0-24.1 12.3-46.4 19.8-53.8-1.1 1.5-2.2 5-2.2 6" fill="#c9cdd1"/><path d="M75.9 105.2s-3.3-4.3-7.4-7.5-7.2-4.5-7.2-4.5 2.3 2.8 6.9 6.4 7.7 5.6 7.7 5.6" fill="#121113"/><path d="M61.3 93.1s2.6.8 6.5 3.9c0 0 8.2-11.2 20.4-17.4s24.2-10.1 40.7-11.7c0 0-20.4.7-41.1 11.2-11.7 6-20.1 17-20.1 17-2-1.5-4.2-2.5-6.4-3" fill="#c9cdd1"/><path d="M247.9 113s2.2 2.9 5 14.2c2.1 8.5 2.6 16.9 2.6 16.9s-1.8-17.5-7.8-30.5l.2-.6z" fill="#e6e6e6"/><path d="M151.3 66.4c1.5 0 19.9.3 28.6 1.5 4.5.7 9.2 1.3 14.6 2.7s11.5 3.4 18.8 7 13.6 8.5 18 12.6c2.2 2 4 4 5.3 5.4.6.7 1.2 1.4 1.7 1.9l-.4.4s-10.2-12.7-24.8-19.7c-14.5-7.1-24.3-8.3-33.3-9.6-8.6-1.3-28.5-2.2-28.5-2.2z" fill="#f2f2f2"/><path d="M97.6 220.1c28.7 13.6 86.3 12.8 111 0-25.9 15.6-82.6 16.4-111 0z" fill="#e6e6e6"/><path d="M236.7 189.5h10s-10.9 28.4-41.4 38.2c-12.8 4.1-31.9 4.4-31.9 4.4 34.9-2 52.8-13.2 63.3-42.6z" fill="#ccc"/><path d="M158.3 168.2s9.1-19.1 30.7-30c5.7-2.8 15.2-5.1 15.2-5.1l-5.5 2.1c-6.2 2.2-11.1 3.9-17.4 8.4-10.8 7.8-17.2 14.7-22.8 24.4l-.2.2" fill="#fff"/><path d="M155 176.7s4.2-18.6 34.2-27.6c-19.1 7.2-27.6 13.6-34.2 27.6z" fill="#b3b3b3"/><path d="M151.9 190.4l-.9-1.8c-.7-1.8-1.6-4.6-3.3-8.1-1.8-3.5-4.4-7.8-8.6-12.5-3.5-3.9-7.1-7.3-10.9-10.2 11.6 7.1 17.3 13 20.5 19.4 2.2 4.4 3.2 8.1 3.2 11.9.1.6.1 1 0 1.3h0z" fill="#e6e6e6"/><path d="M228.2 105.1l.7 2.1s3.5-1.9 9.7-6.7l8.2-6.2s1.8 1.4 8.1 11.7c0 0-2-6.1-9.1-15l-7.3 9-10.3 5.1z" fill="#ececec"/><path d="M130.1 143.5c-10-10.8-17.1-13.3-30-17.9-12.3-4.4-17.4-11.4-18.4-12.8l1.8 1.2c15.5 10.1 33.4 12.4 46.6 29.5z" fill="#666"/><path d="M98.5 144.7l2.7.6c7.6 1.7 13.8 3.8 18.3 5.5 3.8 1.7 8.1 4 12.8 7 19.1 12.2 19.2 22.4 19.2 22.4s-.3-7-12-16.8c-11.8-9.8-31.8-16.1-37.7-17.8-1-.2-3.3-.9-3.3-.9h0z" fill="gray"/></svg>