<svg xmlns="http://www.w3.org/2000/svg" viewBox="0 0 300 300"><style><![CDATA[.f{fill-rule:evenodd}.g{fill:#45494e}]]></style><linearGradient id="A" gradientUnits="userSpaceOnUse" x1="50.351" y1="248.54" x2="308.906" y2="-7.394"><stop offset="0" stop-color="#45494e"/><stop offset="1" stop-color="#e8e9ea"/></linearGradient><path d="M195.5 47.3h-90.1l-58.2 58.2v89.3l57.7 57.9h89.5l58.2-58.2V105l-57.1-57.7zm56.3 146.2L194 251.7l-87.5.1-58.3-58.1v-87.2l58.3-58h88l57.2 57.4v87.6h.1z" fill="url(#A)" class="f"/><linearGradient id="B" gradientUnits="userSpaceOnUse" x1="57.821" y1="228.888" x2="207.83" y2="100.884"><stop offset="0" stop-color="#fff"/><stop offset="1" stop-color="#51545a"/></linearGradient><path d="M188.2 62.9l-.9 3-73.8.2-1.1-3.2h75.8zm-.8 3l46.8 47.4 3.3-.9-49.2-49.6c-.1.1-.9 3.1-.9 3.1zm46.7 47.4v73l3.3 1.1v-75c.1 0-3.3.9-3.3.9zm-48 120.8l1.3 3.6 50.1-50.2-3.3-1.1-48.1 47.7zm1.3 3.6l-1.2-3.6H114l-.1-.1-1.3 3.7h74.8zm-73.6-3.6l-47.9-47.7-3.6 1.4 50.2 49.9 1.3-3.6zm-47.9-47.7l.1-73-3.7-.6v75l3.6-1.4zm.1-73l47.6-47.3-1.1-3.2-50.2 49.9c0-.1 3.7.6 3.7.6z" fill="url(#B)"/><linearGradient id="C" gradientUnits="userSpaceOnUse" x1="106.492" y1="54.707" x2="194.496" y2="54.707"><stop offset="0" stop-color="#afb6bc"/><stop offset="1" stop-color="#51545a"/></linearGradient><path d="M189.4 60.9l5.1-12.4h-88l5 12.4h77.9z" fill="url(#C)"/><linearGradient id="D" gradientUnits="userSpaceOnUse" x1="150.062" y1="220.788" x2="150.062" y2="76.512"><stop offset="0" stop-color="#5f6368"/><stop offset=".062" stop-color="#72767b"/><stop offset=".18" stop-color="#90959a"/><stop offset=".296" stop-color="#a5abb1"/><stop offset=".405" stop-color="#b3b8be"/><stop offset=".503" stop-color="#b7bdc3"/><stop offset=".575" stop-color="#b1b7bd"/><stop offset=".67" stop-color="#a1a6ac"/><stop offset=".779" stop-color="#868b91"/><stop offset=".896" stop-color="#61656a"/><stop offset=".927" stop-color="#565a5f"/><stop offset="1" stop-color="#45494e"/></linearGradient><path d="M106.8 126.9L94.6 102l-18.2 17v61.2L93.9 198v-59.6l15.2 34 17.4-45.4v95h19.4V77.4h-20.6l-18.5 49.5zm52.6-49.5v144.7h22.2l42.1-41.8v-30.6h-32.4v17.6h12c3.2-.4 3.5 3.2 1.2 6S178.8 199 178.8 199v-98.5l27.3 28.4v6.9h17.6v-16.2l-41.6-42.3-22.7.1z" fill="url(#D)" class="f"/><radialGradient id="E" cx="150.008" cy="152.216" r="69.273" gradientTransform="matrix(1 0 0 -1 0 302)" gradientUnits="userSpaceOnUse"><stop offset=".028" stop-color="#f6f6f7"/><stop offset=".621" stop-color="#d1d3d5"/><stop offset=".853" stop-color="#babdc1"/><stop offset="1" stop-color="#b2b5b9"/></radialGradient><path d="M163.2 218.4V81.2h17.3l39.4 40.1V135h-12.7l-.1-6.5-28.8-29.8-.3 102.2 25.4-25.3c2.4-2.8 4.5-4.9 3.3-7.6-1-2.1-2.3-1.7-4.6-1.7l-2.3.1-7.5-.1v-13H220v25.2l-39.8 39.6h-17v.3zm-35.9 0v-95.5l-18.5 47.3-16-36 .1 57.6-13-13.1v-58.1l13.4-12.5 13.8 28.3 20.6-55.2H142v137.1l-14.7.1z" fill="url(#E)" class="f"/><linearGradient id="F" gradientUnits="userSpaceOnUse" x1="211.226" y1="87.556" x2="221.066" y2="79"><stop offset="0" stop-color="#afb6bc"/><stop offset="1" stop-color="#51545a"/></linearGradient><path d="M238.3 111.2l13.4-5.3-57.2-57.4-5.1 12.4 48.9 50.3z" fill="url(#F)"/><radialGradient id="G" cx="250.708" cy="141.177" r="50.907" fx="250.556" fy="141.156" gradientTransform="matrix(1 0 0 -1 0 302)" gradientUnits="userSpaceOnUse"><stop offset=".14" stop-color="#fff"/><stop offset="1" stop-color="#c0c3c6"/></radialGradient><path d="M238.4 111.2l.6 77.5 12.8 4.9-.1-87.6-13.3 5.2z" fill="url(#G)"/><linearGradient id="H" gradientUnits="userSpaceOnUse" x1="188.557" y1="220.188" x2="251.834" y2="220.188"><stop offset="0" stop-color="#afb6bc"/><stop offset="1" stop-color="#51545a"/></linearGradient><path d="M239 188.7l-50.4 50.4 5.4 12.6 57.9-58.2-12.9-4.8z" fill="url(#H)"/><linearGradient id="I" gradientUnits="userSpaceOnUse" x1="148.338" y1="227.989" x2="149.516" y2="248.804"><stop offset=".362" stop-color="#afb6bc"/><stop offset=".886" stop-color="#51545a"/></linearGradient><path d="M111 239.1l-5.6 12.7 88.5-.1-5.4-12.6H111z" fill="url(#I)"/><radialGradient id="J" cx="86.056" cy="67.995" r="52.639" gradientTransform="matrix(1 0 0 -1 0 302)" gradientUnits="userSpaceOnUse"><stop offset=".394" stop-color="#51545a"/><stop offset=".508" stop-color="#55595f"/><stop offset=".634" stop-color="#62666c"/><stop offset=".767" stop-color="#787c82"/><stop offset=".903" stop-color="#959ba1"/><stop offset="1" stop-color="#afb6bc"/></radialGradient><path d="M60.9 188.9l-12.7 4.9 57.2 58.1 5.6-12.7-50.1-50.3z" fill="url(#J)"/><radialGradient id="K" cx="54.574" cy="151.892" r="31.172" gradientTransform="matrix(1 0 0 -1 0 302)" gradientUnits="userSpaceOnUse"><stop offset="0" stop-color="#fff"/><stop offset=".124" stop-color="#f3f4f4"/><stop offset=".471" stop-color="#d7d9db"/><stop offset=".774" stop-color="#c6c9cb"/><stop offset="1" stop-color="#c0c3c6"/></radialGradient><path d="M60.9,111.5l-12.7-5v87.2l12.7-4.9V111.5z" fill="url(#K)"/><linearGradient id="L" gradientUnits="userSpaceOnUse" x1="48.182" y1="79.974" x2="111.459" y2="79.974"><stop offset="0" stop-color="#afb6bc"/><stop offset="1" stop-color="#51545a"/></linearGradient><path d="M111.5 60.9l-5-12.4-58.3 58 12.7 5 50.6-50.6z" fill="url(#L)"/><linearGradient id="M" gradientUnits="userSpaceOnUse" x1="62.957" y1="147.708" x2="324.79" y2="154.589"><stop offset="0" stop-color="#afb6bc"/><stop offset=".097" stop-color="#959ba1"/><stop offset=".233" stop-color="#787c82"/><stop offset=".366" stop-color="#62666c"/><stop offset=".492" stop-color="#55595f"/><stop offset=".606" stop-color="#51545a"/></linearGradient><path d="M189.4 60.9h-78.1l-50.4 50.4v77.5l50 50.2h77.6l50.4-50.4v-77.7l-49.5-50zm48.8 126.8l-50.5 50.5h-75.5l-50.5-50.3v-75.7l50.5-50.3h76.3l49.7 49.9v75.9z" fill="url(#M)" class="f"/><linearGradient id="N" gradientUnits="userSpaceOnUse" x1="242.064" y1="105.199" x2="244.813" y2="111.983"><stop offset="0" stop-color="#fff" stop-opacity="0"/><stop offset=".479" stop-color="#fff"/><stop offset=".676" stop-color="#fff"/><stop offset="1" stop-color="#fff" stop-opacity="0"/></linearGradient><path d="M239 110.9v7.3l12.7-3.1v-9.5l-6.8-6.8-12.9 5.1 7 7z" fill="url(#N)"/><linearGradient id="O" gradientUnits="userSpaceOnUse" x1="186.346" y1="54.525" x2="193.231" y2="57.441"><stop offset=".001" stop-color="#5b5f65" stop-opacity="0"/><stop offset=".476" stop-color="#83878b"/><stop offset=".676" stop-color="#b4b8bb"/><stop offset="1" stop-color="#7a7e84" stop-opacity="0"/></linearGradient><path d="M189.4 60.9l5.1 5.2 6.7-10.9-6.7-6.7h-9.7l-5.7 12.4h10.3z" fill="url(#O)"/><linearGradient id="P" gradientUnits="userSpaceOnUse" x1="113.327" y1="245.552" x2="106.586" y2="242.697"><stop offset=".001" stop-color="#5b5f65" stop-opacity="0"/><stop offset=".476" stop-color="#83878b"/><stop offset=".676" stop-color="#b4b8bb"/><stop offset="1" stop-color="#7a7e84" stop-opacity="0"/></linearGradient><path d="M111,239.1l-5.8-5.7L98.7,245l6.7,6.7h9.7l5.4-12.6H111z" fill="url(#P)"/><linearGradient id="Q" gradientUnits="userSpaceOnUse" x1="105.031" y1="58.353" x2="111.915" y2="55.564"><stop offset=".001" stop-color="#5b5f65" stop-opacity="0"/><stop offset=".476" stop-color="#83878b"/><stop offset=".676" stop-color="#b4b8bb"/><stop offset="1" stop-color="#7a7e84" stop-opacity="0"/></linearGradient><path d="M111.5 60.9h7.7L116 48.5h-9.4l-6.9 6.8 4.8 12.6 7-7z" fill="url(#Q)"/><linearGradient id="R" gradientUnits="userSpaceOnUse" x1="55.026" y1="113.087" x2="57.929" y2="106.233"><stop offset=".001" stop-color="#5b5f65" stop-opacity="0"/><stop offset=".476" stop-color="#50545b"/><stop offset=".676" stop-color="#7c8086"/><stop offset="1" stop-color="#7a7e84" stop-opacity="0"/></linearGradient><path d="M60.9 111.5l5.1-5.3-11.2-6.4-6.7 6.7v9.7l12.7 5.7v-10.4z" fill="url(#R)"/><linearGradient id="S" gradientUnits="userSpaceOnUse" x1="245.246" y1="186.614" x2="242.351" y2="193.452"><stop offset="0" stop-color="#fff" stop-opacity="0"/><stop offset=".479" stop-color="#fff"/><stop offset=".676" stop-color="#fff"/><stop offset="1" stop-color="#fff" stop-opacity="0"/></linearGradient><path d="M239 188.7l-5.1 5.1 11.2 6.9 6.7-6.7v-9.6l-12.8-5.8v10.1z" fill="url(#S)"/><linearGradient id="T" gradientUnits="userSpaceOnUse" x1="192.44" y1="242.817" x2="185.656" y2="245.564"><stop offset="0" stop-color="#fff" stop-opacity="0"/><stop offset=".269" stop-color="#fff"/><stop offset=".391" stop-color="#b7babe"/><stop offset=".479" stop-color="#898f96"/><stop offset=".523" stop-color="#787f86"/><stop offset="1" stop-color="#787f86" stop-opacity="0"/></linearGradient><path d="M188.6 239.1h-7.2l3.1 12.6h9.4l6.8-6.8-5.1-12.8-7 7z" fill="url(#T)"/><linearGradient id="U" gradientUnits="userSpaceOnUse" x1="56.862" y1="192.403" x2="54.124" y2="185.644"><stop offset="0" stop-color="#fff" stop-opacity="0"/><stop offset=".03" stop-color="#edeeef" stop-opacity=".1"/><stop offset=".101" stop-color="#c7cbce" stop-opacity=".375"/><stop offset=".166" stop-color="#acb1b6" stop-opacity=".62"/><stop offset=".224" stop-color="#9ca1a7" stop-opacity=".835"/><stop offset=".269" stop-color="#969ca2"/><stop offset=".364" stop-color="#899096"/><stop offset=".523" stop-color="#787f86"/><stop offset="1" stop-color="#787f86" stop-opacity="0"/></linearGradient><path d="M60.9 188.9v-7.6l-12.7 3.1v9.5l6.8 6.8 12.3-5.4-6.4-6.4z" fill="url(#U)"/><linearGradient id="V" gradientUnits="userSpaceOnUse" x1="61.572" y1="150" x2="238.336" y2="150"><stop offset=".394" stop-color="#51545a"/><stop offset=".508" stop-color="#55595f"/><stop offset=".634" stop-color="#62666c"/><stop offset=".767" stop-color="#787c82"/><stop offset=".903" stop-color="#959ba1"/><stop offset="1" stop-color="#afb6bc"/></linearGradient><path d="M189.1 61.7h-77.4l-50.1 50.1v76.8l49.7 49.8h77l50.1-50.1v-77l-49.3-49.6zm48.4 125.8l-50.1 50.2h-74.8l-50.2-49.9v-75l50.2-49.9h75.7l49.2 49.6v75z" fill="url(#V)" class="f"/><linearGradient id="W" gradientUnits="userSpaceOnUse" x1="180.567" y1="99.357" x2="223.759" y2="99.357"><stop offset="0" stop-color="#5f6368"/><stop offset=".062" stop-color="#72767b"/><stop offset=".18" stop-color="#90959a"/><stop offset=".296" stop-color="#a5abb1"/><stop offset=".405" stop-color="#b3b8be"/><stop offset=".503" stop-color="#b7bdc3"/><stop offset=".575" stop-color="#b1b7bd"/><stop offset=".67" stop-color="#a1a6ac"/><stop offset=".779" stop-color="#868b91"/><stop offset=".896" stop-color="#61656a"/><stop offset=".927" stop-color="#565a5f"/><stop offset="1" stop-color="#45494e"/></linearGradient><path d="M223.8 119.8l-3.8 1.5-39.4-40.1 1.5-3.8 41.7 42.4z" fill="url(#W)" class="f"/><linearGradient id="X" gradientUnits="userSpaceOnUse" x1="230.284" y1="152.172" x2="157.53" y2="150.189"><stop offset="0" stop-color="#afb6bc"/><stop offset="1" stop-color="#51545a"/></linearGradient><g class="f"><path d="M220 153.6l3.8-3.8h-32.4l1 3.6 27.6.2z" fill="url(#X)"/><path d="M181.6 222.1l-1.5-3.8 39.8-39.6 3.8 1.6-42.1 41.8z" class="g"/><path d="M159.4,222.1l3.8-3.8h17l1.5,3.8H159.4z" fill="#313336"/><path d="M163.2,81.2l-3.8-3.8h22.7l-1.5,3.8H163.2z" class="g"/></g><path d="M145.9 222.1l-3.8-3.8h-14.8l-.9 3.8h19.5zm-52-24l-.9-6.2-13-13.2-3.8 1.6 17.7 17.8z" fill="#313336"/><path d="M80 120.6l-3.8-1.6 18.2-17.1-1.1 6.3L80 120.6z" class="g"/><linearGradient id="Y" gradientUnits="userSpaceOnUse" x1="93.426" y1="119.172" x2="107.288" y2="119.172"><stop offset=".14" stop-color="#fff"/><stop offset="1" stop-color="#c0c3c6"/></linearGradient><path d="M107.2 136.4l-.4-9.5L94.5 102l-1.1 6.3 13.8 28.1z" fill="url(#Y)"/><linearGradient id="Z" gradientUnits="userSpaceOnUse" x1="106.816" y1="106.916" x2="127.926" y2="106.916"><stop offset="0" stop-color="#51545a"/><stop offset="1" stop-color="#afb6bc"/></linearGradient><path d="M127.9 81.2l-2.6-3.8-18.5 49.5.4 9.5 20.7-55.2z" fill="url(#Z)"/><path d="M142.1 81.2l3.8-3.8h-20.6l2.6 3.8h14.2z" class="g"/><radialGradient id="a" cx="221.834" cy="136.982" r="10.879" gradientTransform="matrix(1 0 0 -1 0 302)" gradientUnits="userSpaceOnUse"><stop offset=".14" stop-color="#fff"/><stop offset="1" stop-color="#c0c3c6"/></radialGradient><path d="M220,153.6l3.8-3.8v30.6l-3.8-1.6V153.6z" fill="url(#a)" class="f"/></svg>