<svg xmlns="http://www.w3.org/2000/svg" viewBox="0 0 300 300"><style><![CDATA[.G{fill-rule:evenodd}]]></style><radialGradient id="A" cx="150.179" cy="150" r="55.948" fx="132.948" fy="125.144" gradientUnits="userSpaceOnUse"><stop offset=".117" stop-color="#312f2d"/><stop offset=".607" stop-color="#100c08"/></radialGradient><path d="M205.9 150c0-31-25-56.1-55.8-56.1S94.4 119 94.4 150s25 56.1 55.8 56.1 55.7-25.1 55.7-56.1h0z" fill="url(#A)" class="G"/><radialGradient id="B" cx="150.179" cy="94.799" r="130.679" gradientUnits="userSpaceOnUse"><stop offset=".341" stop-color="#fff"/><stop offset=".998" stop-color="#7f7f7f"/></radialGradient><path d="M150.4 203.3c-29.4 0-53.3-23.9-53.3-53.3s23.9-53.3 53.3-53.3 53.3 23.9 53.3 53.3-23.9 53.3-53.3 53.3h0zm146-83.7h-92.5c-10.6-18.6-30.6-31.2-53.6-31.2s-43 12.6-53.6 31.2H3.9s2.8 3.9 7.9 10.1h0c2.3 2.8 5.1 6.1 8.4 9.7h0c3 3.4 6.4 7 10.2 10.9h0c3.1 3.1 6.4 6.4 10 9.7h0c3.8 3.6 7.9 7.2 12.2 10.9h0a247.5 247.5 0 0 0 12.2 9.7h0c4.8 3.6 9.8 7.1 15 10.5h24.6c11.3 12.6 27.7 20.5 45.9 20.5s34.6-7.9 45.9-20.5h24.3c46.5-30.1 75.9-71.5 75.9-71.5h0z" fill="url(#B)" class="G"/><radialGradient id="C" cx="150.011" cy="155.777" r="129.474" gradientUnits="userSpaceOnUse"><stop offset=".301" stop-color="#fff"/><stop offset=".41" stop-color="#f2f2f2"/><stop offset=".61" stop-color="#d0d0d0"/><stop offset=".879" stop-color="#9a9a9a"/><stop offset=".998" stop-color="#7f7f7f"/></radialGradient><g class="G"><path d="M212.8 139.3c-.5-2.6-1.4-5.7-2.2-8.2l78-.3c-2.3 2.6-5.1 6.3-7.5 8.8l-68.3-.3zm-2 32.7c-1 2.6-2.6 6.1-4 8.6l29.3.1c3.5-2.5 7.5-6.1 10.8-8.7h-36.1zM11.5 130.8l7.6 8.8 70.7-.1c.5-2.6-2-6.2-1.2-8.7H11.5zm19.6 20.6c2.7 2.6 5.3 6.1 8.1 8.6h48c-.4-2.5-.4-6.1-.4-8.6H31.1zm22 20.5c3.3 2.6 7.3 6.4 10.7 8.9l30.5-.1c-1.4-2.5-3.7-6.1-4.7-8.7l-36.5-.1zm207.6-11.6c2.8-2.5 5.5-6.4 8.2-9h-54c-.1 2.6-.9 6.4-1.3 8.9l47.1.1z" fill="url(#C)"/><path d="M213.2 139.3c-.5-2.6-1-4.6-1.8-7.1H287l.6-1.5h-77.7c.8 2.5 1.5 6.2 2 8.8l1.3-.2zm-5.9 41.3c1.3-2.5 2.2-4.6 3.2-7.2h34.8l1.6-1.5H209c-1 2.6-2.8 6.1-4.1 8.6l2.4.1zm6.6-20.3c.4-2.6.5-4.9.6-7.5H268l1.8-1.5-56.8-.1c-.1 2.6-.5 6.5-.9 9l1.8.1zm-200.7-28h76.1c-.8 2.5-1.4 4.7-1.9 7.3h1.4c.5-2.6 1.1-6.3 2-8.8H12.4l.8 1.5zm18.5 20.6h54.6l.6 7.2h1.7c-.4-2.5-.8-6.2-.8-8.8h-57l.9 1.6zm22.7 20.6h35.8c1 2.6 2 4.9 3.3 7.4h2.1c-1.3-2.5-2.9-6.3-3.9-8.9H53.5l.9 1.5z"/><path d="M204.3 118.6c-5.2-9-12.6-16.5-21.4-21.9-4.7-2.9-9.7-5.1-15-6.7-5.8-1.7-11.8-2.6-17.8-2.6-4.9 0-9.8.6-14.6 1.7-5.3 1.3-10.5 3.3-15.3 5.9A62.38 62.38 0 0 0 96 118.6H1.8l3 4c1 1.3 2 2.6 3.1 3.9 1.1 1.4 2.3 2.8 3.4 4.2h0c2.2 2.6 4.3 5.2 6.6 7.7h0l1.5 1.7c3.5 3.9 6.9 7.5 10.5 11.2h0l7.8 7.7 1.9 1.8c4.2 3.9 8.2 7.5 12.6 11.2h0c3.1 2.6 6.3 5.2 9.6 7.7h0l2.4 1.8c4.9 3.7 9.9 7.2 15.1 10.6l.3.2h24.5c5.6 6.1 12.3 11.1 19.7 14.6 4 1.9 8.1 3.3 12.4 4.3 4.7 1.1 9.5 1.6 14.3 1.6 3.9 0 7.8-.4 11.7-1.1 13.3-2.5 25.5-9.4 34.6-19.4h24.1c3.9-2.5 7.5-5 11.3-7.7 4-2.9 8-5.9 11.8-9.1a272.55 272.55 0 0 0 16.2-14.1c8.7-8.1 17.1-16.8 24.9-25.8l8.3-10 2.1-2.7 3-4.1h-94.2v-.2zm91.9 1h0c-.6.8-1.2 1.7-1.8 2.5l-2.1 2.7c-6.6 8.4-14.2 17-21.7 24.7-3.7 3.8-7.5 7.5-11.4 11.1-5.2 4.9-10.6 9.5-16.1 14-3.8 3.1-7.8 6.1-11.8 9-3.6 2.6-7.3 5.1-11 7.5H196c-9 10.1-21.1 16.9-34.4 19.4-3.8.7-7.7 1.1-11.5 1.1-4.7 0-9.4-.5-14-1.6-12.3-2.9-23.4-9.5-31.9-18.9H79.7a252.69 252.69 0 0 1-15-10.5h0c-4.1-3.1-8.2-6.4-12.2-9.7h0c-4.2-3.5-8.3-7.1-12.2-10.9h0c-3.4-3.2-6.7-6.4-10-9.7h0c-3.5-3.5-6.9-7.2-10.2-10.9h0c-2.9-3.2-5.6-6.4-8.4-9.7h0c-2.5-3-5.7-7-7.9-10.1h92.9c8.4-14.7 22.5-25.5 39.2-29.5 4.7-1.1 9.5-1.7 14.4-1.7 5.9 0 11.8.8 17.5 2.5 15.2 4.5 28.2 14.8 36.1 28.7h92.3z"/></g><linearGradient id="D" gradientUnits="userSpaceOnUse" x1="99.233" y1="150" x2="201.125" y2="150"><stop offset=".002" stop-color="#d0d0d0"/><stop offset=".494" stop-color="#fff"/><stop offset="1" stop-color="#d3d3d3"/></linearGradient><path d="M150.2 197.2c-26 0-47.2-21.1-47.2-47.2s21.1-47.2 47.2-47.2c26 0 47.2 21.1 47.2 47.2s-21.2 47.2-47.2 47.2h0zm0-98.1c-28.1 0-50.9 22.8-50.9 50.9s22.8 50.9 50.9 50.9 50.9-22.8 50.9-50.9-22.8-50.9-50.9-50.9h0z" fill="url(#D)" class="G"/><radialGradient id="E" cx="151.178" cy="139.283" r="32.193" gradientUnits="userSpaceOnUse"><stop offset="0" stop-color="#fff"/><stop offset=".998" stop-color="#d0d0d0"/></radialGradient><path d="M143.9 163.3V137h6.4v26.4h-6.4v-.1zM131.6 137h-.6l-7.5 17.4-6.9-17.4h-7.3v26.4h5.5v-15.9l6.3 15.9h3.8l6.6-15.5v15.5h6.5V137h-6.4zm41.6 16h0l-12.3-16H156v26.4h5.5v-15.9l12.3 15.9h5V137h-5.6v16zm11.4 10.3h6.4V137h-6.4v26.3z" fill="url(#E)" class="G"/></svg>