<?xml version="1.0" encoding="utf-8"?>
<!-- Generator: Adobe Illustrator 21.0.2, SVG Export Plug-In . SVG Version: 6.00 Build 0)  -->
<svg version="1.1" id="Layer_1" xmlns="http://www.w3.org/2000/svg" xmlns:xlink="http://www.w3.org/1999/xlink" x="0px" y="0px"
	 viewBox="0 0 300 300" style="enable-background:new 0 0 300 300;" xml:space="preserve">
<style type="text/css">
	.st0{fill:url(#SVGID_1_);}
	.st1{fill:url(#SVGID_2_);}
	.st2{fill:url(#SVGID_3_);}
	.st3{fill:url(#SVGID_4_);}
	.st4{fill:#FFFFFF;}
	.st5{fill:url(#SVGID_5_);}
	.st6{fill:url(#SVGID_6_);}
	.st7{fill:#8C8C8C;}
	.st8{fill:#4D4D4D;}
	.st9{fill:#252525;}
	.st10{fill:url(#NISSAN_1_);}
</style>
<linearGradient id="SVGID_1_" gradientUnits="userSpaceOnUse" x1="349.6001" y1="-244.7474" x2="349.5999" y2="-398.642" gradientTransform="matrix(1 0 0 -1 -197.6 -184.99)">
	<stop  offset="0.1944" style="stop-color:#FFFFFF"/>
	<stop  offset="0.2085" style="stop-color:#F8F8F8"/>
	<stop  offset="0.3657" style="stop-color:#AEAEAE"/>
	<stop  offset="0.5133" style="stop-color:#707070"/>
	<stop  offset="0.6468" style="stop-color:#404040"/>
	<stop  offset="0.7637" style="stop-color:#1D1D1D"/>
	<stop  offset="0.8595" style="stop-color:#080808"/>
	<stop  offset="0.9222" style="stop-color:#000000"/>
</linearGradient>
<path class="st0" d="M252.6,128.6c-1.9-0.6-4.2-0.9-8.9-1.4c-19.5-0.9-67.3-2.8-91.7-2.8s-72.3,1.9-91.7,2.8
	c-4.6,0.6-6.9,0.9-8.9,1.4c-6.2,1.4-7.5,3.6-7.5,8.2v30.6c0,4.4,4.6,7.5,7.9,8.1c3.2,0.7,5.3,0.9,8.6,1.2
	c17.3,1.1,57.6,3.4,91.5,3.4s74.1-2.3,91.5-3.4c3.3-0.3,5.4-0.6,8.6-1.2c3.2-0.6,7.9-3.6,7.9-8.1v-30.6
	C260.1,132.3,258.8,130.1,252.6,128.6z"/>
<radialGradient id="SVGID_2_" cx="288.9305" cy="-206.7556" r="150.7039" gradientTransform="matrix(1 0 0 -1.0216 -197.6 -192.2655)" gradientUnits="userSpaceOnUse">
	<stop  offset="0.2022" style="stop-color:#FFFFFF"/>
	<stop  offset="0.3822" style="stop-color:#FDFDFD"/>
	<stop  offset="0.4874" style="stop-color:#F4F4F4"/>
	<stop  offset="0.5732" style="stop-color:#E6E6E6"/>
	<stop  offset="0.6483" style="stop-color:#D2D2D2"/>
	<stop  offset="0.6889" style="stop-color:#C4C4C4"/>
	<stop  offset="1" style="stop-color:#333333"/>
</radialGradient>
<path class="st1" d="M74.2,129.9C83.7,96,115,71.1,152.3,71.1c37.1,0,68.4,24.7,78,58.5c0,0.1,0,0.2,0.1,0.3
	c5.5-0.7,10.5-1.7,13.9-2.5c-0.1-0.2-0.1-0.2-0.1-0.4c-10.9-40.4-48-70-92-70c-44.1,0-81.3,29.8-92.1,70.2
	C65.1,128.5,68.7,129.1,74.2,129.9z"/>
<radialGradient id="SVGID_3_" cx="653.6481" cy="-448.1432" r="313.8637" gradientTransform="matrix(1 0 0 -1.0216 -197.6 -192.2655)" gradientUnits="userSpaceOnUse">
	<stop  offset="0.2022" style="stop-color:#FFFFFF"/>
	<stop  offset="0.368" style="stop-color:#E4E4E4"/>
	<stop  offset="0.5944" style="stop-color:#C4C4C4"/>
	<stop  offset="1" style="stop-color:#333333"/>
</radialGradient>
<path class="st2" d="M230.1,174.2c-0.1,0.3-0.2,0.7-0.2,0.8c-10.2,33-41.1,57-77.6,57c-36.8,0-67.9-24.3-77.8-57.7
	c-6.1,1.1-8.1,1.5-14,2.3c11.1,40.1,48,69.4,91.9,69.4s80.8-29.5,91.9-69.6C238.9,175.9,235.9,175.3,230.1,174.2z"/>
<radialGradient id="SVGID_4_" cx="325.1298" cy="-378.881" r="96.3571" gradientTransform="matrix(1 0 0 -1.0216 -197.6 -192.2655)" gradientUnits="userSpaceOnUse">
	<stop  offset="0.2022" style="stop-color:#FFFFFF"/>
	<stop  offset="0.368" style="stop-color:#E4E4E4"/>
	<stop  offset="0.5944" style="stop-color:#C4C4C4"/>
	<stop  offset="1" style="stop-color:#333333"/>
</radialGradient>
<path class="st3" d="M76.2,129.8c2.3-1,4.5-2.5,8-3.5c10.4-27.4,37-46.9,68.2-46.9c31.1,0,57.7,19.4,68.1,46.7
	c0,0.1,0.1,0.2,0.1,0.2c1.8,0.7,7,2.8,8.6,3.5c0.2,0,0.8,0,1.2,0c0-0.1-0.1-0.2-0.1-0.3c-9.6-33.8-41-58.5-78-58.5
	c-37.2,0-68.5,24.8-78.1,58.7C74.8,129.9,75.8,129.8,76.2,129.8z"/>
<path class="st4" d="M151.8,73.3c34.8,0,65.7,21.2,77.4,56.2c0,0.1,0.1,0.2,0.1,0.3c0.2,0,0.9,0,1.2,0c0-0.1-0.1-0.2-0.1-0.3
	c-9.6-33.8-41-58.5-78-58.5c-37.2,0-68.5,24.8-78.1,58.7c0.8,0,1.1,0,1.9-0.1C86.6,96.5,117.2,73.3,151.8,73.3z"/>
<radialGradient id="SVGID_5_" cx="402.887" cy="-477.4093" r="182.8312" gradientTransform="matrix(1 0 0 -1.0216 -197.6 -192.2655)" gradientUnits="userSpaceOnUse">
	<stop  offset="0.2022" style="stop-color:#FFFFFF"/>
	<stop  offset="0.368" style="stop-color:#E4E4E4"/>
	<stop  offset="0.5944" style="stop-color:#C4C4C4"/>
	<stop  offset="1" style="stop-color:#333333"/>
</radialGradient>
<path class="st5" d="M228.2,174.4c-2.5,1.4-5.6,2.8-8.1,3.6c0,0.1-0.2,0.4-0.2,0.6c-10.8,26.5-37,45.3-67.5,45.3
	c-30.8,0-57.1-19-67.8-45.7c-2.9-0.8-7.1-2.8-8.8-3.6c-0.6,0-1,0-1.3-0.1c9.9,33.3,41,57.7,77.8,57.7c36.6,0,67.6-24.1,77.6-57.2
	c0-0.1,0.1-0.4,0.1-0.4C229.6,174.2,228.6,174.4,228.2,174.4z"/>
<radialGradient id="SVGID_6_" cx="348.1518" cy="-263.0221" r="145.2894" gradientTransform="matrix(1 0 0 -1.0216 -197.6 -192.2655)" gradientUnits="userSpaceOnUse">
	<stop  offset="0.2022" style="stop-color:#FFFFFF"/>
	<stop  offset="0.3966" style="stop-color:#FDFDFD"/>
	<stop  offset="0.5101" style="stop-color:#F4F4F4"/>
	<stop  offset="0.6029" style="stop-color:#E6E6E6"/>
	<stop  offset="0.6839" style="stop-color:#D2D2D2"/>
	<stop  offset="0.7278" style="stop-color:#C4C4C4"/>
	<stop  offset="1" style="stop-color:#4D4D4D"/>
</radialGradient>
<path class="st6" d="M250.9,130.9c-5.2-0.7-8.6-0.6-21.2-1c-0.5,0-1.2,0-1.7-0.1c-22.7-0.8-56.7-1.9-76-1.9s-53.4,1.1-76,1.9
	c-0.5,0-1.2,0-1.7,0.1c-12.5,0.4-16,0.3-21.2,1c-5.2,0.7-9.2,2.9-9.2,6.8v28.4c0,3.9,4.9,7.1,9.2,7.1c0,0,54.8,3.4,98.9,3.5
	c44.1,0,98.9-3.5,98.9-3.5c4.3,0,9.2-3.2,9.2-7.1v-28.4C260.1,133.7,256.1,131.5,250.9,130.9z"/>
<path class="st4" d="M228.2,174.4c-10.8,32.6-41.1,55.3-75.2,55.3c-34.6,0-65.2-20.9-77-55.3c-0.4,0-0.9,0-1.3-0.1
	c9.9,33.3,41,57.7,77.8,57.7s67.9-24.4,77.8-57.7C229.5,174.2,228.8,174.4,228.2,174.4z"/>
<path class="st7" d="M228.2,174.4L228.2,174.4c-2.6,1.4-5.7,2.8-8.2,3.6c0,0.1-0.2,0.4-0.2,0.6c-3.5,8.4-8.3,16-14.5,22.5
	C215,193.8,222.8,184.7,228.2,174.4z"/>
<path class="st8" d="M101.4,203.1c-7.2-7.1-13-15.6-16.7-25.1c-2.9-0.8-7.1-2.8-8.8-3.6c1.7,3.8,3.8,7.2,6.1,10.5
	c4.8,6.3,10.6,12,17.1,16.8C99.8,202.1,100.7,202.6,101.4,203.1z"/>
<path class="st9" d="M74.5,174.2L74.5,174.2L74.5,174.2c-6.1,1.1-8.1,1.5-14,2.3c0.4,1.8,1,3.4,1.6,5.2L74.5,174.2z"/>
<radialGradient id="NISSAN_1_" cx="153.9181" cy="210.746" r="97.8594" gradientTransform="matrix(1 0 0 1.0216 0 -3.2757)" gradientUnits="userSpaceOnUse">
	<stop  offset="0.1111" style="stop-color:#4D4D4D"/>
	<stop  offset="0.248" style="stop-color:#494949"/>
	<stop  offset="0.3546" style="stop-color:#404040"/>
	<stop  offset="0.451" style="stop-color:#2F2F2F"/>
	<stop  offset="0.5409" style="stop-color:#181818"/>
	<stop  offset="0.6111" style="stop-color:#000000"/>
</radialGradient>
<path id="NISSAN" class="st10" d="M195.9,143.3c-1.8-4.1-1.2-3.6-5.1-3.8c-0.3-0.1-1.2-0.1-2.4-0.1s-1.4,0-2.4,0.1
	c-3.7,0-3-0.2-4.3,2.5c0,0-6.4,14.6-9.1,20.6l-0.1,0.2c-0.5,1.1-0.2,1.1,0.6,1.1h5.7c0.4,0,0.6-0.2,0.8-0.4c0,0,0.9-1.9,1.9-4.4
	h13.9c1.1,2.5,1.8,4.3,1.8,4.4c0.1,0.3,0.4,0.4,0.8,0.4h5.9c0.9,0,1.1,0.1,0.8-0.7C203.8,160.8,196.8,145.6,195.9,143.3L195.9,143.3
	z M183.8,154c1.8-4.3,3.6-8.5,3.6-8.6c0.1-0.2,0.3-0.3,0.6-0.3c0.1-0.1,0.4-0.1,0.8-0.1c0.2,0,0.5,0,0.6,0.1c0.2,0,0.4,0.1,0.5,0.4
	c0.4,1.2,2.1,4.9,3.5,8.5L183.8,154L183.8,154z M107.4,139.2c0.5,0,0.6,0.2,0.6,0.7v23.2c0,0.6-0.1,0.8-0.8,0.8h-5.5
	c-0.6,0-0.8-0.1-0.8-0.8v-23.2c0-0.4,0.1-0.7,0.5-0.7H107.4L107.4,139.2z M95.6,139.5c0.6,0,0.8,0.2,0.8,0.8v23.1
	c0,0.7-0.1,0.8-0.8,0.8h-6.5c-3.8,0-4.1,0-5.4-2.2c-2.6-4.2-10.6-16.7-10.6-16.7v18.1c0,0.7-0.1,0.8-0.8,0.8h-4.8
	c-0.6,0-0.8-0.1-0.8-0.8v-23.1c0-0.6,0.1-0.8,0.8-0.8c0,0,1.3,0,5.5,0c4.1,0,4.6-0.1,6.2,2.1c1.2,2,10.8,17.1,10.8,17.1v-18.4
	c0-0.6,0.1-0.8,0.8-0.8H95.6L95.6,139.5z M237.2,139.5c0.6,0,0.8,0.2,0.8,0.8v23.1c0,0.7-0.1,0.8-0.8,0.8h-6.5c-3.8,0-4.1,0-5.4-2.2
	c-2.7-4.2-10.6-16.7-10.6-16.7v18.1c0,0.7-0.1,0.8-0.8,0.8h-4.8c-0.6,0-0.8-0.1-0.8-0.8v-23.1c0-0.6,0.1-0.8,0.8-0.8
	c0,0,1.3,0,5.5,0c4.1,0,4.6-0.1,6.2,2.1c1.3,2,10.8,17.1,10.8,17.1v-18.4c0-0.6,0.1-0.8,0.8-0.8H237.2L237.2,139.5z M131.7,148.9
	c4.2,0.4,7.3,1.2,8.2,5.3c0,0.3,0.1,1.4,0.1,2.6c0,0.8,0,1.8-0.2,2.6c-0.8,3.9-3.6,4.6-8.1,4.6h-17.8c-0.6,0-0.8-0.1-0.8-0.8v-3.9
	c0-0.7,0.1-0.8,0.8-0.8c0,0,17.7,0,18,0c0.8,0,1-0.2,1.1-0.8c0-0.4,0-0.7,0-1s0-0.6,0-0.7c-0.1-0.4-0.2-1.1-1.2-1.2
	c-2.1-0.1-8-0.7-12-1.1c-5.2-0.6-6.5-2.8-6.7-4.7c-0.1-0.7-0.1-1.5-0.1-2.3c0-0.7,0-1.7,0.1-2.4c0.8-3.4,3.2-5.1,7.8-5.1h17.3
	c0.6,0,0.9,0.1,0.9,0.7v4c0,0.6-0.2,0.8-0.9,0.7c0,0-16.5,0-17,0c-0.8,0-1.1,0.3-1.2,1.1c0,0.1,0,0.2,0,0.4c0,0.2,0,0.3,0,0.6
	c0,0.6,0.3,1,1.1,1.1C123,148.2,129.3,148.6,131.7,148.9L131.7,148.9z M162.3,148.9c4.2,0.4,7.3,1.2,8.2,5.3c0,0.3,0.1,1.4,0.1,2.6
	c0,0.8,0,1.8-0.2,2.6c-0.8,3.9-3.6,4.6-8.1,4.6h-17.7c-0.6,0-0.8-0.1-0.8-0.8v-3.9c0-0.7,0.1-0.8,0.8-0.8c0,0,17.7,0,18,0
	c0.8,0,1-0.2,1.1-0.8c0-0.4,0-0.7,0-1s0-0.6,0-0.7c-0.1-0.4-0.3-1.1-1.2-1.2c-2.1-0.1-8-0.7-12-1.1c-5.2-0.6-6.4-2.8-6.7-4.7
	c-0.1-0.7-0.1-1.5-0.1-2.3c0-0.7,0-1.7,0.1-2.4c0.8-3.4,3.2-5.1,7.8-5.1h17.3c0.6,0,0.9,0.1,0.9,0.7v4c0,0.6-0.2,0.8-0.9,0.7
	c0,0-16.5,0-17,0c-0.8,0-1.1,0.3-1.2,1.1c0,0.1,0,0.2,0,0.4c0,0.2,0,0.3,0,0.6c0,0.6,0.2,1,1.1,1.1
	C153.7,148.2,160,148.6,162.3,148.9L162.3,148.9z"/>
</svg>
