<svg xmlns="http://www.w3.org/2000/svg" viewBox="0 0 300 300"><radialGradient id="A" cx="145.8" cy="886.614" r="89.688" gradientTransform="matrix(0.9963 0 0 1 -3.8079 -780)" gradientUnits="userSpaceOnUse"><stop offset=".478" stop-color="#fff"/><stop offset=".56" stop-color="#f9f9f9"/><stop offset=".674" stop-color="#e7e7e7"/><stop offset=".806" stop-color="#c9c9c9"/><stop offset=".951" stop-color="#a1a1a1"/><stop offset="1" stop-color="#919191"/></radialGradient><path d="M220.7 146.5c-3.2-6.7-10.6-21.2-18.2-35-10.6-19.3-27.3-46.9-29-49.2-.5-.6-.8-1.1-1.2-1.3-.2-.2-.4-.3-.7-.3-.4-.1-1.4-.1-2.1 0h-1.2l-17.7-.3c-8.6 0-19.1.3-20.4.4-.7.1-1 .2-1.2.3-.3.2-.7.4-1.3 1.2-1.6 2.4-18.3 29.9-29 49.2-7.5 13.7-15 28.2-18.2 35-.8 1.8-1 3-1 3.5 0 1 .3 2.1 1 3.5 3.2 6.7 10.6 21.2 18.2 35 10.6 19.3 27.3 46.9 29 49.2.3.4.5.7.7.9.4.4.7.6 1.1.8.4.1 1.3.1 2 0h1.2l17.8.3c8.6 0 18.7-.2 20.3-.4h.2c.6-.1.9-.2 1.1-.2.3-.1.6-.4 1.4-1.4 1.7-2.4 18.3-29.7 28.9-49.1 7.5-13.7 15-28.2 18.2-35 .8-1.8 1-3.2 1-3.7.1-1.1-.2-2-.9-3.4zm-49.1 7.1c-7.1 16-12.2 25.9-19.7 40.3-.4.8-.8 1.4-1.3 1.4s-.8-.5-1.3-1.4c-7.5-14.4-12.5-24.4-19.7-40.3-.6-1.4-1-2.4-1-3.7 0-1.2.4-2.3 1-3.6 7.1-16 12.2-25.9 19.7-40.3.4-.8.8-1.4 1.3-1.4h0c.5 0 .8.5 1.3 1.4 7.5 14.4 12.5 24.4 19.7 40.3.6 1.4 1 2.4 1 3.7.1 1.3-.4 2.3-1 3.6z" fill="url(#A)"/><linearGradient id="B" gradientUnits="userSpaceOnUse" x1="115.25" y1="238.725" x2="115.25" y2="150.444"><stop offset=".01" stop-color="#e5e5e5"/><stop offset=".339" stop-color="#a6a6a6"/><stop offset=".694" stop-color="#333"/><stop offset=".845" stop-color="#1a1a1a"/><stop offset=".948" stop-color="#111"/><stop offset=".962" stop-color="#141414"/><stop offset=".973" stop-color="#1d1d1d"/><stop offset=".982" stop-color="#2d2d2d"/><stop offset=".991" stop-color="#444"/><stop offset=".999" stop-color="#616161"/><stop offset="1" stop-color="#666"/></linearGradient><path d="M124.3 155.8s-2.1-3.9-2.2-5.5v-.5c0-.4-.1-.3-.5.1-.6.6-1.7 1.1-4.3 1.1H85.7c-1.4 0-3.2-.1-3.2 2.1 0 1.3 1.1 3.9 3.4 8.4 12.6 24.6 26.5 49.1 41.4 73l2.5 4c.2.3.5.4 1.1.4 0 0 9.5-17.4 17.1-36.3-8.4-15.6-16.3-31.2-23.7-46.8z" fill="url(#B)"/><linearGradient id="C" gradientUnits="userSpaceOnUse" x1="130.9" y1="239" x2="130.9" y2="239"><stop offset=".01" stop-color="#e5e5e5"/><stop offset=".339" stop-color="#a6a6a6"/><stop offset=".694" stop-color="#333"/><stop offset=".845" stop-color="#1a1a1a"/><stop offset=".948" stop-color="#111"/><stop offset=".962" stop-color="#141414"/><stop offset=".973" stop-color="#1d1d1d"/><stop offset=".982" stop-color="#2d2d2d"/><stop offset=".991" stop-color="#444"/><stop offset=".999" stop-color="#616161"/><stop offset="1" stop-color="#666"/></linearGradient><path d="M130.9 239h0z" fill="url(#C)"/><linearGradient id="D" gradientUnits="userSpaceOnUse" x1="176.186" y1="238.721" x2="176.186" y2="150.364"><stop offset=".01" stop-color="#e5e5e5"/><stop offset=".339" stop-color="#a6a6a6"/><stop offset=".694" stop-color="#333"/><stop offset=".845" stop-color="#1a1a1a"/><stop offset=".954" stop-color="#111"/><stop offset=".967" stop-color="#141414"/><stop offset=".976" stop-color="#1d1d1d"/><stop offset=".984" stop-color="#2d2d2d"/><stop offset=".992" stop-color="#444"/><stop offset=".999" stop-color="#616161"/><stop offset="1" stop-color="#666"/></linearGradient><path d="M219.9 150.2c-.3.4-1.3.9-3.4.9h-26.1c-11.9 0-10.7-.3-13.8 6-1.4 2.8-2.8 6.1-4.3 8.8-10.4 21.8-35.9 65.8-39.3 71.2-1.3 2-1.5 2.2-.5 2.2a591.4 591.4 0 0 0 18.3.3c15 0 20.4-.4 20.4-.4 8.7-13.6 29.5-47.9 44.3-77.7 3.4-6.9 5.1-9.8 5-11.3-.2-.3-.4-.1-.6 0z" fill="url(#D)"/><linearGradient id="E" gradientUnits="userSpaceOnUse" x1="146.85" y1="149.409" x2="146.85" y2="60.509"><stop offset="0" stop-color="#333"/><stop offset=".009" stop-color="#292929"/><stop offset=".024" stop-color="#1e1e1e"/><stop offset=".04" stop-color="#1a1a1a"/><stop offset=".123" stop-color="#151515"/><stop offset=".226" stop-color="#050505"/><stop offset=".252"/></linearGradient><path d="M170.4 61c-.6 0-1.1.5-2 1.8-7.4 11.4-32.8 59.3-43.2 81.7-1.3 2.7-1.9 4.1-1.9 5.4h5.4c0-1.2.4-2.3 1-3.6 7.1-16 12.2-25.9 19.7-40.3.4-.8.8-1.4 1.3-1.4h0l2.1-6.1c7.3-18.2 17.6-37.5 17.6-37.5z" fill="url(#E)"/><linearGradient id="F" gradientUnits="userSpaceOnUse" x1="164.4" y1="150.023" x2="164.4" y2="98.523"><stop offset="0" stop-color="#737373"/><stop offset=".149" stop-color="#6e6e6e"/><stop offset=".332" stop-color="#5e5e5e"/><stop offset=".535" stop-color="#454545"/><stop offset=".749" stop-color="#222"/><stop offset=".795" stop-color="#1a1a1a"/><stop offset=".921"/></linearGradient><path d="M178.1 150c0-1.3-.6-2.6-1.9-5.3-7.2-15.3-14.7-30.1-23.4-46.1l-2.1 6.1c.5 0 .8.5 1.3 1.4 7.5 14.4 12.5 24.4 19.7 40.3.6 1.4 1 2.4 1 3.7h0l5.4-.1z" fill="url(#F)"/><linearGradient id="G" gradientUnits="userSpaceOnUse" x1="154.45" y1="238.407" x2="154.45" y2="149.507"><stop offset="0" stop-color="#fff"/><stop offset=".216" stop-color="#f9f9f9"/><stop offset=".512" stop-color="#e7e7e7"/><stop offset=".851" stop-color="#cbcbcb"/><stop offset=".969" stop-color="#bfbfbf"/><stop offset=".991" stop-color="#737373"/></linearGradient><path d="M130.9 239c.6 0 1.3-.7 2.1-2l.9-1.4c5.6-9.5 32.3-58.9 42.2-80.1 1.3-2.7 1.9-4.1 1.9-5.4h-5.4c0 1.3-.4 2.3-1 3.6-7.1 16-12.2 25.9-19.7 40.3-.4.8-.8 1.4-1.3 1.4l-2.1 6.1c-7.7 19.4-17.6 37.5-17.6 37.5z" fill="url(#G)"/><linearGradient id="H" gradientUnits="userSpaceOnUse" x1="137" y1="201.564" x2="137" y2="150.064"><stop offset=".357" stop-color="#bfbfbf"/><stop offset=".474" stop-color="#bababa"/><stop offset=".61" stop-color="#acacac"/><stop offset=".754" stop-color="#959595"/><stop offset=".903" stop-color="#757575"/><stop offset=".963" stop-color="#666"/><stop offset="1" stop-color="#333"/></linearGradient><path d="M150.7 195.3h0c-.5 0-.8-.5-1.3-1.4-7.5-14.4-12.5-24.4-19.7-40.3-.6-1.4-1-2.4-1-3.7h0-5.4c0 1.3.6 2.7 1.9 5.4h0c7.2 15.3 14.7 30.1 23.4 46.1l2.1-6.1z" fill="url(#H)"/><linearGradient id="I" gradientUnits="userSpaceOnUse" x1="102.4" y1="241.9" x2="102.4" y2="150"><stop offset="0" stop-color="#666"/><stop offset=".185" stop-color="#5e5e5e"/><stop offset=".584" stop-color="#515151"/><stop offset=".97" stop-color="#4d4d4d"/><stop offset=".988" stop-color="#757575"/><stop offset="1" stop-color="#8c8c8c"/></linearGradient><path d="M128.6 238.6c-.2-.2-.5-.5-.7-.9-1.7-2.4-18.4-29.9-29-49.2-7.5-13.7-15-28.2-18.2-35-.6-1.4-1-2.5-1-3.5h-3.5c0 1.2.3 2.7 1.3 5 2.5 5.4 9.4 19 18.3 35.1 9.7 17.6 27.3 46.9 29.2 49.6.8 1.1 1.5 1.8 2.2 2.2l1.4-3.3z" fill="url(#I)"/><linearGradient id="J" gradientUnits="userSpaceOnUse" x1="133.107" y1="230.767" x2="168.504" y2="251.204"><stop offset=".019" stop-color="#666"/><stop offset=".041" stop-color="#4a4a4a"/><stop offset=".063" stop-color="#363636"/><stop offset=".084" stop-color="#292929"/><stop offset=".105" stop-color="#252525"/></linearGradient><path d="M127.2 241.9c.9.6 1.8.7 2.9.8 2.6.2 14.1.4 20.7.4s19-.3 20.7-.4c.8-.1 1.5-.1 2.3-.5l-1.4-3.3c-.2.1-.5.2-1.1.2h-.2c-1.5.2-11.6.4-20.3.4-7 0-13.5-.2-17.8-.3h-1.2c-.7.1-1.5.2-2 0-.4-.1-.8-.4-1.1-.8l-1.5 3.5z" fill="url(#J)"/><linearGradient id="K" gradientUnits="userSpaceOnUse" x1="159.871" y1="83.06" x2="238.331" y2="126.016"><stop offset="0" stop-color="#595959"/><stop offset="1" stop-color="#737373"/></linearGradient><path d="M225.2 150c0-1-.2-2.7-1.3-5-2.6-5.5-11.1-22.2-18.3-35.1-9.6-17.3-27.2-46.8-29.2-49.6-1.1-1.4-1.9-2.1-2.7-2.5l-1.3 3.2c.4.3.8.7 1.2 1.3 1.7 2.4 18.4 29.9 29 49.2 7.5 13.7 15 28.2 18.2 35 .6 1.4 1 2.3 1 3.3l3.4.2z" fill="url(#K)"/><linearGradient id="L" gradientUnits="userSpaceOnUse" x1="171.577" y1="65.203" x2="129.072" y2="53.015"><stop offset=".01" stop-color="#595959"/><stop offset=".025" stop-color="#757575"/><stop offset=".044" stop-color="#909090"/><stop offset=".061" stop-color="#a0a0a0"/><stop offset=".074" stop-color="#a6a6a6"/><stop offset=".501" stop-color="#bebebe"/><stop offset="1" stop-color="#bfbfbf"/></linearGradient><path d="M127.7 57.8l1.4 3.3c.3-.1.5-.3 1.2-.3 1.3-.1 11.8-.4 20.4-.4 7 0 14.2.1 17.7.3h1.2c.7-.1 1.6-.2 2.1 0 .2.1.4.2.7.3l1.3-3.2c-.8-.4-1.5-.4-2.4-.5-2.7-.2-14.4-.4-20.6-.4-5.4 0-17.9.1-20.9.4-.9.1-1.5.3-2.1.5z" fill="url(#L)"/><linearGradient id="M" gradientUnits="userSpaceOnUse" x1="64.308" y1="119.021" x2="140.103" y2="89.926"><stop offset="0" stop-color="#8c8c8c"/><stop offset=".987" stop-color="#737373"/><stop offset="1" stop-color="#bfbfbf"/></linearGradient><path d="M127.7 57.8c-1.1.5-1.8 1.3-2.8 2.6-2 2.6-19.6 32.4-29.1 49.4-6.7 12-17.3 32.9-18.3 35.2s-1.3 3.8-1.3 5h3.5c0-.5.1-1.7 1-3.5 3.2-6.7 10.6-21.2 18.2-35 10.6-19.3 27.3-46.8 29-49.2.6-.8.9-1 1.3-1.2l-1.5-3.3z" fill="url(#M)"/><linearGradient id="N" gradientUnits="userSpaceOnUse" x1="198.7" y1="242.2" x2="198.7" y2="149.8"><stop offset=".019" stop-color="#252525"/><stop offset=".216" stop-color="#2e2e2e"/><stop offset=".599" stop-color="#3b3b3b"/><stop offset=".97" stop-color="#3f3f3f"/><stop offset=".986" stop-color="#5c5c5c"/><stop offset="1" stop-color="#737373"/></linearGradient><path d="M173.7 242.2c.9-.4 1.7-1.1 2.7-2.5 1.9-2.6 20.8-34.3 29.2-49.6s17.3-33 18.3-35.1c1.2-2.7 1.3-4 1.3-5l-3.5-.2c0 .5-.1 1.9-1 3.7-3.2 6.7-10.6 21.2-18.2 35-10.6 19.3-27.2 46.7-28.9 49.1-.7 1-1 1.3-1.4 1.4h0l1.5 3.2z" fill="url(#N)"/><path d="M171.7 146.4c-.3-.6-4.3-9.7-8.9-19L152 106.1c-.5-.8-.8-1.4-1.3-1.4s-.8.5-1.3 1.4l-10.8 21.3c-4.9 9.8-8.6 18.5-8.9 19-.5 1.1-1 2.4-1 3.6s.5 2.3 1 3.7c.3.6 4.3 9.7 8.9 19.1l10.8 21.2c.4.8.8 1.4 1.3 1.4s.8-.5 1.3-1.4l10.8-21.2c4.6-9.4 8.6-18.4 8.9-19.1.6-1.4 1-2.4 1-3.6 0-1.3-.4-2.3-1-3.7zm-.9 6.8h0c-.1.2-4.2 9.4-8.9 19.1l-10.8 21.2c-.2.3-.3.6-.4.6s-.2-.2-.4-.6c0 0-.1-.2-.3-.5l-10.5-20.7-8.9-19.1v-.1c-.5-1.2-.9-2.2-.9-3.2s.5-2.1 1-3.2c0-.1.1-.2.2-.5a678.37 678.37 0 0 1 8.6-18.5l10.8-21.2c.2-.3.3-.6.4-.6s.2.3.4.6c0 .1 5.7 10.8 10.8 21.2 4.5 9.2 8.4 18 8.9 19 .6 1.3.9 2.2.9 3.2 0 1.1-.4 1.9-.9 3.3zm53.1-8.2c-2.7-5.6-11.1-22.2-18.3-35.1-9.8-17.7-27.2-46.9-29.2-49.6-2-2.6-3.1-2.7-4.9-2.9h-.3c-2.6-.3-13.8-.4-20.6-.4-5.8 0-18 .1-20.9.4-2.7.3-3.4 1.1-4.9 3.1-2.1 2.7-19.9 32.8-29.1 49.4C89 122 78.4 142.8 77.4 145c-.9 2-1.3 3.6-1.3 5 0 1.5.4 3.1 1.3 5 2.2 4.8 8.9 18.1 18.3 35.1 9.7 17.7 27.4 47 29.2 49.6 2 2.7 3.3 2.8 5 3 2.7.2 14.4.4 20.7.4 6.8 0 19-.3 20.7-.4 1.7-.2 3.1-.3 5-3 1.8-2.5 20.7-34 29.2-49.6 8.2-14.9 17.2-32.8 18.3-35.1 1.1-2.6 1.3-3.9 1.3-5 .1-.9-.1-2.6-1.2-5zm-.9 9.6c-1 2.3-10.1 20.2-18.2 35.1-8.5 15.5-27.4 47-29.2 49.5-1.7 2.3-2.7 2.4-4.3 2.5-1.7.2-13.8.4-20.6.4-6.2 0-17.9-.2-20.6-.4-1.7-.1-2.6-.2-4.3-2.6-1.9-2.5-19.4-31.8-29.2-49.5-9.3-17-16-30.3-18.2-35.1-.8-1.8-1.2-3.3-1.2-4.6s.4-2.7 1.2-4.6c1-2.2 11.5-23 18.2-35.1 9.2-16.7 26.9-46.6 29-49.3 1.5-1.9 2-2.5 4.2-2.7 2.8-.3 15-.4 20.8-.4 6.7 0 17.9.1 20.5.4h.3c1.7.2 2.5.3 4.2 2.5 2 2.6 19.4 31.8 29.2 49.5 7.1 12.9 15.5 29.5 18.2 35.1 1 2.2 1.2 3.8 1.2 4.6 0 1.1-.2 2.3-1.2 4.7z"/></svg>