<svg xmlns="http://www.w3.org/2000/svg" xmlns:xlink="http://www.w3.org/1999/xlink" viewBox="0 0 300 300"><style><![CDATA[.M{fill-rule:evenodd}]]></style><path d="M150 103.2c40.2 0 76.7 5.4 103.1 14 27.1 8.9 43.9 19.4 43.9 33.5s-16.8 26.7-43.9 35.6c-26.4 8.7-62.9 14-103.1 14s-76.7-5.4-103.1-14C19.7 177.5 3 164.9 3 150.8s16.8-24.6 43.9-33.5c26.4-8.7 62.9-14.1 103.1-14.1h0zm101.8 15.9c-26-8.5-62-13.8-101.8-13.8s-75.8 5.3-101.8 13.8c-25.3 8.3-41 19.5-41 31.6s15.7 23.3 41 31.6c26 8.5 62 13.8 101.8 13.8s75.8-5.3 101.8-13.8c25.3-8.3 41-19.5 41-31.6s-15.6-23.3-41-31.6z" fill="#231f20" class="M"/><linearGradient id="A" gradientUnits="userSpaceOnUse" x1="150" y1="198.29" x2="150" y2="103.21"><stop offset="0" stop-color="#3b3b3b"/><stop offset=".264" stop-color="#bab7b7"/><stop offset=".596" stop-color="#494848"/><stop offset="1" stop-color="#fff"/></linearGradient><path d="M150 103.2c80 0 144.9 21.3 144.9 47.5 0 26.3-64.9 47.5-144.9 47.5S5.1 177 5.1 150.8c0-26.3 64.9-47.6 144.9-47.6h0zm65.5 46.1c7.6 6.7 13.4 10.2 20.3 10.2 12.4-.4 19.7-4.9 22.3-14.7 2.7-14.4-29.8-26.2-86.4-31.1 0-.1 14.4 11.9 43.8 35.6h0zm-105.2 7.2c-1.4 1.2 4.9 11.9 7.2 11.7a367.91 367.91 0 0 0 64.7 0c2.6 0 9.4-11.5 7.8-12.9 0 0-8.6-7.5-26.9-21.8-8.2-6.9-18-7.7-26.2-.8-.1 0-10.6 7.5-26.6 23.8h0zm-25.4-6.9l43.8-35.7c-56.6 4.9-89 16.7-86.4 31.1 2.6 9.8 9.9 14.3 22.3 14.7 6.9.2 12.7-3.3 20.3-10.1z" fill="url(#A)" class="M"/><linearGradient id="B" gradientUnits="userSpaceOnUse" x1="150" y1="188.782" x2="150" y2="109.342"><stop offset="0" stop-color="#cecccc"/><stop offset=".36" stop-color="#bdbcbc"/><stop offset=".47" stop-color="#cecece"/><stop offset=".54" stop-color="#fff"/><stop offset=".62" stop-color="#231f20"/><stop offset="1" stop-color="#231f20"/></linearGradient><path d="M150 109.3c69.9 0 126.6 17.8 126.6 39.7s-56.7 39.7-126.6 39.7S23.4 171 23.4 149.1c0-22 56.7-39.8 126.6-39.8h0zm-39.7 47.2c-1.4 1.2 4.9 11.9 7.2 11.7a367.91 367.91 0 0 0 64.7 0c2.6 0 9.4-11.5 7.8-12.9 0 0-8.6-7.3-26.9-21.8-8.2-6.9-18.5-7.3-26.7-.4-.1 0-10.2 7.8-26.1 23.4h0zm-25.4-6.9l43.8-35.7c-56.6 4.9-89 16.7-86.4 31.1 2.6 9.8 9.9 14.3 22.3 14.7 6.9.2 12.7-3.3 20.3-10.1h0zm130.6-.3c7.6 6.7 13.4 10.2 20.3 10.2 12.4-.4 19.7-4.9 22.3-14.7 2.7-14.4-29.8-26.2-86.4-31.1 0-.1 14.4 11.9 43.8 35.6z" fill="url(#B)" class="M"/><linearGradient id="C" gradientUnits="userSpaceOnUse" x1="80.293" y1="142.241" x2="219.963" y2="142.241"><stop offset="0" stop-color="#231f20"/><stop offset=".23" stop-color="#302d2f"/><stop offset=".51" stop-color="#dadad8"/><stop offset=".81" stop-color="#3d3c3e"/><stop offset="1" stop-color="#231f20"/></linearGradient><use xlink:href="#I" fill="url(#C)" class="M"/><linearGradient id="D" gradientUnits="userSpaceOnUse" x1="182.411" y1="164.851" x2="220.04" y2="164.851"><stop offset="0" stop-color="#e6e7e8"/><stop offset="1" stop-color="#9f9e9f"/></linearGradient><path d="M182.4 168.2c4.5-3.6 6.8-8.1 7.4-12.1l30.2 12.1c.3 2.5-.1 4.7-2.2 5.6l-35.4-5.6z" fill="url(#D)" class="M"/><linearGradient id="E" gradientUnits="userSpaceOnUse" x1="117.458" y1="165.339" x2="80.215" y2="165.339"><stop offset="0" stop-color="#e6e7e8"/><stop offset="1" stop-color="#9f9e9f"/></linearGradient><g class="M"><path d="M117.5 168.2c-4.5-3.6-6.6-7.7-7.2-11.7l-30 12.2c-.3 2.5.1 4.7 2.2 5.6l35-6.1z" fill="url(#E)"/><path d="M117.5 168.2l-35 6c45.3 9 90.5 8.8 135.4-.5l-35.4-5.5c-23 1.7-45 1.5-65 0z" fill="#a6a8ab"/></g><linearGradient id="F" gradientUnits="userSpaceOnUse" x1="149.862" y1="160.481" x2="150.781" y2="115.878"><stop offset="0" stop-color="#cecccc"/><stop offset=".187" stop-color="#bdbcbc"/><stop offset=".264" stop-color="#cecece"/><stop offset=".372" stop-color="#fff"/><stop offset=".387" stop-color="#e5e5e5"/><stop offset=".415" stop-color="#bdbcbc"/><stop offset=".446" stop-color="#989697"/><stop offset=".481" stop-color="#787676"/><stop offset=".519" stop-color="#5d5a5b"/><stop offset=".561" stop-color="#484445"/><stop offset=".611" stop-color="#373334"/><stop offset=".673" stop-color="#2c2829"/><stop offset=".76" stop-color="#252122"/><stop offset="1" stop-color="#231f20"/></linearGradient><path d="M215.2 148.9h0l-46.7-38.2c-5.8-4.4-11.8-6.6-17.9-6.6s-12.1 2.2-17.9 6.6l-.1.1L86 148.9s-12.6 10.9-22.4 11c3.5 0 12.9.1 22-7.3l48.7-39.8c5.3-4 10.8-6 16.4-6s11 2 16.4 6l48.7 39.8c12.3 8.5 17.1 6.9 20.5 7-10-.2-21.1-10.7-21.1-10.7z" fill="url(#F)" class="M"/><linearGradient id="G" gradientUnits="userSpaceOnUse" x1="150.624" y1="107.906" x2="150.624" y2="169.545"><stop offset="0" stop-color="#e5e6e7"/><stop offset=".167" stop-color="#e3e4e5"/><stop offset=".261" stop-color="#dbdcdc"/><stop offset=".337" stop-color="#cececf"/><stop offset=".4" stop-color="#bdbcbc"/><stop offset=".456" stop-color="#c8c8c9"/><stop offset=".52" stop-color="#d9dbdc"/><stop offset=".542" stop-color="#e4e6e6"/><stop offset=".585" stop-color="#f3f4f4"/><stop offset=".636" stop-color="#fcfcfc"/><stop offset=".712" stop-color="#fff"/><stop offset=".725" stop-color="#f4f3f3"/><stop offset=".765" stop-color="#d7d6d6"/><stop offset=".799" stop-color="#c5c3c3"/><stop offset=".823" stop-color="#bfbdbd"/></linearGradient><path d="M226.8 158.5c-2.8-1-6.4-2.7-11.2-6l-48.7-39.8c-5.3-4-10.8-6-16.4-6s-11 2-16.4 6l-48.7 39.8c-3.6 2.9-7.2 4.7-10.5 5.7-3.8 10.4 4.9 8.5 4.9 8.5h2.5c27.3-25.3 46.8-41.1 58.5-47.4 6.7-4.5 12.7-4.5 18.2 0 18 12.7 36.9 27.8 56.8 45.3h0c.7.6 1.3 1.2 2 1.8h3.3c6.8-1.7 6.3-6.1 5.7-7.9z" fill="url(#G)" class="M"/><use xlink:href="#I" fill="url(#C)" class="M"/><path d="M182.4 168.2c4.5-3.6 6.8-8.1 7.4-12.1l30.2 12.1c.3 2.5-.1 4.7-2.2 5.6l-35.4-5.6z" fill="url(#D)" class="M"/><g class="M"><path d="M117.5 168.2c-4.5-3.6-6.6-7.7-7.2-11.7l-30 12.2c-.3 2.5.1 4.7 2.2 5.6l35-6.1z" fill="url(#E)"/><path d="M117.5 168.2l-35 6c45.3 9 90.5 8.8 135.4-.5l-35.4-5.5c-23 1.7-45 1.5-65 0z" fill="#a6a8ab"/><path d="M189.8 155.9c-21.5-19.1-34.7-27.6-39.7-26.9-7.5.5-20.8 9.3-39.8 27.4l-30 12.2 30-11.6c19-17.3 32.3-25.7 39.8-26.2 5-.6 18.2 7.5 39.7 25.8 0 0 10 4.1 30.2 11.6l-30.2-12.3z" fill="#231f20"/></g><defs ><path id="I" d="M110.3 156.5l-30 12.2c28.4-26.4 48.6-42.9 60.6-49.4 6.7-4.5 12.7-4.5 18.2 0 19.2 13.5 39.5 29.8 60.8 48.9l-30.2-12.1C168.2 137 155 128.5 150 129.2c-7.4.4-20.8 9.2-39.7 27.3z"/></defs></svg>