<?xml version="1.0" encoding="utf-8"?>
<!-- Generator: Adobe Illustrator 21.0.2, SVG Export Plug-In . SVG Version: 6.00 Build 0)  -->
<svg version="1.1" id="Layer_1" xmlns="http://www.w3.org/2000/svg" xmlns:xlink="http://www.w3.org/1999/xlink" x="0px" y="0px"
	 viewBox="0 0 300 300" style="enable-background:new 0 0 300 300;" xml:space="preserve">
<style type="text/css">
	.st0{fill:url(#SVGID_1_);}
	.st1{fill:url(#SVGID_2_);}
	.st2{fill:url(#SVGID_3_);}
	.st3{fill:url(#SVGID_4_);}
	.st4{fill:#1A1A1A;}
	.st5{fill:url(#SVGID_5_);}
	.st6{fill:#FFFFFF;}
	.st7{fill:url(#SVGID_6_);}
	.st8{fill:url(#SVGID_7_);}
	.st9{fill:url(#SVGID_8_);}
	.st10{fill:url(#SVGID_9_);}
	.st11{fill:url(#SVGID_10_);}
	.st12{fill:url(#SVGID_11_);}
	.st13{fill:url(#SVGID_12_);}
</style>
<path d="M36.1,151c0,39.1,51.2,70.9,114,70.9s114-31.8,114-70.9c-0.1-39.1-51.2-70.9-114-70.9S36.1,111.9,36.1,151z M37.1,151
	c0-38.4,50.6-69.8,112.9-69.8c62.2,0,112.9,31.3,112.9,69.7s-50.6,69.7-112.9,69.7C87.8,220.7,37.1,189.4,37.1,151z"/>
<path d="M139.2,93.2c-26.1,1.6-45.7,8.6-48.8,17.4c-0.3,0.9-0.4,1.7-0.4,2.6c0,1.4,0.4,2.7,1.1,4.1c3.5,6.1,14.8,11.1,31,13.9
	l0.5,0.1l0.1-0.5c2.7-16.9,8.9-30.1,16.8-36.5l1.3-1.1L139.2,93.2z M92.1,116.7c-0.7-1.1-1.1-2.3-1.1-3.5c0-0.7,0.1-1.4,0.4-2.2l0,0
	c2.8-8.1,21.8-14.8,46.3-16.5c-7.4,6.7-13.2,19.5-15.9,35.5C106.5,127.2,95.4,122.3,92.1,116.7z M90.4,110.6L90.4,110.6L90.4,110.6z
	"/>
<path d="M135.4,132.1l-0.1,0.6l0.6,0.1c4.6,0.4,9.4,0.5,14.1,0.5s9.5-0.2,14.1-0.5l0.6-0.1l-0.1-0.6c-2.6-14.1-8.2-22.8-14.7-22.8
	C143.5,109.3,138,118,135.4,132.1z M150.1,110.4c5.8,0,11,8.1,13.4,21.3c-4.3,0.4-8.8,0.5-13.4,0.5c-4.5,0-9-0.2-13.4-0.5
	C139.1,118.6,144.3,110.4,150.1,110.4z"/>
<path d="M160.5,94.2c7.9,6.4,14.1,19.6,16.8,36.5l0.1,0.5l0.5-0.1c16.2-2.7,27.5-7.8,31-13.9c1.2-2.2,1.5-4.4,0.7-6.6
	c-3.1-8.8-22.7-15.8-48.8-17.4l-1.8-0.1L160.5,94.2z M162.4,94.5c24.5,1.8,43.4,8.5,46.3,16.5c0.3,0.7,0.4,1.4,0.4,2.2
	c0,1.1-0.4,2.4-1.1,3.5c-3.3,5.7-14.4,10.5-29.8,13.3C175.5,114,169.8,101.2,162.4,94.5z"/>
<path d="M73,118.1c-11.8,9.9-18.1,21.6-18.1,33.9c0,29.2,35.9,53.8,83.4,57.4l1.7,0.1l-1.2-1.1c-10.8-9.3-17.5-31-17.5-56.8l0.1-5
	l-0.4-0.1C94.7,141.8,76.7,131,74,118.4l-0.2-0.9L73,118.1z M56.1,152.1c0-11.8,5.9-23,17.1-32.5c3.4,12.5,21.3,23.2,47.1,27.9
	c0,0.8-0.1,4.2-0.1,4.2c0,25.2,6.4,46.6,16.7,56.6C90.7,204.2,56.1,180.3,56.1,152.1z"/>
<path d="M134,148.9v0.6c0,22.6,7.1,40.3,16.1,40.3s16.1-17.7,16.1-40.3v-1.2l-0.6,0.1c-5,0.4-10.3,0.7-15.5,0.7
	c-5.2,0-10.4-0.3-15.5-0.7l-0.6-0.1V148.9z M135.2,149.5C135.2,149.5,135.2,149.4,135.2,149.5c4.9,0.4,9.9,0.6,14.9,0.6
	c5,0,10.1-0.2,14.9-0.6v0.1c0,22-6.5,39.2-14.9,39.2C141.7,188.7,135.2,171.5,135.2,149.5z"/>
<path d="M226.2,118.4c-2.7,12.6-20.7,23.3-46.9,28.1l-0.4,0.1l0.1,5c0,25.8-6.7,47.5-17.5,56.8l-1.2,1.1l1.7-0.1
	c47.5-3.5,83.4-28.2,83.4-57.4c0-12.3-6.3-24-18.1-33.9l-0.7-0.6L226.2,118.4z M227.1,119.5c11.1,9.5,17.1,20.8,17.1,32.5
	c0,28.3-34.6,52.1-80.8,56.1c10.3-10,16.7-31.4,16.7-56.6c0,0-0.1-3.4-0.1-4.2C205.8,142.8,223.6,132.1,227.1,119.5z"/>
<linearGradient id="SVGID_1_" gradientUnits="userSpaceOnUse" x1="150.0884" y1="93.5993" x2="150.0884" y2="173.7093" gradientTransform="matrix(1 0 0 -1 0 300)">
	<stop  offset="0" style="stop-color:#CCCCCC"/>
	<stop  offset="0.1575" style="stop-color:#F2F2F2"/>
	<stop  offset="0.1753" style="stop-color:#F0F0F0"/>
	<stop  offset="0.2667" style="stop-color:#E8E8E8"/>
	<stop  offset="0.44" style="stop-color:#E5E5E5"/>
	<stop  offset="0.5376" style="stop-color:#CECECE"/>
	<stop  offset="0.7429" style="stop-color:#929292"/>
	<stop  offset="1" style="stop-color:#3F3F3F"/>
</linearGradient>
<path class="st0" d="M226.3,109c0.2,0.4,0.4,0.9,0.4,1.4c0.7,2.7,0.5,5.2-0.4,7.8c11.5,9.5,18.3,21.2,18.3,33.8
	c0,31.6-42.3,57.3-94.6,57.3s-94.6-25.6-94.6-57.3c0-12.6,6.8-24.4,18.3-33.8c-0.9-2.6-1-5.1-0.4-7.8c0.1-0.4,0.4-1,0.5-1.5
	c-15.7,11.2-25.2,25.8-25.2,41.9c0,35,45.3,63.5,101.3,63.5s101.3-28.4,101.3-63.5C251.4,134.8,241.9,120.2,226.3,109z"/>
<linearGradient id="SVGID_2_" gradientUnits="userSpaceOnUse" x1="164.4708" y1="162.5523" x2="137.2842" y2="185.3646" gradientTransform="matrix(1 0 0 -1 0 300)">
	<stop  offset="0" style="stop-color:#E5E5E5"/>
	<stop  offset="0.44" style="stop-color:#E5E5E5"/>
	<stop  offset="0.5376" style="stop-color:#CECECE"/>
	<stop  offset="0.7429" style="stop-color:#929292"/>
	<stop  offset="1" style="stop-color:#3F3F3F"/>
</linearGradient>
<path class="st1" d="M135.9,132.3l-2.9,2.1c2.4-18.2,9.1-29.8,17-29.8s14.6,11.7,17,29.8l-2.9-2.1l0,0c-2.5-13.8-7.9-22.4-14.1-22.4
	C143.8,109.8,138.4,118.5,135.9,132.3L135.9,132.3z"/>
<linearGradient id="SVGID_3_" gradientUnits="userSpaceOnUse" x1="167.1187" y1="125.0995" x2="127.7974" y2="147.8017" gradientTransform="matrix(1 0 0 -1 0 300)">
	<stop  offset="0" style="stop-color:#E5E5E5"/>
	<stop  offset="0.44" style="stop-color:#E5E5E5"/>
	<stop  offset="0.5376" style="stop-color:#CECECE"/>
	<stop  offset="0.7429" style="stop-color:#929292"/>
	<stop  offset="1" style="stop-color:#3F3F3F"/>
</linearGradient>
<path class="st2" d="M167.9,144.6l-2.4,4.3l0,0c0,0.2,0,0.4,0,0.6c0,22.6-7,39.8-15.5,39.8c-8.6,0-15.5-17.1-15.5-39.8
	c0-0.3,0-0.5,0-0.7l-2.4-4.2c-0.1,1.6-0.1,3.3-0.1,4.9c0,25.6,8,45.1,17.9,45.1s17.9-19.4,17.9-45.1
	C168,147.8,168,146.1,167.9,144.6z"/>
<linearGradient id="SVGID_4_" gradientUnits="userSpaceOnUse" x1="150.0103" y1="154.6446" x2="150.0103" y2="198.0534" gradientTransform="matrix(1 0 0 -1 0 300)">
	<stop  offset="0" style="stop-color:#E5E5E5"/>
	<stop  offset="0.44" style="stop-color:#E5E5E5"/>
	<stop  offset="0.5376" style="stop-color:#CECECE"/>
	<stop  offset="0.7429" style="stop-color:#929292"/>
	<stop  offset="1" style="stop-color:#3F3F3F"/>
</linearGradient>
<path class="st3" d="M164.1,132.3c-4.5,0.4-9.2,0.5-14.1,0.5c-4.9,0-9.6-0.2-14.1-0.5l0,0l-2.9,2.1c5.4,0.4,11,0.7,17,0.7
	c5.9,0,11.6-0.3,17-0.7L164.1,132.3L164.1,132.3z M215.8,110C212.3,98.2,183,89.6,150,89.6S87.8,98.2,84.2,110
	c-3,10.2,13.9,19.6,40.5,23.4l-2.3-2.8l0,0c-21.5-3.6-34.3-11.5-31.4-19.8c3.5-10.1,29.5-17.4,59.1-17.4s55.5,7.3,59.1,17.4
	c2.9,8.3-9.8,16.1-31.4,19.8l0,0l-2.3,2.8C202.1,129.6,218.9,120.2,215.8,110z"/>
<path class="st4" d="M226.4,118.2c4.4,3.6,8.1,7.6,11,11.8c-1.1-6.8-3.7-13.1-7.8-18.4c-1.1-0.9-2.2-1.7-3.4-2.6
	c0.2,0.4,0.4,0.9,0.4,1.4C227.3,113.1,227.2,115.7,226.4,118.2z"/>
<path class="st4" d="M73.7,118.2c-0.9-2.6-1-5.1-0.4-7.8c0.1-0.4,0.4-1,0.5-1.5c-1.2,0.9-2.4,1.8-3.4,2.7c-4,5.3-6.7,11.6-7.8,18.4
	C65.7,125.8,69.4,121.8,73.7,118.2z"/>
<linearGradient id="SVGID_5_" gradientUnits="userSpaceOnUse" x1="150.0442" y1="219.336" x2="150.0442" y2="78.6477" gradientTransform="matrix(1 0 0 -1 0 300)">
	<stop  offset="0" style="stop-color:#BFBFBF"/>
	<stop  offset="5.625473e-02" style="stop-color:#D3D3D3"/>
	<stop  offset="0.12" style="stop-color:#E5E5E5"/>
	<stop  offset="0.1268" style="stop-color:#EAEAEA"/>
	<stop  offset="0.1488" style="stop-color:#F0F0F0"/>
	<stop  offset="0.21" style="stop-color:#F2F2F2"/>
	<stop  offset="0.545" style="stop-color:#F2F2F2"/>
	<stop  offset="0.581" style="stop-color:#D8D8D8"/>
	<stop  offset="0.6533" style="stop-color:#AAAAAA"/>
	<stop  offset="0.7257" style="stop-color:#848484"/>
	<stop  offset="0.7972" style="stop-color:#666666"/>
	<stop  offset="0.8674" style="stop-color:#515151"/>
	<stop  offset="0.9357" style="stop-color:#444444"/>
	<stop  offset="1" style="stop-color:#3F3F3F"/>
</linearGradient>
<path class="st5" d="M36.6,151c0-38.9,50.8-70.3,113.5-70.3s113.4,31.5,113.4,70.3c0,38.8-50.8,70.3-113.4,70.3
	C87.4,221.3,36.6,189.8,36.6,151z M150.1,214.2c55.9,0,101.3-28.4,101.3-63.5c0-35-45.3-63.5-101.3-63.5
	c-55.9,0.1-101.3,28.5-101.3,63.5C48.8,185.8,94.1,214.2,150.1,214.2z"/>
<path class="st6" d="M48.1,150.8c0,35.3,45.8,64.1,102,64.1s102-28.7,102-64.1s-45.8-64.1-102-64.1S48.1,115.5,48.1,150.8z
	 M49.4,150.8c0-34.6,45.2-62.7,100.7-62.7s100.7,28.2,100.7,62.7c0,34.6-45.2,62.7-100.7,62.7S49.4,185.4,49.4,150.8z"/>
<linearGradient id="SVGID_6_" gradientUnits="userSpaceOnUse" x1="150" y1="219.3196" x2="150" y2="78.7074" gradientTransform="matrix(1 0 0 -1 0 300)">
	<stop  offset="0" style="stop-color:#BFBFBF"/>
	<stop  offset="5.625473e-02" style="stop-color:#D3D3D3"/>
	<stop  offset="0.12" style="stop-color:#E5E5E5"/>
	<stop  offset="0.1268" style="stop-color:#EAEAEA"/>
	<stop  offset="0.1488" style="stop-color:#F0F0F0"/>
	<stop  offset="0.21" style="stop-color:#F2F2F2"/>
	<stop  offset="0.545" style="stop-color:#F2F2F2"/>
	<stop  offset="0.581" style="stop-color:#D8D8D8"/>
	<stop  offset="0.6533" style="stop-color:#AAAAAA"/>
	<stop  offset="0.7257" style="stop-color:#848484"/>
	<stop  offset="0.7972" style="stop-color:#666666"/>
	<stop  offset="0.8674" style="stop-color:#515151"/>
	<stop  offset="0.9357" style="stop-color:#444444"/>
	<stop  offset="1" style="stop-color:#3F3F3F"/>
</linearGradient>
<path class="st7" d="M123.4,151.6c0-33.8,11.9-61.9,26.6-61.9s26.6,28.1,26.6,61.9c0,34.2-11.9,61.9-26.6,61.9
	S123.4,185.8,123.4,151.6z M150.1,194.6c9.9,0,17.9-19.4,17.9-45.1c0-26.6-8-44.9-17.9-44.9s-17.9,18.3-17.9,44.9
	C132.1,175.1,140.2,194.6,150.1,194.6z"/>
<linearGradient id="SVGID_7_" gradientUnits="userSpaceOnUse" x1="150.0812" y1="219.3101" x2="150.0812" y2="78.6937" gradientTransform="matrix(1 0 0 -1 0 300)">
	<stop  offset="0" style="stop-color:#BFBFBF"/>
	<stop  offset="5.625473e-02" style="stop-color:#D3D3D3"/>
	<stop  offset="0.12" style="stop-color:#E5E5E5"/>
	<stop  offset="0.1268" style="stop-color:#EAEAEA"/>
	<stop  offset="0.1488" style="stop-color:#F0F0F0"/>
	<stop  offset="0.21" style="stop-color:#F2F2F2"/>
	<stop  offset="0.545" style="stop-color:#F2F2F2"/>
	<stop  offset="0.581" style="stop-color:#D8D8D8"/>
	<stop  offset="0.6533" style="stop-color:#AAAAAA"/>
	<stop  offset="0.7257" style="stop-color:#848484"/>
	<stop  offset="0.7972" style="stop-color:#666666"/>
	<stop  offset="0.8674" style="stop-color:#515151"/>
	<stop  offset="0.9357" style="stop-color:#444444"/>
	<stop  offset="1" style="stop-color:#3F3F3F"/>
</linearGradient>
<path class="st8" d="M73.5,110.4C76.4,98.9,111.7,82,150.1,82s72.5,12,76.6,28.5c4.6,18.4-29.4,35-76.6,35
	C102.9,145.4,68.8,128.8,73.5,110.4z M150.1,89.7c-33,0-62.2,8.7-65.8,20.4c-4,13.1,25.3,25,65.8,25s69.8-11.9,65.8-25.1
	C212.3,98.2,183,89.7,150.1,89.7z"/>
<linearGradient id="SVGID_8_" gradientUnits="userSpaceOnUse" x1="150.0442" y1="190.1575" x2="150.0442" y2="150.0799" gradientTransform="matrix(1 0 0 -1 0 300)">
	<stop  offset="5.618000e-03" style="stop-color:#E5E5E5"/>
	<stop  offset="1" style="stop-color:#4D4D4D"/>
</linearGradient>
<path class="st9" d="M132.1,144.6L132.1,144.6l2.5,4.3c4.9,0.4,10.1,0.7,15.5,0.7s10.5-0.3,15.5-0.7l2.4-4.2l0,0
	c-5.7,0.5-11.7,0.8-17.9,0.8C143.8,145.4,137.9,145.1,132.1,144.6z M227.1,114.4c-0.6,13.2-20.8,24.7-50.6,29.2l0,0l2.9,3.4
	C208.6,141.8,227.8,128.9,227.1,114.4z M73,114.4c-0.7,14.5,18.5,27.4,47.7,32.6l2.9-3.4l0,0C93.8,139.2,73.6,127.5,73,114.4z"/>
<linearGradient id="SVGID_9_" gradientUnits="userSpaceOnUse" x1="163.9628" y1="219.3155" x2="163.9628" y2="150.475" gradientTransform="matrix(1 0 0 -1 0 300)">
	<stop  offset="0" style="stop-color:#E5E5E5"/>
	<stop  offset="0.44" style="stop-color:#E5E5E5"/>
	<stop  offset="0.5376" style="stop-color:#CECECE"/>
	<stop  offset="0.7429" style="stop-color:#929292"/>
	<stop  offset="1" style="stop-color:#3F3F3F"/>
</linearGradient>
<path class="st10" d="M175.5,133.4L175.5,133.4l2.3-2.8c-4-24.5-14.9-40.9-27.7-40.9C162,89.7,172.2,108.2,175.5,133.4z"/>
<linearGradient id="SVGID_10_" gradientUnits="userSpaceOnUse" x1="136.2139" y1="219.3155" x2="136.2139" y2="150.475" gradientTransform="matrix(1 0 0 -1 0 300)">
	<stop  offset="0" style="stop-color:#E5E5E5"/>
	<stop  offset="0.44" style="stop-color:#E5E5E5"/>
	<stop  offset="0.5376" style="stop-color:#CECECE"/>
	<stop  offset="0.7429" style="stop-color:#929292"/>
	<stop  offset="1" style="stop-color:#3F3F3F"/>
</linearGradient>
<path class="st11" d="M124.6,133.4c3.4-25.2,13.5-43.7,25.5-43.7c-12.8,0-23.8,16.4-27.7,40.9L124.6,133.4L124.6,133.4z"/>
<linearGradient id="SVGID_11_" gradientUnits="userSpaceOnUse" x1="135.3744" y1="219.3159" x2="135.3744" y2="105.4693" gradientTransform="matrix(1 0 0 -1 0 300)">
	<stop  offset="0" style="stop-color:#E5E5E5"/>
	<stop  offset="0.44" style="stop-color:#E5E5E5"/>
	<stop  offset="0.5376" style="stop-color:#CECECE"/>
	<stop  offset="0.7429" style="stop-color:#929292"/>
	<stop  offset="1" style="stop-color:#3F3F3F"/>
</linearGradient>
<path class="st12" d="M123.4,151.6c0-2.7,0.1-5.4,0.3-8l0,0l-2.9,3.4c-0.1,1.5-0.1,3-0.1,4.6c0,36.2,12.9,61.9,29.4,61.9
	C135.3,213.6,123.4,185.8,123.4,151.6z"/>
<linearGradient id="SVGID_12_" gradientUnits="userSpaceOnUse" x1="164.8907" y1="219.3159" x2="164.8907" y2="105.4693" gradientTransform="matrix(1 0 0 -1 0 300)">
	<stop  offset="0" style="stop-color:#E5E5E5"/>
	<stop  offset="0.44" style="stop-color:#E5E5E5"/>
	<stop  offset="0.5376" style="stop-color:#CECECE"/>
	<stop  offset="0.7429" style="stop-color:#929292"/>
	<stop  offset="1" style="stop-color:#3F3F3F"/>
</linearGradient>
<path class="st13" d="M179.4,147l-2.9-3.4l0,0c0.2,2.7,0.3,5.3,0.3,8c0,34.2-11.9,61.9-26.6,61.9c16.5,0,29.4-25.7,29.4-61.9
	C179.5,150,179.4,148.5,179.4,147z"/>
</svg>
