<?xml version="1.0" encoding="utf-8"?>
<!-- Generator: Adobe Illustrator 23.0.3, SVG Export Plug-In . SVG Version: 6.00 Build 0)  -->
<svg version="1.1" id="Layer_1" xmlns="http://www.w3.org/2000/svg" xmlns:xlink="http://www.w3.org/1999/xlink" x="0px" y="0px"
	 viewBox="0 0 300 300" style="enable-background:new 0 0 300 300;" xml:space="preserve">
<style type="text/css">
	.st0{fill:url(#SVGID_1_);stroke:#B1B1B1;stroke-miterlimit:3.8637;}
	.st1{fill:url(#SVGID_2_);stroke:#B1B1B1;stroke-miterlimit:3.8637;}
	.st2{fill:url(#SVGID_3_);stroke:#FFFFFF;stroke-miterlimit:3.8637;}
	.st3{fill:url(#SVGID_4_);stroke:#FFFFFF;stroke-miterlimit:3.8637;}
	.st4{fill:#FFFFFF;}
	.st5{fill:#808080;}
	.st6{fill:none;stroke:#868686;stroke-width:1.1325;stroke-miterlimit:3.8637;}
	.st7{fill-rule:evenodd;clip-rule:evenodd;fill:none;stroke:#868686;stroke-width:1.1325;stroke-miterlimit:3.8637;}
	.st8{fill:none;stroke:#B1B1B1;stroke-miterlimit:3.8637;}
	.st9{fill:none;stroke:#575756;stroke-miterlimit:3.8637;}
	.st10{fill-rule:evenodd;clip-rule:evenodd;fill:#808080;}
	.st11{fill-rule:evenodd;clip-rule:evenodd;fill:none;stroke:#B1B1B1;stroke-miterlimit:3.8637;}
	.st12{fill-rule:evenodd;clip-rule:evenodd;fill:#28367B;}
	.st13{fill-rule:evenodd;clip-rule:evenodd;fill:#FFFFFF;}
</style>
<g>
	<g>
		<linearGradient id="SVGID_1_" gradientUnits="userSpaceOnUse" x1="57.4823" y1="151.1473" x2="245.9474" y2="151.1473">
			<stop  offset="0" style="stop-color:#ECECEC"/>
			<stop  offset="1" style="stop-color:#6F6F6E"/>
		</linearGradient>
		<circle class="st0" cx="151.7" cy="151.1" r="94.2"/>
		<linearGradient id="SVGID_2_" gradientUnits="userSpaceOnUse" x1="151.7148" y1="151.1473" x2="151.7148" y2="151.1473">
			<stop  offset="0" style="stop-color:#ECECEC"/>
			<stop  offset="1" style="stop-color:#6F6F6E"/>
		</linearGradient>
		<path class="st1" d="M151.7,151.1"/>
	</g>
	<g>
		<linearGradient id="SVGID_3_" gradientUnits="userSpaceOnUse" x1="164.6152" y1="224.3109" x2="138.8137" y2="77.9837">
			<stop  offset="0" style="stop-color:#D9D9D9"/>
			<stop  offset="1" style="stop-color:#575756"/>
		</linearGradient>
		<circle class="st2" cx="151.7" cy="151.1" r="74.3"/>
		<linearGradient id="SVGID_4_" gradientUnits="userSpaceOnUse" x1="151.7148" y1="151.1473" x2="151.7148" y2="151.1473">
			<stop  offset="0" style="stop-color:#D9D9D9"/>
			<stop  offset="1" style="stop-color:#575756"/>
		</linearGradient>
		<path class="st3" d="M151.7,151.1"/>
	</g>
	<g>
		<circle class="st4" cx="151.7" cy="151.1" r="59.9"/>
		<path class="st4" d="M151.7,151.1"/>
	</g>
	<g>
		<polygon class="st5" points="228.7,59.5 248.2,79 217.9,109.3 198.3,89.8 228.7,59.5 		"/>
		<path class="st5" d="M223.3,84.4"/>
	</g>
	<path class="st6" d="M143,47.2"/>
	<path class="st6" d="M213.3,200.4"/>
	<path class="st7" d="M168.6,56.9"/>
	<g>
		<line class="st5" x1="198.3" y1="89.8" x2="228.7" y2="59.5"/>
		<line class="st8" x1="198.3" y1="89.8" x2="228.7" y2="59.5"/>
	</g>
	<line class="st9" x1="248.2" y1="79" x2="217.9" y2="109.3"/>
	<g>
		<path class="st10" d="M249.7,107.1c-11.1-23.6-25.5-39.6-47.9-50.3l47.8,0.1L249.7,107.1z"/>
		<path class="st11" d="M249.7,107.1c-11.1-23.6-25.5-39.6-47.9-50.3l47.8,0.1L249.7,107.1z"/>
	</g>
	<path class="st12" d="M54.6,151.1c0-8.3,0.7-14.9,3-24.1l188.3,0.4c2.2,9,2.9,15.5,2.9,23.7c0,9.2-0.8,16.5-3.7,26.5l-186.9-0.2
		C55.4,167.5,54.6,160.3,54.6,151.1z"/>
	<g>
		<path class="st13" d="M164.8,153.1c0,3.5-2.8,6.6-6.3,6.6l-4,0c-0.4,0-0.7-0.3-0.7-0.7v-1.2v-10.4l0-1.4c0-0.4,0.3-0.7,0.7-0.7
			l3.9,0v-3.9h-20.7v3.9l3.9,0h0.2c0.5,0,0.9,0.4,0.9,0.9l0,13c0,0.3-0.2,0.5-0.5,0.5l-4.5,0v3.9h31v-10.6L164.8,153.1L164.8,153.1z
			"/>
		<path class="st13" d="M168.1,145.6c-0.1-0.1-0.2-0.2-0.4-0.2h-4.6v-3.9h22.2v3.9h-3.9l-0.2,0c-0.3,0-0.5,0.2-0.5,0.5l6.6,11.2
			l6.3-11.4c0-0.2-0.1-0.3-0.3-0.3h-3.7v-3.9h15.6v3.9h-4.1l-0.4,0c-0.1,0-0.3,0-0.4,0.1l-9.9,18.2h-12.2L168.1,145.6L168.1,145.6z"
			/>
		<path class="st13" d="M70.8,145.6c-0.1-0.1-0.2-0.2-0.4-0.2h-4.6v-3.9h22.3v3.9h-3.9l-0.2,0c-0.3,0-0.5,0.2-0.5,0.5l6.6,11.2
			l6.3-11.4c0-0.2-0.2-0.3-0.3-0.3h-3.7v-3.9h15.6v3.9H104l-0.4,0c-0.1,0-0.3,0-0.4,0.1l-9.9,18.2H81.2L70.8,145.6L70.8,145.6z"/>
		<path class="st13" d="M105.5,152.6c0-6.2,7-11.2,15.7-11.2c8.6,0,15.7,5,15.7,11.2s-7,11.2-15.7,11.2
			C112.5,163.8,105.5,158.8,105.5,152.6L105.5,152.6z M124.1,159c1.3-1.4,2.2-3.8,2.2-6.4c0-2.2-0.6-4.3-1.6-5.7
			c-0.8-1-2-1.6-3.3-1.6c-1.1,0-2.1,0.5-2.9,1.2c-0.2,0.1-0.3,0.3-0.4,0.5c-1.1,1.4-1.6,3.5-1.6,5.7c0,2.4,0.9,4.8,2.1,6.2
			c0.6,0.7,1.9,1.2,2.9,1.2C122.4,160,123.4,159.6,124.1,159L124.1,159z"/>
		<path class="st13" d="M202.9,152.6c0-6.2,7-11.2,15.7-11.2c8.7,0,15.7,5,15.7,11.2c0,6.2-7,11.2-15.7,11.2
			C209.9,163.7,202.9,158.7,202.9,152.6L202.9,152.6z M221.5,158.9c1.3-1.4,2.2-3.8,2.2-6.4c0-2.2-0.6-4.3-1.6-5.7
			c-0.8-1-2-1.6-3.3-1.6c-1.1,0-2.1,0.5-2.9,1.2c-0.2,0.1-0.3,0.3-0.4,0.5c-1.1,1.4-1.6,3.5-1.6,5.7c0,2.4,0.9,4.8,2.1,6.2
			c0.6,0.7,1.8,1.2,2.9,1.2C219.8,160,220.8,159.6,221.5,158.9L221.5,158.9z"/>
	</g>
</g>
</svg>
